<?xml version="1.0" encoding="utf-8"?>
<!-- Generator: Adobe Illustrator 16.0.0, SVG Export Plug-In . SVG Version: 6.00 Build 0)  -->
<!DOCTYPE svg PUBLIC "-//W3C//DTD SVG 1.1//EN" "http://www.w3.org/Graphics/SVG/1.1/DTD/svg11.dtd">
<svg version="1.1" xmlns="http://www.w3.org/2000/svg" xmlns:xlink="http://www.w3.org/1999/xlink" x="0px" y="0px" width="871.5px"
	 height="200px" viewBox="0 0 871.5 200" enable-background="new 0 0 871.5 200" xml:space="preserve">
<g id="legit_curve" stroke-width="2" stroke-dasharray="6" stroke="#663399" fill="none">
	<path id="c1" display="block" d="M129,95c0-24.45-19.82-44.28-44.28-44.28c-24.45,0-44.28,19.82-44.28,44.28"/>
	<path id="c2" display="block" d="M129,116c0,24.45,19.82,44.28,44.28,44.28c24.45,0,44.28-19.82,44.28-44.28"/>
	<path id="c3" display="block" d="M306.1,95c0-24.45-19.82-44.28-44.28-44.28c-24.45,0-44.28,19.82-44.28,44.28"/>
	<path id="c4" display="block" d="M306.1,116c0,24.45,19.82,44.28,44.28,44.28s44.28-19.82,44.28-44.28"/>
	<path id="c5" display="block" d="M483.2,95c0-24.45-19.82-44.28-44.28-44.28c-24.45,0-44.28,19.82-44.28,44.28"/>
	<path id="c6" display="block" d="M483.2,116c0,24.45,19.82,44.28,44.28,44.28c24.45,0,44.28-19.82,44.28-44.28"/>
	<path id="c7" display="block" d="M660.3,95c0-24.45-19.82-44.28-44.28-44.28c-24.45,0-44.28,19.82-44.28,44.28"/>
	<path id="c8" display="block" d="M660.3,116c0,24.45,19.82,44.28,44.28,44.28c24.45,0,44.28-19.82,44.28-44.28"/>
	<path id="c9" display="block" d="M837.4,95c0-24.45-19.82-44.28-44.28-44.28c-24.45,0-44.28,19.82-44.28,44.28"/>
</g>
<g id="final_curve" stroke-width="2" stroke-dasharray="6" stroke="#663399" fill="none">
	<path id="d1" display="none" d="M40.4,121c0,24.45,19.82,44.28,44.28,44.28c24.45,0,44.28-19.82,44.28-44.28"/>
	<path id="d2" display="none" d="M217.5,100c0-24.45-19.82-44.28-44.28-44.28c-24.45,0-44.28,19.82-44.28,44.28"/>
	<path id="d3" display="none" d="M217.5,121c0,24.45,19.82,44.28,44.28,44.28s44.28-19.82,44.28-44.28"/>
	<path id="d4" display="none" d="M394.6,100c0-24.45-19.82-44.28-44.28-44.28c-24.45,0-44.28,19.82-44.28,44.28"/>
	<path id="d5" display="none" d="M394.6,121c0,24.45,19.82,44.28,44.28,44.28c24.45,0,44.28-19.82,44.28-44.28"/>
	<path id="d6" display="block" d="M571.8,100c0-24.45-19.82-44.28-44.28-44.28c-24.45,0-44.28,19.82-44.28,44.28"/>
	<path id="d7" display="none" d="M571.8,121c0,24.45,19.82,44.28,44.28,44.28c24.45,0,44.28-19.82,44.28-44.28"/>
	<path id="d8" display="none" d="M748.88,100c0-24.45-19.82-44.28-44.28-44.28c-24.45,0-44.28,19.82-44.28,44.28"/>
	<path id="d9" display="none" d="M748.88,121c0,24.45,19.82,44.28,44.28,44.28c24.45,0,44.28-19.82,44.28-44.28"/>
</g>
<g id="text" text-anchor="middle" font-size="14" font-weight="400" stroke="none" fill="#663399">
	<text id="t1o" display="block" transform="matrix(1 0 0 1 40.4 115)" font-family="'Roboto'">bit</text>
	<text id="t1t" display="block" transform="matrix(1 0 0 1 129 115)" font-family="'ArialMT'">قليلا</text>
	<text id="t2o" display="block" transform="matrix(1 0 0 1 217.5 115)" font-family="'Roboto'">a little</text>
	<text id="t2t" display="block" transform="matrix(1 0 0 1 306.1 115)" font-family="'ArialMT'">القليل</text>
	<text id="t3o" display="block" transform="matrix(1 0 0 1 394.6 115)" font-family="'Roboto'">little</text>
	<text id="t3t" display="block" transform="matrix(1 0 0 1 483.2 115)" font-family="'ArialMT'">قليل</text>
	<text id="t4o" display="block" transform="matrix(1 0 0 1 571.8 115)" font-family="'Roboto'">few</text>
	<text id="t4t" display="none" transform="matrix(1 0 0 1 660.4 115)" font-family="'ArialMT'">few</text>
	<text id="t5o" display="none" transform="matrix(1 0 0 1 749 115)" font-family="'Roboto'">few</text>
	<text id="t5t" display="none" transform="matrix(1 0 0 1 837.6 115)" font-family="'ArialMT'">few</text>
</g>
<!-- <rect width=></rect> -->
</svg>
