<?xml version="1.0" encoding="UTF-8"?>
<!DOCTYPE svg  PUBLIC '-//W3C//DTD SVG 1.1//EN'  'http://www.w3.org/Graphics/SVG/1.1/DTD/svg11.dtd'>
<svg enable-background="new 0 0 697 697" version="1.1" viewBox="0 0 697 697" xml:space="preserve" xmlns="http://www.w3.org/2000/svg">
<rect width="697" height="697" fill="#927086"/>
<path d="m343.07 342.44s0.837-0.203 0.908-0.238c0.068-0.044 0.633-0.564 0.722-0.696 0.088-0.141 0.339-0.812 0.365-1.058 0.028-0.246-0.018-0.952-0.115-1.261-0.092-0.317-0.41-0.961-0.666-1.287-0.25-0.326-0.794-0.837-1.216-1.104-0.414-0.256-1.141-0.582-1.701-0.715-0.56-0.132-1.4-0.211-2.058-0.158-0.657 0.063-1.539 0.246-2.223 0.529-0.684 0.291-1.522 0.766-2.158 1.287-0.637 0.52-1.347 1.269-1.849 2.027-0.502 0.748-1.001 1.727-1.295 2.672-0.292 0.941-0.503 2.097-0.521 3.164-0.019 1.066 0.104 2.311 0.403 3.422 0.303 1.108 0.795 2.335 1.431 3.393 0.633 1.049 1.487 2.151 2.45 3.051 0.962 0.898 2.143 1.771 3.386 2.415 1.244 0.645 2.688 1.182 4.135 1.48 1.45 0.302 3.068 0.44 4.628 0.337 1.556-0.105 3.227-0.424 4.779-0.971 1.551-0.547 3.147-1.341 4.557-2.327 1.418-0.987 2.801-2.223 3.953-3.614 1.148-1.395 2.199-3.023 2.975-4.752 0.775-1.719 1.375-3.649 1.675-5.598 0.309-1.948 0.375-4.037 0.141-6.082-0.229-2.037-0.74-4.152-1.533-6.136-0.795-1.982-1.877-3.967-3.217-5.729-1.342-1.771-2.967-3.446-4.793-4.85-1.82-1.408-3.9-2.635-6.105-3.543-2.202-0.898-4.608-1.561-7.06-1.867-2.441-0.303-5.021-0.31-7.541 0.052-2.526 0.36-5.085 1.058-7.501 2.099-2.411 1.04-4.773 2.435-6.898 4.116-2.114 1.692-4.09 3.702-5.741 5.96-1.652 2.248-3.068 4.787-4.104 7.467-1.03 2.678-1.755 5.57-2.063 8.517-0.302 2.943-0.238 6.003 0.247 9.009 0.488 2.998 1.375 6.012 2.661 8.858 1.286 2.849 2.971 5.59 5.016 8.066 2.036 2.469 4.443 4.742 7.124 6.636 2.679 1.905 5.668 3.51 8.822 4.673 3.165 1.163 6.541 1.947 9.979 2.247 3.438 0.31 6.991 0.188 10.463-0.431 3.482-0.616 6.955-1.692 10.228-3.228 3.27-1.541 6.407-3.525 9.229-5.914 2.824-2.39 5.396-5.185 7.541-8.285 2.146-3.113 3.936-6.55 5.23-10.19 1.286-3.642 2.139-7.513 2.44-11.441 0.31-3.933 0.115-7.968-0.625-11.928-0.744-3.95-2.006-7.881-3.791-11.572-1.779-3.703-4.063-7.238-6.805-10.402-2.742-3.174-5.924-6.047-9.463-8.438-3.539-2.398-7.433-4.372-11.547-5.791-4.117-1.43-8.472-2.337-12.901-2.644-4.426-0.303-8.947-0.046-13.381 0.818-4.435 0.872-8.814 2.328-12.945 4.354-4.13 2.037-8.047 4.619-11.568 7.705s-6.69 6.664-9.331 10.632c-2.646 3.967-4.81 8.313-6.361 12.905-1.542 4.602-2.521 9.44-2.829 14.359-0.304 4.92 0.018 9.934 1.014 14.844 1.005 4.92 2.641 9.749 4.919 14.307 2.274 4.559 5.161 8.868 8.601 12.738 3.438 3.869 7.403 7.334 11.8 10.225 4.39 2.893 9.198 5.246 14.271 6.92 5.068 1.676 10.401 2.725 15.815 3.023 5.416 0.309 10.917-0.08 16.308-1.207 5.388-1.121 10.681-2.953 15.664-5.475 4.984-2.53 9.688-5.712 13.906-9.495 4.219-3.788 7.99-8.146 11.125-12.967 3.137-4.821 5.682-10.085 7.484-15.639 1.801-5.543 2.908-11.362 3.213-17.276 0.307-5.906-0.142-11.9-1.396-17.764-1.258-5.87-3.271-11.607-6.043-17.021-2.768-5.412-6.258-10.506-10.395-15.083-4.133-4.565-8.885-8.63-14.135-12.016-5.248-3.387-10.966-6.116-16.99-8.049-6.025-1.93-12.336-3.103-18.741-3.41-6.399-0.301-12.879 0.212-19.225 1.597-6.341 1.385-12.546 3.587-18.386 6.602-5.84 3.023-11.323 6.805-16.24 11.293-4.921 4.485-9.291 9.625-12.92 15.303-3.631 5.677-6.554 11.848-8.611 18.354-2.059 6.497-3.292 13.301-3.602 20.195-0.304 6.901 0.273 13.864 1.785 20.688 1.512 6.815 3.904 13.479 7.171 19.746 3.261 6.268 7.352 12.148 12.184 17.409 4.84 5.271 10.37 9.935 16.475 13.813 6.101 3.88 12.732 6.989 19.71 9.178 6.982 2.186 14.271 3.48 21.659 3.79 7.391 0.309 14.852-0.338 22.146-1.976 7.298-1.64 14.412-4.224 21.109-7.73 6.693-3.51 12.967-7.898 18.582-13.08 5.615-5.185 10.586-11.116 14.707-17.642 4.125-6.531 7.426-13.619 9.736-21.074 2.317-7.457 3.682-15.241 3.985-23.121 0.308-7.883-0.396-15.832-2.168-23.607-1.764-7.768-4.537-15.338-8.297-22.462-3.754-7.122-8.443-13.786-13.979-19.755-5.527-5.959-11.849-11.23-18.81-15.604-6.959-4.372-14.5-7.86-22.434-10.305-7.931-2.441-16.201-3.87-24.58-4.179-8.374-0.31-16.814 0.468-25.062 2.362-8.251 1.896-16.28 4.857-23.831 8.859-7.55 4.002-14.604 9.001-20.911 14.88-6.316 5.88-11.895 12.587-16.509 19.977-4.619 7.387-8.295 15.382-10.864 23.792-2.574 8.408-4.063 17.171-4.371 26.04-0.305 8.866 0.533 17.807 2.557 26.523 2.019 8.728 5.17 17.216 9.422 25.193 4.25 7.977 9.543 15.426 15.771 22.082 6.232 6.663 13.338 12.544 21.146 17.399 7.812 4.866 16.273 8.736 25.154 11.434 8.885 2.697 18.136 4.249 27.499 4.558 9.361 0.311 18.785-0.591 27.988-2.741s18.146-5.49 26.551-9.986c8.402-4.497 16.242-10.094 23.254-16.67 7.008-6.576 13.189-14.078 18.297-22.313 5.113-8.241 9.168-17.162 11.992-26.515 2.824-9.361 4.447-19.11 4.752-28.966 0.309-9.855-0.662-19.765-2.936-29.442-2.274-9.678-5.81-19.085-10.552-27.909-4.744-8.832-10.641-17.064-17.563-24.426-6.924-7.359-14.814-13.839-23.484-19.19-8.664-5.357-18.041-9.607-27.879-12.562-9.836-2.953-20.07-4.638-30.42-4.945-10.349-0.309-20.75 0.723-30.904 3.13-10.156 2.406-20.01 6.126-29.271 11.115-9.263 4.99-17.881 11.187-25.591 18.459-7.708 7.282-14.485 15.56-20.094 24.655-5.602 9.098-10.036 18.927-13.117 29.239-3.079 10.313-4.829 21.033-5.139 31.875-0.303 10.844 0.794 21.738 3.324 32.369 2.529 10.632 6.443 20.945 11.679 30.632 5.236 9.688 11.732 18.698 19.358 26.764 7.625 8.058 16.299 15.137 25.82 20.979 9.52 5.854 19.807 10.481 30.598 13.689 10.789 3.209 22.003 5.016 33.338 5.323 11.336 0.309 22.721-0.854 33.834-3.509 11.105-2.661 21.877-6.762 31.988-12.242 10.11-5.484 19.521-12.278 27.926-20.258 8.41-7.969 15.789-17.041 21.889-26.981 6.097-9.954 10.904-20.697 14.246-31.964 3.33-11.268 5.213-22.974 5.519-34.804 0.309-11.829-0.916-23.702-3.703-35.286-2.783-11.582-7.076-22.813-12.808-33.347-5.729-10.543-12.823-20.346-21.147-29.1-8.32-8.753-17.783-16.439-28.158-22.777-10.377-6.346-21.574-11.354-33.316-14.817-11.745-3.456-23.94-5.402-36.265-5.711-12.319-0.31-24.682 0.985-36.745 3.896-12.063 2.917-23.742 7.396-34.713 13.373-10.965 5.977-21.161 13.381-30.268 22.046-9.101 8.674-17.083 18.521-23.677 29.327-6.585 10.797-11.776 22.461-15.374 34.678-3.588 12.219-5.598 24.902-5.905 37.721-0.304 12.816 1.05 25.67 4.092 38.214 3.039 12.534 7.712 24.673 13.937 36.069 6.224 11.391 13.922 21.978 22.945 31.436 9.018 9.449 19.261 17.736 30.49 24.566 11.23 6.841 23.344 12.22 36.043 15.938 12.695 3.721 25.871 5.792 39.178 6.101 13.311 0.311 26.657-1.108 39.668-4.283 13.016-3.164 25.615-8.021 37.436-14.491 11.822-6.472 22.802-14.476 32.601-23.845 9.801-9.361 18.389-20.001 25.475-31.655 7.078-11.662 12.648-24.233 16.496-37.401 3.848-13.179 5.986-26.843 6.289-40.646 0.309-13.796-1.172-27.638-4.469-41.123-3.297-13.496-8.349-26.552-15.066-38.795-6.717-12.252-15.02-23.624-24.733-33.771-9.72-10.155-20.746-19.041-32.83-26.367-12.082-7.334-25.109-13.09-38.765-17.065-13.646-3.977-27.803-6.179-42.102-6.487-14.288-0.31-28.621 1.242-42.584 4.672-13.969 3.421-27.482 8.656-40.157 15.62-12.671 6.965-24.439 15.566-34.938 25.634-10.499 10.067-19.685 21.493-27.265 33.999-7.571 12.511-13.521 25.996-17.625 40.127-4.104 14.121-6.369 28.772-6.678 43.556-0.304 14.791 1.309 29.609 4.861 44.05 3.553 14.447 8.979 28.419 16.188 41.52 7.212 13.099 16.114 25.255 26.53 36.105 10.414 10.852 22.226 20.336 35.166 28.156 12.941 7.827 26.881 13.963 41.484 18.192 14.597 4.231 29.741 6.56 45.018 6.867 15.286 0.309 30.592-1.365 45.512-5.051 14.916-3.677 29.347-9.29 42.877-16.748 13.531-7.457 26.078-16.67 37.273-27.424 11.201-10.764 20.984-22.973 29.06-36.336 8.065-13.372 14.395-27.769 18.754-42.852 4.358-15.072 6.754-30.702 7.059-46.48 0.307-15.771-1.434-31.576-5.242-46.967-3.807-15.392-9.611-30.279-17.315-44.234-7.705-13.962-17.212-26.903-28.322-38.451-11.111-11.54-23.713-21.632-37.504-29.945-13.791-8.321-28.65-14.836-44.203-19.322-15.555-4.486-31.674-6.945-47.946-7.255-16.264-0.309-32.554 1.498-48.425 5.438-15.872 3.932-31.218 9.927-45.601 17.877-14.382 7.951-27.72 17.763-39.609 29.222-11.893 11.46-22.285 24.453-30.854 38.673-8.56 14.22-15.269 29.529-19.879 45.565-4.613 16.025-7.14 32.642-7.447 49.399-0.306 16.767 1.568 33.541 5.633 49.894 4.059 16.343 10.242 32.147 18.44 46.957 8.197 14.811 18.309 28.535 30.11 40.779 11.813 12.244 25.198 22.937 39.845 31.743 14.646 8.813 30.421 15.707 46.923 20.45 16.512 4.742 33.612 7.326 50.862 7.634 17.256 0.31 34.53-1.632 51.353-5.816 16.823-4.188 33.077-10.561 48.319-19.006 15.236-8.443 29.354-18.855 41.951-31.012 12.588-12.154 23.58-25.933 32.644-41.009 9.053-15.072 16.141-31.311 21.006-48.288 4.869-16.986 7.522-34.582 7.828-52.326 0.307-17.745-1.693-35.508-6.015-52.813-4.317-17.295-10.877-34.008-19.567-49.672-8.688-15.665-19.402-30.185-31.91-43.124-12.506-12.94-26.677-24.233-42.179-33.532-15.5-9.31-32.188-16.582-49.645-21.58-17.459-4.998-35.543-7.713-53.787-8.021-18.237-0.31-36.489 1.763-54.265 6.206-17.779 4.441-34.951 11.194-51.045 20.134-16.092 8.938-30.997 19.947-44.281 32.809-13.293 12.854-24.891 27.415-34.439 43.345-9.548 15.929-17.014 33.074-22.135 51.005-5.121 17.938-7.906 36.512-8.215 55.243-0.305 18.731 1.824 37.481 6.397 55.729 4.574 18.255 11.514 35.887 20.698 52.404 9.182 16.52 20.495 31.813 33.699 45.45 13.206 13.637 28.164 25.537 44.517 35.33 16.352 9.805 33.955 17.454 52.369 22.709 18.41 5.245 37.474 8.094 56.698 8.399 19.226 0.31 38.46-1.886 57.193-6.583 18.729-4.708 36.813-11.83 53.762-21.262 16.943-9.434 32.635-21.052 46.623-34.601 13.986-13.55 26.186-28.905 36.229-45.681 10.041-16.784 17.886-34.846 23.263-53.736 5.377-18.882 8.291-38.44 8.596-58.161 0.309-19.72-1.949-39.438-6.779-58.646-4.83-19.209-12.147-37.756-21.826-55.121-9.674-17.373-21.592-33.461-35.493-47.795-13.9-14.333-29.64-26.832-46.853-37.129-17.207-10.287-35.723-18.317-55.09-23.826-19.367-5.501-39.412-8.479-59.625-8.789-20.213-0.309-40.425 2.02-60.11 6.973-19.679 4.964-38.68 12.466-56.479 22.392-17.803 9.926-34.278 22.143-48.96 36.388-14.683 14.254-27.484 30.386-38.023 48.024-10.534 17.639-18.759 36.608-24.392 56.452-5.633 19.842-8.674 40.372-8.982 61.078-0.304 20.707 2.084 41.413 7.166 61.573 5.087 20.16 12.782 39.615 22.955 57.845 10.164 18.229 22.691 35.094 37.287 50.132 14.599 15.029 31.127 28.128 49.188 38.918 18.062 10.78 37.488 19.19 57.808 24.945 20.32 5.766 41.348 8.868 62.543 9.178 21.202 0.307 42.401-2.145 63.034-7.354 20.635-5.219 40.553-13.099 59.205-23.52 18.653-10.418 35.914-23.234 51.295-38.188 15.381-14.94 28.791-31.866 39.817-50.352 11.027-18.494 19.634-38.38 25.521-59.177 5.887-20.794 7.209-24.705 9.358-46.397" fill="none" opacity=".5" stroke="#FFFFE3" stroke-miterlimit="10" stroke-width=".8762"/>
<g fill="#ffb" stroke="#ff0" stroke-width=".44">
<circle cx="342.49" cy="336.73" r="5.5" opacity=".25"/>
<circle cx="334.66" cy="338.82" r="5.5" opacity=".25"/>
<circle cx="341.69" cy="359.3" r="5.5" opacity=".25"/>
<circle cx="365.6" cy="333.48" r="5.5" opacity=".25"/>
<circle cx="362.03" cy="325.71" r="5.5" opacity=".25"/>
<circle cx="356.06" cy="319.61" r="5.5" opacity=".5"/>
<circle cx="331.55" cy="315.69" r="5.5" opacity=".25"/>
<circle cx="323.81" cy="319.32" r="5.5" opacity=".5"/>
<circle cx="310.04" cy="340.25" r="5.5" opacity=".25"/>
<circle cx="309.22" cy="348.95" r="5.5" opacity=".25"/>
<circle cx="320.16" cy="371.62" r="5.5" opacity=".25"/>
<circle cx="326.91" cy="376.9" r="5.5" opacity=".25"/>
<circle cx="359.96" cy="380.41" r="5.5" opacity=".25"/>
<circle cx="367.73" cy="376.83" r="5.5" opacity=".25"/>
<circle cx="384.7" cy="357.99" r="5.5" opacity=".25"/>
<circle cx="382.84" cy="316.71" r="5.5" opacity=".5"/>
<circle cx="364.95" cy="298.65" r="5.5" opacity=".25"/>
<circle cx="348.92" cy="292.78" r="5.5" opacity=".25"/>
<circle cx="331.55" cy="291.98" r="5.5" opacity=".25"/>
<circle cx="315.64" cy="298.06" r="5.5" opacity=".25"/>
<circle cx="308.43" cy="302.68" r="5.5" opacity=".25"/>
<circle cx="292.38" cy="322.48" r="5.5" opacity=".25"/>
<circle cx="289.3" cy="330.49" r="5.5" opacity=".25"/>
<circle cx="287.49" cy="338.86" r="5.5" opacity=".25"/>
<circle cx="293.12" cy="372.21" r="5.5" opacity=".25"/>
<circle cx="316.34" cy="396.79" r="5.5" opacity=".25"/>
<circle cx="332.38" cy="402.7" r="5.5" opacity=".5"/>
<circle cx="388.4" cy="389.62" r="5.5" opacity=".25"/>
<circle cx="394.5" cy="383.64" r="5.5" opacity=".25"/>
<circle cx="407.51" cy="361.6" r="5.5" opacity=".25"/>
<circle cx="411.08" cy="344.86" r="5.5"/>
<circle cx="411.24" cy="336.31" r="5.5" opacity=".25"/>
<circle cx="408.35" cy="319.44" r="5.5" opacity=".25"/>
<circle cx="405.35" cy="311.4" r="5.5" opacity=".25"/>
<circle cx="401.39" cy="303.8" r="5.5" opacity=".5"/>
<circle cx="377.32" cy="279.8" r="5.5" opacity=".25"/>
<circle cx="369.74" cy="275.82" r="5.5" opacity=".25"/>
<circle cx="361.71" cy="272.77" r="5.5" opacity=".5"/>
<circle cx="353.41" cy="270.7" r="5.5" opacity=".25"/>
<circle cx="344.89" cy="269.61" r="5.5" opacity=".25"/>
<circle cx="336.33" cy="269.54" r="5.5" opacity=".5"/>
<circle cx="327.72" cy="270.35" r="5.5" opacity=".25"/>
<circle cx="311.35" cy="275.19" r="5.5" opacity=".25"/>
<circle cx="303.63" cy="278.95" r="5.5" opacity=".5"/>
<circle cx="296.41" cy="283.55" r="5.5" opacity=".25"/>
<circle cx="289.73" cy="288.96" r="5.5" opacity=".5"/>
<circle cx="283.73" cy="295.05" r="5.5" opacity=".25"/>
<circle cx="278.42" cy="301.8" r="5.5" opacity=".25"/>
<circle cx="267.44" cy="324.95" r="5.5" opacity=".25"/>
<circle cx="264.58" cy="341.84" r="5.5" opacity=".25"/>
<circle cx="264.55" cy="350.4" r="5.5" opacity=".25"/>
<circle cx="265.43" cy="358.93" r="5.5" opacity=".25"/>
<circle cx="266.81" cy="367.07" r="5.5" opacity=".25"/>
<circle cx="269.43" cy="375.89" r="5.5" opacity=".25"/>
<circle cx="277.81" cy="390.65" r="5.5" opacity=".25"/>
<circle cx="282.91" cy="397.55" r="5.5" opacity=".25"/>
<circle cx="288.72" cy="403.87" r="5.5" opacity=".5"/>
<circle cx="302.14" cy="414.53" r="5.5" opacity=".25"/>
<circle cx="309.58" cy="418.74" r="5.5" opacity=".5"/>
<circle cx="325.62" cy="424.79" r="5.5"/>
<circle cx="334" cy="426.55" r="5.5" opacity=".25"/>
<circle cx="359.64" cy="426.64" r="5.5" opacity=".25"/>
<circle cx="376.23" cy="422.43" r="5.5"/>
<circle cx="384.15" cy="419.1" r="5.5" opacity=".25"/>
<circle cx="391.68" cy="415.01" r="5.5" opacity=".25"/>
<circle cx="398.77" cy="410.2" r="5.5" opacity=".25"/>
<circle cx="405.38" cy="404.68" r="5.5" opacity=".25"/>
<circle cx="416.76" cy="391.91" r="5.5" opacity=".25"/>
<circle cx="425.47" cy="377.17" r="5.5" opacity=".25"/>
<circle cx="432.86" cy="352.6" r="5.5" opacity=".25"/>
<circle cx="433.88" cy="335.97" r="5.5" opacity=".25"/>
<circle cx="433.01" cy="326.96" r="5.5" opacity=".25"/>
<circle cx="431.43" cy="318.5" r="5.5" opacity=".25"/>
<circle cx="429.08" cy="310.28" r="5.5" opacity=".25"/>
<circle cx="422.12" cy="294.61" r="5.5" opacity=".25"/>
<circle cx="417.59" cy="287.35" r="5.5" opacity=".25"/>
<circle cx="412.39" cy="280.52" r="5.5" opacity=".25"/>
<circle cx="406.58" cy="274.2" r="5.5" opacity=".25"/>
<circle cx="400.23" cy="268.46" r="5.5" opacity=".25"/>
<circle cx="393.36" cy="263.3" r="5.5" opacity=".25"/>
<circle cx="386.06" cy="258.8" r="5.5" opacity=".25"/>
<circle cx="378.39" cy="254.99" r="5.5" opacity=".5"/>
<circle cx="370.38" cy="251.88" r="5.5" opacity=".25"/>
<circle cx="362.14" cy="249.52" r="5.5" opacity=".5"/>
<circle cx="353.73" cy="247.9" r="5.5" opacity=".25"/>
<circle cx="345.17" cy="247.04" r="5.5" opacity=".25"/>
<circle cx="328.13" cy="247.04" r="5.5" opacity=".25"/>
<circle cx="319.88" cy="248.23" r="5.5" opacity=".25"/>
<circle cx="311.31" cy="251.25" r="5.5" opacity=".25"/>
<circle cx="303.25" cy="254.15" r="5.5" opacity=".25"/>
<circle cx="288.02" cy="262.02" r="5.5" opacity=".25"/>
<circle cx="280.99" cy="266.92" r="5.5" opacity=".25"/>
<circle cx="274.39" cy="272.43" r="5.5" opacity=".25"/>
<circle cx="268.32" cy="278.47" r="5.5" opacity=".5"/>
<circle cx="262.79" cy="285.01" r="5.5" opacity=".25"/>
<circle cx="257.83" cy="292.04" r="5.5" opacity=".25"/>
<circle cx="253.52" cy="299.43" r="5.5" opacity=".75"/>
<circle cx="249.84" cy="307.18" r="5.5" opacity=".25"/>
<circle cx="246.33" cy="314.97" r="5.5" opacity=".25"/>
<circle cx="244.64" cy="323.23" r="5.5" opacity=".25"/>
<circle cx="242.95" cy="331.9" r="5.5" opacity=".25"/>
<circle cx="241.93" cy="349.02" r="5.5" opacity=".25"/>
<circle cx="242.51" cy="357.57" r="5.5" opacity=".25"/>
<circle cx="243.8" cy="366.06" r="5.5"/>
<circle cx="247.98" cy="382.64" r="5.5" opacity=".25"/>
<circle cx="251.28" cy="390.93" r="5.5" opacity=".25"/>
<circle cx="255.85" cy="398.02" r="5.5" opacity=".25"/>
<circle cx="260.46" cy="405.24" r="5.5" opacity=".25"/>
<circle cx="265.66" cy="412.07" r="5.5" opacity=".25"/>
<circle cx="284.35" cy="429.67" r="5.5" opacity=".25"/>
<circle cx="291.49" cy="434.46" r="5.5" opacity=".25"/>
<circle cx="298.95" cy="438.64" r="5.5" opacity=".25"/>
<circle cx="307.21" cy="442.72" r="5.5" opacity=".25"/>
<circle cx="314.83" cy="445.14" r="5.5" opacity=".5"/>
<circle cx="323.09" cy="447.39" r="5.5" opacity=".25"/>
<circle cx="348.63" cy="450.11" r="5.5" opacity=".25"/>
<circle cx="357.18" cy="449.65" r="5.5" opacity=".25"/>
<circle cx="365.87" cy="448.69" r="5.5" opacity=".25"/>
<circle cx="374.08" cy="446.68" r="5.5" opacity=".5"/>
<circle cx="382.28" cy="444.21" r="5.5" opacity=".25"/>
<circle cx="390.27" cy="441.1" r="5.5" opacity=".25"/>
<circle cx="405.39" cy="433.03" r="5.5" opacity=".25"/>
<circle cx="425.27" cy="416.76" r="5.5" opacity=".5"/>
<circle cx="430.97" cy="410.36" r="5.5" opacity=".25"/>
<circle cx="440.83" cy="396.32" r="5.5" opacity=".25"/>
<circle cx="444.77" cy="389.2" r="5.5" opacity=".5"/>
<circle cx="448.4" cy="380.96" r="5.5" opacity=".25"/>
<circle cx="451.28" cy="372.85" r="5.5" opacity=".25"/>
<circle cx="453.52" cy="364.59" r="5.5" opacity=".25"/>
<circle cx="455.13" cy="356.18" r="5.5" opacity=".25"/>
<circle cx="456.09" cy="347.64" r="5.5" opacity=".25"/>
<circle cx="453.43" cy="313.54" r="5.5" opacity=".25"/>
<circle cx="444.82" cy="289.36" r="5.5" opacity=".25"/>
<circle cx="440.77" cy="281.8" r="5.5" opacity=".25"/>
<circle cx="436.17" cy="274.58" r="5.5" opacity=".25"/>
<circle cx="431.04" cy="267.7" r="5.5" opacity=".25"/>
<circle cx="425.4" cy="261.21" r="5.5" opacity=".5"/>
<circle cx="412.8" cy="249.62" r="5.5" opacity=".5"/>
<circle cx="405.88" cy="244.54" r="5.5" opacity=".25"/>
<circle cx="398.6" cy="239.99" r="5.5" opacity=".25"/>
<circle cx="391.02" cy="235.99" r="5.5" opacity=".25"/>
<circle cx="383.17" cy="232.55" r="5.5" opacity=".25"/>
<circle cx="366.8" cy="227.44" r="5.5" opacity=".5"/>
<circle cx="341.28" cy="224.35" r="5.5" opacity=".5"/>
<circle cx="324.19" cy="225.39" r="5.5" opacity=".25"/>
<circle cx="307.39" cy="228.88" r="5.5" opacity=".25"/>
<circle cx="299.24" cy="231.52" r="5.5"/>
<circle cx="291.29" cy="234.73" r="5.5" opacity=".25"/>
<circle cx="276.17" cy="242.83" r="5.5" opacity=".5"/>
<circle cx="256.01" cy="258.77" r="5.5" opacity=".25"/>
<circle cx="244.66" cy="271.59" r="5.5" opacity=".25"/>
<circle cx="239.67" cy="278.59" r="5.5" opacity=".25"/>
<circle cx="235.2" cy="285.91" r="5.5" opacity=".25"/>
<circle cx="231.26" cy="293.51" r="5.5" opacity=".25"/>
<circle cx="224.99" cy="309.49" r="5.5" opacity=".75"/>
<circle cx="218.87" cy="351.71" r="5.5" opacity=".25"/>
<circle cx="220.12" cy="360.34" r="5.5" opacity=".25"/>
<circle cx="221.37" cy="368.84" r="5.5" opacity=".25"/>
<circle cx="228.56" cy="393.5" r="5.5" opacity=".25"/>
<circle cx="232.06" cy="401.34" r="5.5" opacity=".5"/>
<circle cx="236.02" cy="409.49" r="5.5" opacity=".25"/>
<circle cx="240.62" cy="416.19" r="5.5" opacity=".25"/>
<circle cx="245.63" cy="423.14" r="5.5" opacity=".25"/>
<circle cx="251.12" cy="429.76" r="5.5" opacity=".5"/>
<circle cx="257.03" cy="435.98" r="5.5"/>
<circle cx="263.34" cy="441.77" r="5.5" opacity=".25"/>
<circle cx="277.08" cy="452.05" r="5.5" opacity=".25"/>
<circle cx="292.05" cy="460.38" r="5.5" opacity=".25"/>
<circle cx="299.93" cy="463.78" r="5.5" opacity=".25"/>
<circle cx="308" cy="466.36" r="5.5" opacity=".25"/>
<circle cx="316.28" cy="468.96" r="5.5" opacity=".25"/>
<circle cx="324.66" cy="470.72" r="5.5" opacity=".25"/>
<circle cx="333.16" cy="471.93" r="5.5" opacity=".25"/>
<circle cx="341.73" cy="472.57" r="5.5" opacity=".25"/>
<circle cx="350.3" cy="472.64" r="5.5" opacity=".25"/>
<circle cx="358.85" cy="472.15" r="5.5" opacity=".25"/>
<circle cx="376.04" cy="469.25" r="5.5" opacity=".25"/>
<circle cx="384.1" cy="467.31" r="5.5"/>
<circle cx="392.23" cy="464.61" r="5.5" opacity=".25"/>
<circle cx="400.18" cy="461.38" r="5.5"/>
<circle cx="407.92" cy="457.63" r="5.5" opacity=".25"/>
<circle cx="422.52" cy="448.69" r="5.5" opacity=".25"/>
<circle cx="429.37" cy="443.53" r="5.5" opacity=".5"/>
<circle cx="435.88" cy="437.91" r="5.5" opacity=".25"/>
<circle cx="453" cy="418.77" r="5.5" opacity=".25"/>
<circle cx="462.24" cy="404.31" r="5.5" opacity=".25"/>
<circle cx="466.14" cy="396.68" r="5.5" opacity=".5"/>
<circle cx="469.54" cy="388.81" r="5.5" opacity=".25"/>
<circle cx="474.01" cy="372.85" r="5.5"/>
<circle cx="477.97" cy="355.64" r="5.5" opacity=".25"/>
<circle cx="478.63" cy="346.95" r="5.5" opacity=".5"/>
<circle cx="478.95" cy="338.5" r="5.5" opacity=".25"/>
<circle cx="478.63" cy="329.94" r="5.5" opacity=".25"/>
<circle cx="477.78" cy="321.42" r="5.5" opacity=".25"/>
<circle cx="474.08" cy="304.8" r="5.5" opacity=".25"/>
<circle cx="469.04" cy="288.32" r="5.5" opacity=".25"/>
<circle cx="465.58" cy="280.46" r="5.5" opacity=".25"/>
<circle cx="461.62" cy="272.83" r="5.5" opacity=".25"/>
<circle cx="457.22" cy="265.49" r="5.5" opacity=".5"/>
<circle cx="452.36" cy="258.43" r="5.5" opacity=".25"/>
<circle cx="447.07" cy="251.67" r="5.5" opacity=".25"/>
<circle cx="435.27" cy="239.22" r="5.5" opacity=".25"/>
<circle cx="428.83" cy="233.57" r="5.5" opacity=".5"/>
<circle cx="422.04" cy="228.32" r="5.5" opacity=".25"/>
<circle cx="414.93" cy="223.5" r="5.5" opacity=".25"/>
<circle cx="407.32" cy="219.16" r="5.5" opacity=".25"/>
<circle cx="399.92" cy="215.24" r="5.5" opacity=".25"/>
<circle cx="392.06" cy="211.81" r="5.5" opacity=".25"/>
<circle cx="383.99" cy="208.86" r="5.5" opacity=".5"/>
<circle cx="375.76" cy="206.43" r="5.5" opacity=".25"/>
<circle cx="367.42" cy="204.5" r="5.5" opacity=".25"/>
<circle cx="358.48" cy="202.41" r="5.5" opacity=".25"/>
<circle cx="341.84" cy="201.8" r="5.5" opacity=".5"/>
<circle cx="333.28" cy="201.94" r="5.5" opacity=".25"/>
<circle cx="324.63" cy="202.38" r="5.5"/>
<circle cx="316.23" cy="203.79" r="5.5" opacity=".5"/>
<circle cx="299.52" cy="207.68" r="5.5" opacity=".25"/>
<circle cx="291.39" cy="210.37" r="5.5" opacity=".25"/>
<circle cx="283.42" cy="213.55" r="5.5" opacity=".25"/>
<circle cx="275.65" cy="217.21" r="5.5" opacity=".25"/>
<circle cx="260.86" cy="225.88" r="5.5" opacity=".25"/>
<circle cx="240.85" cy="242.04" r="5.5" opacity=".5"/>
<circle cx="234.88" cy="248.18" r="5.5" opacity=".25"/>
<circle cx="229.28" cy="254.67" r="5.5" opacity=".25"/>
<circle cx="224.07" cy="261.48" r="5.5" opacity=".25"/>
<circle cx="219.27" cy="268.61" r="5.5" opacity=".25"/>
<circle cx="214.91" cy="275.99" r="5.5" opacity=".5"/>
<circle cx="210.99" cy="283.61" r="5.5" opacity=".25"/>
<circle cx="207.53" cy="291.45" r="5.5" opacity=".25"/>
<circle cx="204.52" cy="299.5" r="5.5" opacity=".25"/>
<circle cx="202.01" cy="307.72" r="5.5" opacity=".25"/>
<circle cx="199.98" cy="316.04" r="5.5" opacity=".25"/>
<circle cx="197.4" cy="332.98" r="5.5"/>
<circle cx="196.86" cy="341.57" r="5.5" opacity=".25"/>
<circle cx="197.3" cy="358.69" r="5.5" opacity=".75"/>
<circle cx="199.49" cy="375.46" r="5.5" opacity=".25"/>
<circle cx="204.09" cy="392.25" r="5.5" opacity=".5"/>
<circle cx="210.36" cy="408.21" r="5.5" opacity=".25"/>
<circle cx="214.18" cy="415.91" r="5.5"/>
<circle cx="223.1" cy="430.53" r="5.5" opacity=".25"/>
<circle cx="228.18" cy="437.44" r="5.5" opacity=".25"/>
<circle cx="233.66" cy="444.06" r="5.5" opacity=".25"/>
<circle cx="239.51" cy="450.35" r="5.5" opacity=".25"/>
<circle cx="245.69" cy="456.28" r="5.5" opacity=".25"/>
<circle cx="252.2" cy="461.85" r="5.5" opacity=".25"/>
<circle cx="259.03" cy="467.04" r="5.5" opacity=".25"/>
<circle cx="266.16" cy="471.84" r="5.5" opacity=".25"/>
<circle cx="273.54" cy="476.22" r="5.5" opacity=".25"/>
<circle cx="281.37" cy="480.79" r="5.5" opacity=".5"/>
<circle cx="288.96" cy="483.67" r="5.5" opacity=".25"/>
<circle cx="296.98" cy="486.74" r="5.5" opacity=".25"/>
<circle cx="305.18" cy="489.34" r="5.5" opacity=".25"/>
<circle cx="313.48" cy="491.47" r="5.5" opacity=".25"/>
<circle cx="321.88" cy="493.13" r="5.5" opacity=".25"/>
<circle cx="330.37" cy="494.32" r="5.5" opacity=".25"/>
<circle cx="347.65" cy="495.02" r="5.5" opacity=".5"/>
<circle cx="356.08" cy="494.97" r="5.5" opacity=".25"/>
<circle cx="364.62" cy="494.23" r="5.5" opacity=".25"/>
<circle cx="373.12" cy="493.01" r="5.5" opacity=".25"/>
<circle cx="389.84" cy="489.14" r="5.5" opacity=".25"/>
<circle cx="397.99" cy="486.51" r="5.5" opacity=".5"/>
<circle cx="413.82" cy="479.92" r="5.5" opacity=".25"/>
<circle cx="421.46" cy="475.96" r="5.5" opacity=".25"/>
<circle cx="428.82" cy="471.59" r="5.5" opacity=".25"/>
<circle cx="435.94" cy="466.83" r="5.5" opacity=".25"/>
<circle cx="449.36" cy="456.13" r="5.5" opacity=".5"/>
<circle cx="455.61" cy="450.24" r="5.5" opacity=".25"/>
<circle cx="467.06" cy="437.5" r="5.5" opacity=".25"/>
<circle cx="472.25" cy="430.67" r="5.5" opacity=".25"/>
<circle cx="481.46" cy="416.18" r="5.5" opacity=".25"/>
<circle cx="485.44" cy="408.59" r="5.5" opacity=".25"/>
<circle cx="488.84" cy="400.75" r="5.5" opacity=".25"/>
<circle cx="492.15" cy="392.81" r="5.5" opacity=".25"/>
<circle cx="497.09" cy="376.38" r="5.5" opacity=".25"/>
<circle cx="498.85" cy="367.85" r="5.5" opacity=".5"/>
<circle cx="500.22" cy="359.53" r="5.5" opacity=".25"/>
<circle cx="501.09" cy="350.99" r="5.5" opacity=".25"/>
<circle cx="501.48" cy="342.4" r="5.5" opacity=".25"/>
<circle cx="500.9" cy="325.28" r="5.5" opacity=".25"/>
<circle cx="500.11" cy="316.88" r="5.5" opacity=".25"/>
<circle cx="498.46" cy="308.3" r="5.5" opacity=".25"/>
<circle cx="496.55" cy="299.92" r="5.5" opacity=".25"/>
<circle cx="491.4" cy="283.58" r="5.5" opacity=".5"/>
<circle cx="488.18" cy="275.64" r="5.5" opacity=".25"/>
<circle cx="484.52" cy="267.86" r="5.5" opacity=".5"/>
<circle cx="476" cy="252.98" r="5.5" opacity=".5"/>
<circle cx="465.94" cy="239.1" r="5.5" opacity=".25"/>
<circle cx="460.36" cy="232.57" r="5.5" opacity=".25"/>
<circle cx="454.43" cy="226.36" r="5.5" opacity=".25"/>
<circle cx="448.2" cy="220.48" r="5.5" opacity=".5"/>
<circle cx="441.67" cy="214.93" r="5.5" opacity=".25"/>
<circle cx="434.84" cy="209.74" r="5.5" opacity=".25"/>
<circle cx="420.38" cy="200.47" r="5.5" opacity=".25"/>
<circle cx="405.07" cy="192.8" r="5.5" opacity=".25"/>
<circle cx="397.12" cy="189.58" r="5.5" opacity=".25"/>
<circle cx="388.99" cy="186.78" r="5.5" opacity=".25"/>
<circle cx="380.74" cy="184.42" r="5.5" opacity=".25"/>
<circle cx="363.96" cy="181.01" r="5.5" opacity=".25"/>
<circle cx="355.44" cy="179.96" r="5.5" opacity=".5"/>
<circle cx="346.86" cy="179.37" r="5.5" opacity=".25"/>
<circle cx="338.28" cy="179.24" r="5.5" opacity=".75"/>
<circle cx="329.73" cy="179.54" r="5.5" opacity=".25"/>
<circle cx="312.69" cy="181.5" r="5.5" opacity=".5"/>
<circle cx="304.26" cy="183.16" r="5.5"/>
<circle cx="295.93" cy="185.24" r="5.5" opacity=".25"/>
<circle cx="287.74" cy="187.75" r="5.5" opacity=".25"/>
<circle cx="279.86" cy="190.6" r="5.5" opacity=".5"/>
<circle cx="271.79" cy="194.03" r="5.5" opacity=".5"/>
<circle cx="264.06" cy="197.8" r="5.5" opacity=".25"/>
<circle cx="256.56" cy="201.95" r="5.5" opacity=".25"/>
<circle cx="249.29" cy="206.48" r="5.5" opacity=".25"/>
<circle cx="235.48" cy="216.64" r="5.5" opacity=".5"/>
<circle cx="222.77" cy="228.2" r="5.5" opacity=".5"/>
<circle cx="216.9" cy="234.43" r="5.5" opacity=".25"/>
<circle cx="211.35" cy="240.96" r="5.5" opacity=".25"/>
<circle cx="201.28" cy="254.86" r="5.5" opacity=".25"/>
<circle cx="196.79" cy="262.18" r="5.5" opacity=".5"/>
<circle cx="192.7" cy="269.71" r="5.5" opacity=".75"/>
<circle cx="188.99" cy="277.43" r="5.5" opacity=".25"/>
<circle cx="185.68" cy="285.34" r="5.5" opacity=".25"/>
<circle cx="182.77" cy="293.42" r="5.5" opacity=".5"/>
<circle cx="180.28" cy="301.65" r="5.5" opacity=".25"/>
<circle cx="178.07" cy="310.22" r="5.5" opacity=".25"/>
<circle cx="176.58" cy="318.38" r="5.5" opacity=".5"/>
<circle cx="175.36" cy="326.86" r="5.5" opacity=".25"/>
<circle cx="174.29" cy="352.49" r="5.5" opacity=".5"/>
<circle cx="174.63" cy="361.01" r="5.5" opacity=".25"/>
<circle cx="179.02" cy="386.52" r="5.5" opacity=".25"/>
<circle cx="180.84" cy="395.09" r="5.5" opacity=".75"/>
<circle cx="177.29" cy="378.56" r="5.5" opacity=".25"/>
<circle cx="183.65" cy="403.06" r="5.5" opacity=".25"/>
<circle cx="190.41" cy="418.81" r="5.5" opacity=".25"/>
<circle cx="194.26" cy="426.5" r="5.5"/>
<circle cx="198.48" cy="433.96" r="5.5" opacity=".25"/>
<circle cx="203.07" cy="441.19" r="5.5" opacity=".25"/>
<circle cx="213.3" cy="454.95" r="5.5" opacity=".25"/>
<circle cx="218.93" cy="461.44" r="5.5"/>
<circle cx="224.88" cy="467.64" r="5.5" opacity=".5"/>
<circle cx="231.11" cy="473.51" r="5.5"/>
<circle cx="237.54" cy="478.99" r="5.5" opacity=".25"/>
<circle cx="244.42" cy="484.32" r="5.5" opacity=".25"/>
<circle cx="251.48" cy="489.21" r="5.5" opacity=".25"/>
<circle cx="266.26" cy="497.92" r="5.5" opacity=".75"/>
<circle cx="281.81" cy="505.12" r="5.5" opacity=".25"/>
<circle cx="298.04" cy="510.76" r="5.5" opacity=".25"/>
<circle cx="306.32" cy="512.97" r="5.5" opacity=".25"/>
<circle cx="314.83" cy="514.55" r="5.5" opacity=".25"/>
<circle cx="323.15" cy="516.15" r="5.5" opacity=".25"/>
<circle cx="331.68" cy="517.12" r="5.5" opacity=".25"/>
<circle cx="340.26" cy="517.67" r="5.5" opacity=".25"/>
<circle cx="348.84" cy="517.79" r="5.5" opacity=".25"/>
<circle cx="357.4" cy="517.5" r="5.5" opacity=".5"/>
<circle cx="365.94" cy="516.79" r="5.5" opacity=".25"/>
<circle cx="374.44" cy="515.66" r="5.5" opacity=".25"/>
<circle cx="382.89" cy="514.11" r="5.5" opacity=".25"/>
<circle cx="391.14" cy="512.02" r="5.5"/>
<circle cx="407.6" cy="507.03" r="5.5" opacity=".25"/>
<circle cx="415.58" cy="503.88" r="5.5" opacity=".5"/>
<circle cx="431.06" cy="496.42" r="5.5" opacity=".25"/>
<circle cx="438.49" cy="492.15" r="5.5" opacity=".25"/>
<circle cx="445.7" cy="487.52" r="5.5" opacity=".25"/>
<circle cx="452.68" cy="482.55" r="5.5" opacity=".5"/>
<circle cx="465.9" cy="471.6" r="5.5" opacity=".25"/>
<circle cx="472.1" cy="465.66" r="5.5" opacity=".25"/>
<circle cx="488.85" cy="446.18" r="5.5" opacity=".25"/>
<circle cx="493.8" cy="439.16" r="5.5" opacity=".25"/>
<circle cx="498.41" cy="431.9" r="5.5" opacity=".25"/>
<circle cx="502.65" cy="424.46" r="5.5" opacity=".25"/>
<circle cx="506.52" cy="416.82" r="5.5" opacity=".25"/>
<circle cx="510.04" cy="409" r="5.5" opacity=".25"/>
<circle cx="513.17" cy="401.01" r="5.5" opacity=".25"/>
<circle cx="515.93" cy="392.87" r="5.5"/>
<circle cx="521.8" cy="367.85" r="5.5"/>
<circle cx="522.96" cy="359.36" r="5.5" opacity=".25"/>
<circle cx="523.71" cy="350.8" r="5.5" opacity=".25"/>
<circle cx="523.99" cy="333.64" r="5.5" opacity=".25"/>
<circle cx="523.52" cy="325.08" r="5.5" opacity=".25"/>
<circle cx="522.64" cy="316.56" r="5.5" opacity=".25"/>
<circle cx="521.37" cy="308.07" r="5.5" opacity=".5"/>
<circle cx="519.68" cy="299.64" r="5.5" opacity=".5"/>
<circle cx="517.6" cy="291.32" r="5.5" opacity=".25"/>
<circle cx="514.77" cy="282.84" r="5.5" opacity=".25"/>
<circle cx="512.29" cy="275.03" r="5.5" opacity=".25"/>
<circle cx="505.46" cy="259.29" r="5.5" opacity=".25"/>
<circle cx="501.48" cy="251.66" r="5.5" opacity=".25"/>
<circle cx="497.17" cy="244.26" r="5.5" opacity=".25"/>
<circle cx="492.51" cy="237.07" r="5.5" opacity=".25"/>
<circle cx="487.52" cy="230.1" r="5.5"/>
<circle cx="482.21" cy="223.36" r="5.5" opacity=".5"/>
<circle cx="476.58" cy="216.87" r="5.5" opacity=".25"/>
<circle cx="464.45" cy="204.75" r="5.5" opacity=".25"/>
<circle cx="457.98" cy="199.13" r="5.5"/>
<circle cx="444.28" cy="188.81" r="5.5" opacity=".25"/>
<circle cx="437.06" cy="184.13" r="5.5" opacity=".5"/>
<circle cx="429.66" cy="179.81" r="5.5" opacity=".25"/>
<circle cx="414.3" cy="172.21" r="5.5" opacity=".25"/>
<circle cx="406.36" cy="168.96" r="5.5" opacity=".5"/>
<circle cx="390.06" cy="163.56" r="5.5" opacity=".5"/>
<circle cx="381.75" cy="161.44" r="5.5" opacity=".25"/>
<circle cx="373.36" cy="159.7" r="5.5" opacity=".25"/>
<circle cx="364.9" cy="158.35" r="5.5" opacity=".25"/>
<circle cx="347.8" cy="156.83" r="5.5" opacity=".25"/>
<circle cx="339.21" cy="156.67" r="5.5" opacity=".25"/>
<circle cx="330.65" cy="156.9" r="5.5" opacity=".25"/>
<circle cx="313.59" cy="158.53" r="5.5" opacity=".5"/>
<circle cx="296.71" cy="161.74" r="5.5" opacity=".25"/>
<circle cx="288.42" cy="163.92" r="5.5" opacity=".25"/>
<circle cx="280.24" cy="166.47" r="5.5" opacity=".25"/>
<circle cx="272.18" cy="169.39" r="5.5" opacity=".25"/>
<circle cx="264.26" cy="172.68" r="5.5" opacity=".25"/>
<circle cx="241.5" cy="184.69" r="5.5" opacity=".5"/>
<circle cx="234.31" cy="189.36" r="5.5" opacity=".25"/>
<circle cx="227.35" cy="194.35" r="5.5" opacity=".25"/>
<circle cx="220.6" cy="199.66" r="5.5" opacity=".5"/>
<circle cx="213.92" cy="205.14" r="5.5"/>
<circle cx="207.87" cy="211.19" r="5.5" opacity=".5"/>
<circle cx="196.27" cy="223.79" r="5.5" opacity=".25"/>
<circle cx="190.9" cy="230.48" r="5.5" opacity=".25"/>
<circle cx="185.84" cy="237.41" r="5.5" opacity=".25"/>
<circle cx="181.08" cy="244.57" r="5.5" opacity=".5"/>
<circle cx="176.67" cy="251.93" r="5.5" opacity=".25"/>
<circle cx="172.6" cy="259.47" r="5.5" opacity=".25"/>
<circle cx="168.86" cy="267.18" r="5.5" opacity=".25"/>
<circle cx="165.48" cy="275.06" r="5.5"/>
<circle cx="162.45" cy="283.09" r="5.5" opacity=".25"/>
<circle cx="157.5" cy="299.54" r="5.5" opacity=".75"/>
<circle cx="153.77" cy="316.12" r="5.5" opacity=".25"/>
<circle cx="152.89" cy="324.81" r="5.5"/>
<circle cx="152.11" cy="333.36" r="5.5" opacity=".25"/>
<circle cx="151.71" cy="341.96" r="5.5" opacity=".25"/>
<circle cx="151.71" cy="350.53" r="5.5" opacity=".5"/>
<circle cx="152.08" cy="359.09" r="5.5" opacity=".5"/>
<circle cx="152.83" cy="367.62" r="5.5" opacity=".25"/>
<circle cx="154.71" cy="385.02" r="5.5" opacity=".75"/>
<circle cx="157.38" cy="392.97" r="5.5" opacity=".5"/>
<circle cx="159.24" cy="401.39" r="5.5" opacity=".25"/>
<circle cx="162.25" cy="409.39" r="5.5" opacity=".5"/>
<circle cx="164.72" cy="417.88" r="5.5" opacity=".5"/>
<circle cx="168.57" cy="425.33" r="5.5" opacity=".5"/>
<circle cx="180.65" cy="448.05" r="5.5" opacity=".25"/>
<circle cx="185.33" cy="455.24" r="5.5" opacity=".25"/>
<circle cx="190.31" cy="462.21" r="5.5" opacity=".5"/>
<circle cx="195.61" cy="468.96" r="5.5" opacity=".25"/>
<circle cx="201.2" cy="475.47" r="5.5" opacity=".25"/>
<circle cx="207.09" cy="481.74" r="5.5"/>
<circle cx="226.25" cy="498.86" r="5.5" opacity=".25"/>
<circle cx="233.13" cy="503.99" r="5.5"/>
<circle cx="240.23" cy="508.82" r="5.5" opacity=".25"/>
<circle cx="247.54" cy="513.33" r="5.5" opacity=".25"/>
<circle cx="255.03" cy="517.5" r="5.5" opacity=".5"/>
<circle cx="262.68" cy="521.35" r="5.5" opacity=".75"/>
<circle cx="270.5" cy="524.86" r="5.5" opacity=".5"/>
<circle cx="278.48" cy="528.03" r="5.5" opacity=".25"/>
<circle cx="286.59" cy="530.85" r="5.5" opacity=".25"/>
<circle cx="303.14" cy="535.4" r="5.5" opacity=".25"/>
<circle cx="311.79" cy="537.2" r="5.5"/>
<circle cx="319.99" cy="538.49" r="5.5"/>
<circle cx="328.51" cy="539.49" r="5.5" opacity=".25"/>
<circle cx="337.08" cy="540.11" r="5.5"/>
<circle cx="345.67" cy="540.36" r="5.5" opacity=".25"/>
<circle cx="354.24" cy="540.23" r="5.5"/>
<circle cx="362.79" cy="539.74" r="5.5" opacity=".25"/>
<circle cx="371.32" cy="538.87" r="5.5" opacity=".25"/>
<circle cx="379.56" cy="537.68" r="5.5" opacity=".25"/>
<circle cx="388.25" cy="536.04" r="5.5" opacity=".5"/>
<circle cx="404.86" cy="531.75" r="5.5" opacity=".5"/>
<circle cx="413" cy="529.07" r="5.5"/>
<circle cx="421.02" cy="526.05" r="5.5" opacity=".25"/>
<circle cx="428.91" cy="522.68" r="5.5" opacity=".5"/>
<circle cx="436.65" cy="518.96" r="5.5" opacity=".25"/>
<circle cx="444.24" cy="514.92" r="5.5" opacity=".25"/>
<circle cx="451.62" cy="510.56" r="5.5" opacity=".5"/>
<circle cx="458.8" cy="505.89" r="5.5" opacity=".25"/>
<circle cx="472.55" cy="495.65" r="5.5" opacity=".25"/>
<circle cx="485.4" cy="484.24" r="5.5" opacity=".25"/>
<circle cx="491.43" cy="478.14" r="5.5" opacity=".5"/>
<circle cx="502.67" cy="465.22" r="5.5" opacity=".25"/>
<circle cx="507.88" cy="458.4" r="5.5" opacity=".5"/>
<circle cx="512.79" cy="451.36" r="5.5" opacity=".5"/>
<circle cx="525.65" cy="429.08" r="5.5"/>
<circle cx="529.29" cy="421.32" r="5.5" opacity=".25"/>
<circle cx="532.6" cy="413.41" r="5.5" opacity=".25"/>
<circle cx="535.58" cy="405.35" r="5.5" opacity=".25"/>
<circle cx="538.2" cy="397.17" r="5.5" opacity=".25"/>
<circle cx="540.48" cy="388.9" r="5.5" opacity=".25"/>
<circle cx="542.4" cy="380.55" r="5.5" opacity=".25"/>
<circle cx="543.97" cy="372.12" r="5.5"/>
<circle cx="546.03" cy="355.09" r="5.5" opacity=".25"/>
<circle cx="546.51" cy="346.51" r="5.5" opacity=".25"/>
<circle cx="546.64" cy="337.93" r="5.5" opacity=".25"/>
<circle cx="545.8" cy="320.82" r="5.5" opacity=".25"/>
<circle cx="544.84" cy="312.3" r="5.5" opacity=".75"/>
<circle cx="543.52" cy="303.82" r="5.5" opacity=".25"/>
<circle cx="541.85" cy="295.39" r="5.5" opacity=".25"/>
<circle cx="539.82" cy="287.04" r="5.5" opacity=".25"/>
<circle cx="534.73" cy="270.68" r="5.5" opacity=".25"/>
<circle cx="531.68" cy="262.67" r="5.5" opacity=".5"/>
<circle cx="528.29" cy="254.79" r="5.5" opacity=".25"/>
<circle cx="524.56" cy="247.05" r="5.5" opacity=".25"/>
<circle cx="516.16" cy="232.08" r="5.5" opacity=".25"/>
<circle cx="511.51" cy="224.89" r="5.5" opacity=".75"/>
<circle cx="501.33" cy="211.1" r="5.5" opacity=".5"/>
<circle cx="495.8" cy="204.52" r="5.5" opacity=".5"/>
<circle cx="490" cy="198.18" r="5.5" opacity=".25"/>
<circle cx="483.95" cy="192.1" r="5.5" opacity=".5"/>
<circle cx="477.66" cy="186.28" r="5.5" opacity=".25"/>
<circle cx="471.13" cy="180.73" r="5.5" opacity=".25"/>
<circle cx="464.38" cy="175.45" r="5.5" opacity=".25"/>
<circle cx="457.4" cy="170.45" r="5.5" opacity=".75"/>
<circle cx="450.21" cy="165.74" r="5.5" opacity=".25"/>
<circle cx="435.31" cy="157.25" r="5.5" opacity=".25"/>
<circle cx="427.62" cy="153.47" r="5.5" opacity=".25"/>
<circle cx="419.78" cy="149.8" r="5.5" opacity=".25"/>
<circle cx="411.78" cy="146.89" r="5.5" opacity=".25"/>
<circle cx="403.66" cy="144.09" r="5.5" opacity=".5"/>
<circle cx="395.43" cy="141.63" r="5.5" opacity=".75"/>
<circle cx="387.12" cy="139.52" r="5.5" opacity=".75"/>
<circle cx="370.29" cy="136.32" r="5.5" opacity=".75"/>
<circle cx="361.78" cy="135.25" r="5.5" opacity=".25"/>
<circle cx="353.22" cy="134.52" r="5.5" opacity=".5"/>
<circle cx="344.63" cy="134.15" r="5.5" opacity=".25"/>
<circle cx="336.08" cy="134.15" r="5.5" opacity=".25"/>
<circle cx="327.49" cy="134.47" r="5.5"/>
<circle cx="318.95" cy="135.16" r="5.5" opacity=".25"/>
<circle cx="310.44" cy="136.19" r="5.5" opacity=".25"/>
<circle cx="301.97" cy="137.58" r="5.5" opacity=".25"/>
<circle cx="285.22" cy="141.39" r="5.5" opacity=".25"/>
<circle cx="276.99" cy="143.8" r="5.5" opacity=".5"/>
<circle cx="268.88" cy="146.54" r="5.5" opacity=".25"/>
<circle cx="260.87" cy="149.61" r="5.5" opacity=".25"/>
<circle cx="253" cy="153" r="5.5"/>
<circle cx="237.66" cy="160.77" r="5.5" opacity=".25"/>
<circle cx="230.27" cy="165.1" r="5.5" opacity=".5"/>
<circle cx="216.04" cy="174.64" r="5.5" opacity=".25"/>
<circle cx="196.23" cy="191.08" r="5.5" opacity=".25"/>
<circle cx="190.09" cy="197.08" r="5.5" opacity=".5"/>
<circle cx="178.58" cy="209.77" r="5.5" opacity=".5"/>
<circle cx="173.22" cy="216.46" r="5.5" opacity=".25"/>
<circle cx="168.12" cy="223.36" r="5.5" opacity=".5"/>
<circle cx="158.55" cy="237.79" r="5.5" opacity=".5"/>
<circle cx="150.66" cy="252.88" r="5.5" opacity=".5"/>
<circle cx="143.78" cy="268.58" r="5.5" opacity=".5"/>
<circle cx="140.61" cy="276.32" r="5.5" opacity=".25"/>
<circle cx="138.17" cy="284.81" r="5.5" opacity=".25"/>
<circle cx="133.9" cy="301.42" r="5.5" opacity=".5"/>
<circle cx="132.26" cy="309.83" r="5.5" opacity=".25"/>
<circle cx="130.96" cy="318.3" r="5.5" opacity=".5"/>
<circle cx="130" cy="326.83" r="5.5" opacity=".25"/>
<circle cx="129.38" cy="335.4" r="5.5" opacity=".25"/>
<circle cx="129.19" cy="352.56" r="5.5"/>
<circle cx="129.6" cy="361.12" r="5.5"/>
<circle cx="131.45" cy="378.16" r="5.5"/>
<circle cx="132.89" cy="386.63" r="5.5" opacity=".25"/>
<circle cx="136.93" cy="403.61" r="5.5" opacity=".25"/>
<circle cx="139.21" cy="411.57" r="5.5" opacity=".25"/>
<circle cx="141.97" cy="419.69" r="5.5" opacity=".5"/>
<circle cx="145.04" cy="427.69" r="5.5" opacity=".25"/>
<circle cx="148.44" cy="435.56" r="5.5" opacity=".25"/>
<circle cx="152.15" cy="443.31" r="5.5" opacity=".5"/>
<circle cx="156.17" cy="450.91" r="5.5" opacity=".5"/>
<circle cx="165.07" cy="465.55" r="5.5" opacity=".25"/>
<circle cx="169.95" cy="472.6" r="5.5" opacity=".25"/>
<circle cx="175.1" cy="479.45" r="5.5" opacity=".25"/>
<circle cx="180.53" cy="486.1" r="5.5" opacity=".25"/>
<circle cx="186.22" cy="492.54" r="5.5" opacity=".25"/>
<circle cx="192.42" cy="499.04" r="5.5" opacity=".5"/>
<circle cx="198.34" cy="504.69" r="5.5" opacity=".25"/>
<circle cx="211.31" cy="515.98" r="5.5" opacity=".5"/>
<circle cx="218.18" cy="521.03" r="5.5" opacity=".25"/>
<circle cx="225.22" cy="525.94" r="5.5" opacity=".25"/>
<circle cx="239.86" cy="534.93" r="5.5" opacity=".25"/>
<circle cx="247.41" cy="538.98" r="5.5" opacity=".25"/>
<circle cx="255.11" cy="542.72" r="5.5" opacity=".25"/>
<circle cx="262.96" cy="546.17" r="5.5" opacity=".25"/>
<circle cx="270.95" cy="549.3" r="5.5" opacity=".5"/>
<circle cx="287.29" cy="554.63" r="5.5"/>
<circle cx="295.58" cy="556.8" r="5.5" opacity=".5"/>
<circle cx="303.95" cy="558.64" r="5.5" opacity=".25"/>
<circle cx="312.38" cy="560.17" r="5.5" opacity=".25"/>
<circle cx="320.87" cy="561.36" r="5.5" opacity=".25"/>
<circle cx="337.99" cy="562.74" r="5.5" opacity=".25"/>
<circle cx="346.58" cy="562.92" r="5.5" opacity=".25"/>
<circle cx="355.15" cy="562.78" r="5.5" opacity=".25"/>
<circle cx="372.23" cy="561.49" r="5.5" opacity=".5"/>
<circle cx="380.73" cy="560.34" r="5.5" opacity=".25"/>
<circle cx="389.19" cy="558.87" r="5.5" opacity=".25"/>
<circle cx="397.6" cy="557.07" r="5.5" opacity=".25"/>
<circle cx="405.91" cy="554.93" r="5.5" opacity=".25"/>
<circle cx="414.12" cy="552.49" r="5.5" opacity=".25"/>
<circle cx="422.24" cy="549.73" r="5.5" opacity=".25"/>
<circle cx="430.24" cy="546.66" r="5.5" opacity=".75"/>
<circle cx="438.12" cy="543.27" r="5.5" opacity=".5"/>
<circle cx="445.88" cy="539.58" r="5.5" opacity=".25"/>
<circle cx="460.92" cy="531.31" r="5.5" opacity=".25"/>
<circle cx="468.18" cy="526.76" r="5.5" opacity=".25"/>
<circle cx="475.26" cy="521.93" r="5.5" opacity=".5"/>
<circle cx="482.15" cy="516.82" r="5.5" opacity=".5"/>
<circle cx="488.84" cy="511.46" r="5.5" opacity=".5"/>
<circle cx="495.33" cy="505.83" r="5.5" opacity=".25"/>
<circle cx="501.6" cy="499.95" r="5.5" opacity=".25"/>
<circle cx="507.62" cy="493.85" r="5.5" opacity=".25"/>
<circle cx="518.94" cy="480.98" r="5.5" opacity=".5"/>
<circle cx="524.23" cy="474.23" r="5.5" opacity=".25"/>
<circle cx="529.25" cy="467.27" r="5.5" opacity=".5"/>
<circle cx="538.49" cy="452.79" r="5.5" opacity=".5"/>
<circle cx="542.67" cy="445.31" r="5.5" opacity=".75"/>
<circle cx="546.57" cy="437.68" r="5.5" opacity=".25"/>
<circle cx="550.17" cy="429.9" r="5.5" opacity=".25"/>
<circle cx="553.48" cy="421.98" r="5.5" opacity=".25"/>
<circle cx="556.48" cy="413.94" r="5.5" opacity=".5"/>
<circle cx="558.95" cy="405.61" r="5.5" opacity=".5"/>
<circle cx="561.55" cy="397.53" r="5.5" opacity=".5"/>
<circle cx="565.3" cy="380.55" r="5.5" opacity=".25"/>
<circle cx="568.64" cy="355.31" r="5.5" opacity=".25"/>
<circle cx="569.08" cy="346.73" r="5.5" opacity=".25"/>
<circle cx="569.2" cy="338.14" r="5.5" opacity=".25"/>
<circle cx="568.99" cy="329.58" r="5.5" opacity=".25"/>
<circle cx="568.46" cy="321.02" r="5.5" opacity=".25"/>
<circle cx="567.61" cy="312.5" r="5.5" opacity=".25"/>
<circle cx="566.43" cy="304" r="5.5" opacity=".25"/>
<circle cx="564.93" cy="295.55" r="5.5" opacity=".75"/>
<circle cx="563.11" cy="287.15" r="5.5" opacity=".25"/>
<circle cx="560.97" cy="278.83" r="5.5"/>
<circle cx="558.52" cy="270.62" r="5.5" opacity=".5"/>
<circle cx="555.77" cy="262.5" r="5.5" opacity=".75"/>
<circle cx="545.69" cy="238.84" r="5.5" opacity=".5"/>
<circle cx="541.73" cy="231.21" r="5.5" opacity=".5"/>
<circle cx="537.49" cy="223.75" r="5.5" opacity=".25"/>
<circle cx="528.21" cy="209.34" r="5.5" opacity=".25"/>
<circle cx="523.17" cy="202.41" r="5.5" opacity=".25"/>
<circle cx="506.5" cy="182.79" r="5.5" opacity=".5"/>
<circle cx="500.46" cy="176.69" r="5.5" opacity=".25"/>
<circle cx="494.22" cy="170.83" r="5.5" opacity=".25"/>
<circle cx="487.76" cy="165.2" r="5.5" opacity=".25"/>
<circle cx="481.09" cy="159.82" r="5.5" opacity=".75"/>
<circle cx="474.21" cy="154.68" r="5.5" opacity=".25"/>
<circle cx="467.15" cy="149.8" r="5.5" opacity=".5"/>
<circle cx="459.89" cy="145.19" r="5.5" opacity=".25"/>
<circle cx="444.93" cy="136.82" r="5.5" opacity=".25"/>
<circle cx="437.23" cy="133.05" r="5.5" opacity=".25"/>
<circle cx="429.39" cy="129.58" r="5.5" opacity=".75"/>
<circle cx="421.43" cy="126.4" r="5.5" opacity=".25"/>
<circle cx="413.42" cy="123.39" r="5.5" opacity=".25"/>
<circle cx="405.14" cy="120.93" r="5.5" opacity=".25"/>
<circle cx="397.12" cy="118.62" r="5.5" opacity=".25"/>
<circle cx="380.11" cy="115.06" r="5.5" opacity=".75"/>
<circle cx="363.12" cy="112.71" r="5.5" opacity=".25"/>
<circle cx="354.57" cy="112" r="5.5" opacity=".25"/>
<circle cx="345.98" cy="111.62" r="5.5" opacity=".25"/>
<circle cx="328.83" cy="111.8" r="5.5"/>
<circle cx="320.28" cy="112.37" r="5.5" opacity=".25"/>
<circle cx="311.76" cy="113.26" r="5.5" opacity=".25"/>
<circle cx="303.27" cy="114.46" r="5.5"/>
<circle cx="286.64" cy="117.72" r="5.5" opacity=".25"/>
<circle cx="269.89" cy="122.38" r="5.5" opacity=".5"/>
<circle cx="261.77" cy="125.12" r="5.5" opacity=".25"/>
<circle cx="253.75" cy="128.15" r="5.5" opacity=".5"/>
<circle cx="245.85" cy="131.48" r="5.5" opacity=".25"/>
<circle cx="230.41" cy="139.02" r="5.5" opacity=".25"/>
<circle cx="222.92" cy="143.21" r="5.5" opacity=".25"/>
<circle cx="215.59" cy="147.67" r="5.5"/>
<circle cx="194.67" cy="162.59" r="5.5" opacity=".25"/>
<circle cx="188.06" cy="168.08" r="5.5" opacity=".25"/>
<circle cx="181.66" cy="173.8" r="5.5" opacity=".25"/>
<circle cx="175.48" cy="179.76" r="5.5" opacity=".25"/>
<circle cx="169.53" cy="185.93" r="5.5" opacity=".25"/>
<circle cx="158.32" cy="198.9" r="5.5"/>
<circle cx="153.08" cy="205.68" r="5.5" opacity=".5"/>
<circle cx="148.08" cy="212.66" r="5.5" opacity=".25"/>
<circle cx="138.86" cy="227.16" r="5.5" opacity=".5"/>
<circle cx="130.74" cy="242.26" r="5.5" opacity=".25"/>
<circle cx="127.1" cy="250.01" r="5.5" opacity=".25"/>
<circle cx="123.74" cy="257.9" r="5.5" opacity=".25"/>
<circle cx="120.67" cy="265.91" r="5.5" opacity=".25"/>
<circle cx="117.89" cy="274.04" r="5.5" opacity=".5"/>
<circle cx="115.41" cy="282.27" r="5.5" opacity=".25"/>
<circle cx="113.23" cy="290.56" r="5.5" opacity=".25"/>
<circle cx="109.79" cy="307.35" r="5.5" opacity=".25"/>
<circle cx="108.52" cy="315.83" r="5.5" opacity=".5"/>
<circle cx="107.57" cy="324.36" r="5.5" opacity=".25"/>
<circle cx="106.92" cy="332.92" r="5.5" opacity=".5"/>
<circle cx="106.56" cy="350.09" r="5.5" opacity=".5"/>
<circle cx="106.85" cy="358.65" r="5.5" opacity=".5"/>
<circle cx="107.45" cy="367.2" r="5.5" opacity=".25"/>
<circle cx="108.18" cy="376.12" r="5.5" opacity=".25"/>
<circle cx="109.56" cy="384.22" r="5.5" opacity=".25"/>
<circle cx="111.08" cy="392.67" r="5.5" opacity=".25"/>
<circle cx="112.9" cy="401.07" r="5.5" opacity=".5"/>
<circle cx="115.03" cy="409.38" r="5.5" opacity=".25"/>
<circle cx="117.45" cy="417.6" r="5.5" opacity=".5"/>
<circle cx="120.16" cy="425.73" r="5.5" opacity=".25"/>
<circle cx="123.17" cy="433.76" r="5.5" opacity=".5"/>
<circle cx="126.46" cy="441.68" r="5.5" opacity=".25"/>
<circle cx="130.04" cy="449.48" r="5.5" opacity=".25"/>
<circle cx="133.9" cy="457.16" r="5.5" opacity=".25"/>
<circle cx="142.43" cy="472.05" r="5.5" opacity=".25"/>
<circle cx="151.99" cy="486.27" r="5.5" opacity=".5"/>
<circle cx="157.15" cy="493.12" r="5.5" opacity=".25"/>
<circle cx="162.55" cy="499.78" r="5.5" opacity=".25"/>
<circle cx="174.08" cy="512.53" r="5.5" opacity=".25"/>
<circle cx="180.16" cy="518.57" r="5.5" opacity=".25"/>
<circle cx="186.45" cy="524.38" r="5.5" opacity=".25"/>
<circle cx="192.95" cy="529.97" r="5.5" opacity=".25"/>
<circle cx="199.65" cy="535.33" r="5.5" opacity=".25"/>
<circle cx="206.53" cy="540.45" r="5.5" opacity=".25"/>
<circle cx="213.6" cy="545.32" r="5.5" opacity=".25"/>
<circle cx="220.85" cy="549.94" r="5.5" opacity=".25"/>
<circle cx="228.25" cy="554.29" r="5.5"/>
<circle cx="235.78" cy="558.37" r="5.5" opacity=".25"/>
<circle cx="243.46" cy="562.18" r="5.5" opacity=".25"/>
<circle cx="251.27" cy="565.72" r="5.5" opacity=".25"/>
<circle cx="267.25" cy="571.95" r="5.5" opacity=".25"/>
<circle cx="275.41" cy="574.64" r="5.5" opacity=".25"/>
<circle cx="291.98" cy="579.13" r="5.5" opacity=".25"/>
<circle cx="300.3" cy="580.88" r="5.5" opacity=".25"/>
<circle cx="308.79" cy="582.44" r="5.5" opacity=".5"/>
<circle cx="325.81" cy="584.55" r="5.5" opacity=".25"/>
<circle cx="334.38" cy="585.16" r="5.5" opacity=".25"/>
<circle cx="342.99" cy="585.45" r="5.5" opacity=".5"/>
<circle cx="360.11" cy="585.14" r="5.5" opacity=".25"/>
<circle cx="368.7" cy="584.55" r="5.5" opacity=".25"/>
<circle cx="394.35" cy="580.95" r="5.5" opacity=".25"/>
<circle cx="410.85" cy="576.98" r="5.5" opacity=".75"/>
<circle cx="418.91" cy="574.42" r="5.5" opacity=".25"/>
<circle cx="427.22" cy="571.9" r="5.5" opacity=".25"/>
<circle cx="435.26" cy="568.94" r="5.5" opacity=".25"/>
<circle cx="443.2" cy="565.7" r="5.5" opacity=".5"/>
<circle cx="451.02" cy="562.17" r="5.5" opacity=".25"/>
<circle cx="458.72" cy="558.36" r="5.5" opacity=".25"/>
<circle cx="466.29" cy="554.29" r="5.5" opacity=".25"/>
<circle cx="473.69" cy="549.96" r="5.5" opacity=".25"/>
<circle cx="488.01" cy="540.54" r="5.5" opacity=".5"/>
<circle cx="494.92" cy="535.47" r="5.5" opacity=".25"/>
<circle cx="501.65" cy="530.15" r="5.5" opacity=".25"/>
<circle cx="508.19" cy="524.59" r="5.5" opacity=".5"/>
<circle cx="514.54" cy="518.8" r="5.5" opacity=".25"/>
<circle cx="520.68" cy="512.8" r="5.5" opacity=".25"/>
<circle cx="526.6" cy="506.59" r="5.5" opacity=".25"/>
<circle cx="532.29" cy="500.19" r="5.5" opacity=".25"/>
<circle cx="537.76" cy="493.59" r="5.5" opacity=".25"/>
<circle cx="543" cy="486.8" r="5.5" opacity=".25"/>
<circle cx="548" cy="479.83" r="5.5" opacity=".25"/>
<circle cx="552.76" cy="472.68" r="5.5" opacity=".5"/>
<circle cx="557.27" cy="465.36" r="5.5" opacity=".25"/>
<circle cx="561.51" cy="457.91" r="5.5" opacity=".25"/>
<circle cx="565.49" cy="450.32" r="5.5"/>
<circle cx="569.2" cy="442.59" r="5.5" opacity=".5"/>
<circle cx="572.65" cy="434.74" r="5.5" opacity=".25"/>
<circle cx="575.82" cy="426.77" r="5.5" opacity=".25"/>
<circle cx="578.61" cy="418.88" r="5.5" opacity=".25"/>
<circle cx="581.32" cy="410.5" r="5.5" opacity=".5"/>
<circle cx="583.65" cy="402.24" r="5.5" opacity=".25"/>
<circle cx="587.42" cy="385.52" r="5.5" opacity=".25"/>
<circle cx="588.74" cy="377.25" r="5.5" opacity=".25"/>
<circle cx="590.9" cy="360.04" r="5.5" opacity=".25"/>
</g>
</svg>
