<?xml version="1.0" encoding="utf-8"?>
<!-- Generator: Adobe Illustrator 16.0.0, SVG Export Plug-In . SVG Version: 6.00 Build 0)  -->
<!DOCTYPE svg PUBLIC "-//W3C//DTD SVG 1.1//EN" "http://www.w3.org/Graphics/SVG/1.1/DTD/svg11.dtd">
<svg version="1.1" id="Layer_1" xmlns="http://www.w3.org/2000/svg" xmlns:xlink="http://www.w3.org/1999/xlink" x="0px" y="0px"
	 width="1012px" height="506px" viewBox="0 0 1012 506" enable-background="new 0 0 1012 506" xml:space="preserve">
<g>
	<path d="M180.72,80v-0.84c2.37,0,4.2-0.67,5.48-2c0.73-0.75,1.22-1.71,1.49-2.87c0.27-1.16,0.4-2.94,0.4-5.33V43.05
		c0-2.48-0.15-4.32-0.44-5.5c-0.29-1.18-0.84-2.15-1.63-2.9c-0.66-0.61-1.39-1.05-2.2-1.34s-1.85-0.44-3.11-0.49v-0.81h22.46v0.81
		c-1.29,0.07-2.34,0.25-3.16,0.53c-0.82,0.28-1.55,0.73-2.18,1.34c-0.8,0.77-1.34,1.75-1.62,2.92c-0.28,1.17-0.42,2.99-0.42,5.45
		v20.29c0,3.12,0.08,5.44,0.25,6.96c0.16,1.52,0.48,2.77,0.95,3.73c0.82,1.69,2.04,2.92,3.66,3.71c1.62,0.79,3.76,1.18,6.43,1.18
		c2.79,0,5.14-0.37,7.05-1.11c1.91-0.74,3.47-1.88,4.69-3.43c0.82-1.05,1.49-2.25,2.02-3.59s1.01-3.09,1.46-5.27l0.84,0.07L222.7,80
		H180.72z"/>
	<path d="M225.05,65.16c0-3.8,1.41-7.18,4.22-10.16c3.42-3.61,7.51-5.41,12.27-5.41c4.76,0,8.84,1.81,12.23,5.41
		c2.81,3,4.22,6.4,4.22,10.2c0,3.75-1.34,7.09-4.01,10.02c-3.28,3.61-7.43,5.41-12.45,5.41c-5.02,0-9.18-1.8-12.48-5.41
		c-1.29-1.41-2.28-2.98-2.97-4.71C225.4,68.77,225.05,66.99,225.05,65.16z M231.45,64.76c0,4.07,0.91,7.53,2.74,10.36
		c2.06,3.16,4.58,4.74,7.56,4.74c1.27,0,2.5-0.35,3.69-1.05c1.2-0.7,2.23-1.69,3.09-2.95c0.91-1.31,1.65-2.96,2.21-4.93
		c0.56-1.98,0.84-3.89,0.84-5.74c0-1.92-0.3-3.86-0.9-5.81c-0.6-1.95-1.4-3.63-2.41-5.04c-1.92-2.65-4.28-3.97-7.07-3.97
		c-2.65,0-4.93,1.39-6.86,4.18C232.43,57.33,231.45,60.73,231.45,64.76z"/>
	<path d="M263.55,80v-9.95h0.56c0.65,2.44,1.47,4.38,2.46,5.84c1.8,2.65,3.9,3.97,6.31,3.97c1.47,0,2.75-0.44,3.82-1.34
		c1.17-0.98,1.75-2.38,1.75-4.18c0-1.48-0.42-2.77-1.26-3.87c-0.47-0.59-1.06-1.13-1.77-1.62c-0.71-0.49-1.91-1.18-3.59-2.07
		c-2.95-1.57-4.91-2.88-5.89-3.94c-1.4-1.5-2.1-3.23-2.1-5.2c0-2.11,0.7-3.93,2.11-5.45c1.62-1.73,3.76-2.6,6.43-2.6
		c1.2,0,2.31,0.21,3.34,0.63l1.2,0.53c0.37,0.14,0.7,0.21,0.98,0.21c0.44,0,0.87-0.35,1.27-1.05h0.7l0.39,7.98h-0.74
		c-0.26-1.13-0.53-2.03-0.82-2.71c-0.29-0.68-0.71-1.34-1.24-1.97c-0.72-0.89-1.57-1.59-2.52-2.09c-0.96-0.5-1.9-0.76-2.84-0.76
		c-1.31,0-2.43,0.47-3.35,1.42s-1.38,2.12-1.38,3.5c0,1.15,0.41,2.19,1.25,3.11c0.83,0.93,2.11,1.78,3.84,2.55l3.72,1.69
		c2.22,1.01,3.88,2.26,4.98,3.76c1.1,1.5,1.65,3.27,1.65,5.31c0,2.46-0.8,4.5-2.39,6.12c-1.83,1.88-4.17,2.81-7.03,2.81
		c-1.55,0-3.12-0.3-4.71-0.91c-1.03-0.4-1.65-0.63-1.86-0.69c-0.21-0.06-0.48-0.09-0.81-0.09c-0.82,0-1.44,0.35-1.86,1.05H263.55z"
		/>
	<path d="M289,80v-9.95h0.56c0.65,2.44,1.47,4.38,2.46,5.84c1.8,2.65,3.9,3.97,6.31,3.97c1.47,0,2.75-0.44,3.82-1.34
		c1.17-0.98,1.75-2.38,1.75-4.18c0-1.48-0.42-2.77-1.26-3.87c-0.47-0.59-1.06-1.13-1.77-1.62c-0.71-0.49-1.91-1.18-3.59-2.07
		c-2.95-1.57-4.91-2.88-5.89-3.94c-1.4-1.5-2.1-3.23-2.1-5.2c0-2.11,0.7-3.93,2.11-5.45c1.62-1.73,3.76-2.6,6.43-2.6
		c1.2,0,2.31,0.21,3.34,0.63l1.2,0.53c0.37,0.14,0.7,0.21,0.98,0.21c0.44,0,0.87-0.35,1.27-1.05h0.7l0.39,7.98h-0.74
		c-0.26-1.13-0.53-2.03-0.82-2.71c-0.29-0.68-0.71-1.34-1.24-1.97c-0.72-0.89-1.57-1.59-2.52-2.09c-0.96-0.5-1.9-0.76-2.84-0.76
		c-1.31,0-2.43,0.47-3.35,1.42s-1.38,2.12-1.38,3.5c0,1.15,0.41,2.19,1.25,3.11c0.83,0.93,2.11,1.78,3.84,2.55l3.72,1.69
		c2.22,1.01,3.88,2.26,4.98,3.76c1.1,1.5,1.65,3.27,1.65,5.31c0,2.46-0.8,4.5-2.39,6.12c-1.83,1.88-4.17,2.81-7.03,2.81
		c-1.55,0-3.12-0.3-4.71-0.91c-1.03-0.4-1.65-0.63-1.86-0.69c-0.21-0.06-0.48-0.09-0.81-0.09c-0.82,0-1.44,0.35-1.86,1.05H289z"/>
	<path d="M330.42,50.86l10.13-1.27v20.25l0.04,2.66c0,1.59,0.09,2.75,0.28,3.49c0.19,0.74,0.55,1.35,1.09,1.84
		c0.66,0.63,1.86,1.11,3.62,1.44V80h-15.54v-0.74c1.41-0.19,2.41-0.45,3.02-0.79c0.61-0.34,1.1-0.92,1.48-1.73
		c0.26-0.54,0.44-1.35,0.54-2.43c0.11-1.08,0.16-2.65,0.16-4.71v-8.64c0-2.4-0.06-4.09-0.18-5.05c-0.12-0.97-0.38-1.75-0.77-2.36
		c-0.4-0.65-0.88-1.13-1.44-1.42c-0.56-0.29-1.37-0.47-2.43-0.54V50.86z M337.75,36.97c-0.92,0-1.68-0.29-2.28-0.88
		c-0.6-0.59-0.9-1.32-0.9-2.21c0-0.87,0.31-1.6,0.92-2.2c0.61-0.6,1.37-0.9,2.26-0.9c0.9,0,1.65,0.3,2.26,0.9
		c0.61,0.6,0.92,1.33,0.92,2.2c0,0.89-0.3,1.63-0.9,2.21C339.43,36.68,338.67,36.97,337.75,36.97z"/>
	<path d="M357.48,49.59c0.33,1.37,0.5,2.64,0.5,3.82v0.56c2.91-2.92,6.36-4.38,10.37-4.38c3,0,5.41,0.7,7.24,2.11
		c1.8,1.38,2.71,3.35,2.71,5.9v14.89c0,1.59,0.09,2.76,0.28,3.49c0.19,0.74,0.55,1.35,1.09,1.84c0.66,0.63,1.86,1.11,3.62,1.44V80
		h-15.54v-0.74c1.41-0.19,2.41-0.45,3.02-0.79c0.61-0.34,1.1-0.92,1.48-1.74c0.26-0.54,0.44-1.35,0.54-2.44
		c0.11-1.09,0.16-2.65,0.16-4.69v-7.44c0-2.55-0.09-4.42-0.26-5.62c-0.18-1.19-0.51-2.15-1-2.88c-0.54-0.82-1.31-1.46-2.31-1.91
		s-2.12-0.69-3.33-0.69c-1.31,0-2.53,0.26-3.67,0.77c-1.13,0.52-2.03,1.22-2.68,2.11c-0.7,0.94-1.16,2-1.39,3.18
		c-0.22,1.18-0.33,3.14-0.33,5.88v6.88l0.04,2.6c0,1.59,0.09,2.76,0.28,3.49c0.19,0.74,0.55,1.35,1.09,1.84
		c0.66,0.63,1.86,1.11,3.62,1.44V80h-15.54v-0.74c1.41-0.19,2.41-0.45,3.02-0.79c0.61-0.34,1.1-0.92,1.48-1.73
		c0.26-0.54,0.44-1.35,0.54-2.43c0.11-1.08,0.16-2.65,0.16-4.71v-8.64c0-2.4-0.06-4.09-0.18-5.05c-0.12-0.97-0.38-1.75-0.77-2.36
		c-0.4-0.65-0.88-1.13-1.44-1.42c-0.56-0.29-1.37-0.47-2.43-0.54v-0.74L357.48,49.59z"/>
	<path d="M422.7,33.1c-1.48,0-3.06,0.05-4.75,0.14c-3.61,0.19-6.3,0.65-8.07,1.37c-1.77,0.73-3.23,1.98-4.38,3.76
		c-1.05,1.64-1.86,3.87-2.43,6.68l-0.81-0.07l0.63-12.97h47.57l0.63,12.97l-0.81,0.07c-0.63-3.26-1.62-5.72-2.97-7.4
		c-1.35-1.68-3.31-2.88-5.89-3.6c-2.18-0.63-5.87-0.95-11.07-0.95v35.86c0,2.39,0.13,4.17,0.4,5.33c0.27,1.16,0.77,2.12,1.49,2.87
		c0.66,0.68,1.4,1.17,2.23,1.48c0.83,0.3,1.92,0.49,3.25,0.56V80h-22.46v-0.81c1.36-0.07,2.46-0.26,3.29-0.56
		c0.83-0.3,1.58-0.8,2.23-1.48c0.73-0.75,1.22-1.7,1.49-2.85c0.27-1.15,0.4-2.93,0.4-5.34V33.1z"/>
	<path d="M462.43,55c0.84-1.48,1.79-2.59,2.85-3.34c1.95-1.38,4.16-2.07,6.64-2.07c1.52,0,2.68,0.34,3.48,1.02
		c0.73,0.61,1.09,1.36,1.09,2.25c0,0.66-0.22,1.19-0.65,1.62c-0.43,0.42-0.99,0.63-1.67,0.63c-0.8,0-1.49-0.33-2.07-0.98l-1.09-1.19
		c-0.87-0.91-1.89-1.37-3.06-1.37c-1.59,0-2.84,1.03-3.73,3.09c-0.89,2.06-1.34,4.93-1.34,8.6v6.57l0.04,2.67
		c0,1.59,0.09,2.76,0.28,3.49c0.19,0.74,0.55,1.35,1.09,1.84c0.66,0.63,1.86,1.11,3.62,1.44V80h-15.54v-0.74
		c1.41-0.19,2.41-0.45,3.02-0.79c0.61-0.34,1.1-0.92,1.48-1.73c0.26-0.54,0.44-1.35,0.54-2.43c0.11-1.08,0.16-2.65,0.16-4.71v-8.64
		c0-2.4-0.06-4.09-0.18-5.05c-0.12-0.97-0.38-1.75-0.77-2.36c-0.4-0.65-0.88-1.13-1.44-1.42c-0.56-0.29-1.37-0.47-2.43-0.54v-0.74
		l9.06-1.27C462.23,51.69,462.43,53.5,462.43,55z"/>
	<path d="M507.5,76.59l0.6,0.35c-0.84,2.46-2.78,3.69-5.8,3.69c-1.67,0-3.05-0.41-4.15-1.23c-0.73-0.54-1.48-1.48-2.25-2.81
		c-1.57,1.41-2.76,2.33-3.56,2.78c-1.53,0.84-3.3,1.27-5.32,1.27c-2.58,0-4.63-0.62-6.14-1.86c-1.51-1.24-2.27-2.92-2.27-5.03
		c0-1.95,0.62-3.57,1.86-4.89c0.7-0.73,1.51-1.31,2.43-1.74c0.91-0.43,2.24-0.87,3.97-1.32c2.04-0.52,3.54-0.95,4.52-1.3
		c0.97-0.35,1.79-0.77,2.44-1.27c0.75-0.54,1.27-1.17,1.55-1.9c0.28-0.73,0.42-1.73,0.42-3.02c0-2.74-0.52-4.75-1.55-6.01
		c-0.47-0.59-1.07-1.05-1.81-1.41s-1.51-0.53-2.3-0.53c-0.96,0-1.82,0.25-2.57,0.74c-0.75,0.49-1.31,1.17-1.69,2.04L485,55.18
		c-0.47,1.1-1.31,1.65-2.53,1.65c-0.8,0-1.46-0.26-2-0.79c-0.54-0.53-0.81-1.19-0.81-1.99c0-1.2,0.84-2.2,2.54-3.02
		c0.92-0.42,2.05-0.77,3.4-1.04c1.35-0.27,2.67-0.4,3.96-0.4c1.46,0,2.97,0.19,4.54,0.56c1.57,0.38,2.89,0.86,3.94,1.44
		c1.53,0.87,2.48,1.99,2.85,3.38c0.19,0.7,0.28,1.89,0.28,3.55v13.01c0,2.2,0.09,3.7,0.28,4.5c0.4,1.66,1.36,2.5,2.88,2.5
		c0.73,0,1.29-0.13,1.71-0.39C506.45,77.88,506.94,77.36,507.5,76.59z M495.86,62.74c-1.26,1.05-2.65,1.98-4.17,2.78
		c-1.71,0.91-2.89,1.61-3.54,2.07c-0.65,0.47-1.25,1.03-1.79,1.69c-1.1,1.36-1.65,2.94-1.65,4.75c0,1.55,0.43,2.82,1.28,3.83
		c0.85,1.01,1.93,1.51,3.24,1.51c1.14,0,2.23-0.36,3.24-1.07c1.02-0.71,1.78-1.67,2.3-2.87c0.72-1.57,1.09-3.84,1.09-6.82V62.74z"/>
	<path d="M518.15,49.59c0.33,1.37,0.5,2.64,0.5,3.82v0.56c2.91-2.92,6.36-4.38,10.37-4.38c3,0,5.41,0.7,7.24,2.11
		c1.8,1.38,2.71,3.35,2.71,5.9v14.89c0,1.59,0.09,2.76,0.28,3.49c0.19,0.74,0.55,1.35,1.09,1.84c0.66,0.63,1.86,1.11,3.62,1.44V80
		h-15.54v-0.74c1.41-0.19,2.41-0.45,3.02-0.79c0.61-0.34,1.1-0.92,1.48-1.74c0.26-0.54,0.44-1.35,0.54-2.44
		c0.11-1.09,0.16-2.65,0.16-4.69v-7.44c0-2.55-0.09-4.42-0.26-5.62c-0.18-1.19-0.51-2.15-1-2.88c-0.54-0.82-1.31-1.46-2.32-1.91
		c-1-0.46-2.12-0.69-3.33-0.69c-1.31,0-2.53,0.26-3.67,0.77c-1.13,0.52-2.03,1.22-2.68,2.11c-0.7,0.94-1.16,2-1.39,3.18
		s-0.33,3.14-0.33,5.88v6.88l0.04,2.6c0,1.59,0.09,2.76,0.28,3.49s0.55,1.35,1.09,1.84c0.66,0.63,1.86,1.11,3.62,1.44V80h-15.54
		v-0.74c1.41-0.19,2.41-0.45,3.02-0.79s1.1-0.92,1.48-1.73c0.26-0.54,0.44-1.35,0.54-2.43c0.11-1.08,0.16-2.65,0.16-4.71v-8.64
		c0-2.4-0.06-4.09-0.18-5.05s-0.38-1.75-0.77-2.36c-0.4-0.65-0.88-1.13-1.44-1.42c-0.56-0.29-1.37-0.47-2.43-0.54v-0.74
		L518.15,49.59z"/>
	<path d="M548.04,80v-9.95h0.56c0.65,2.44,1.47,4.38,2.46,5.84c1.8,2.65,3.9,3.97,6.31,3.97c1.47,0,2.75-0.44,3.82-1.34
		c1.17-0.98,1.75-2.38,1.75-4.18c0-1.48-0.42-2.77-1.26-3.87c-0.47-0.59-1.06-1.13-1.77-1.62s-1.91-1.18-3.59-2.07
		c-2.95-1.57-4.91-2.88-5.89-3.94c-1.4-1.5-2.1-3.23-2.1-5.2c0-2.11,0.7-3.93,2.11-5.45c1.62-1.73,3.76-2.6,6.43-2.6
		c1.2,0,2.31,0.21,3.34,0.63l1.2,0.53c0.38,0.14,0.7,0.21,0.98,0.21c0.45,0,0.87-0.35,1.27-1.05h0.7l0.39,7.98H564
		c-0.26-1.13-0.53-2.03-0.82-2.71c-0.29-0.68-0.71-1.34-1.24-1.97c-0.72-0.89-1.57-1.59-2.52-2.09c-0.96-0.5-1.91-0.76-2.84-0.76
		c-1.31,0-2.43,0.47-3.35,1.42c-0.92,0.95-1.38,2.12-1.38,3.5c0,1.15,0.42,2.19,1.25,3.11c0.83,0.93,2.11,1.78,3.84,2.55l3.72,1.69
		c2.22,1.01,3.88,2.26,4.98,3.76c1.1,1.5,1.65,3.27,1.65,5.31c0,2.46-0.8,4.5-2.39,6.12c-1.83,1.88-4.17,2.81-7.03,2.81
		c-1.55,0-3.12-0.3-4.71-0.91c-1.03-0.4-1.65-0.63-1.86-0.69c-0.21-0.06-0.48-0.09-0.81-0.09c-0.82,0-1.44,0.35-1.86,1.05H548.04z"
		/>
	<path d="M571.45,31.87l10.13-1.27v39.21l0.04,2.67c0,1.59,0.09,2.76,0.28,3.5c0.19,0.74,0.55,1.35,1.09,1.84
		c0.66,0.63,1.86,1.11,3.62,1.44V80h-15.54v-0.74c1.41-0.19,2.41-0.45,3.02-0.79c0.61-0.34,1.1-0.92,1.48-1.74
		c0.26-0.54,0.44-1.35,0.54-2.44c0.11-1.09,0.16-2.66,0.16-4.72V42.02c0-2.39-0.06-4.07-0.18-5.06c-0.12-0.98-0.38-1.78-0.77-2.39
		c-0.4-0.66-0.88-1.12-1.44-1.4s-1.37-0.46-2.43-0.53V31.87z"/>
	<path d="M618.59,76.59l0.6,0.35c-0.84,2.46-2.78,3.69-5.8,3.69c-1.67,0-3.05-0.41-4.15-1.23c-0.73-0.54-1.48-1.48-2.25-2.81
		c-1.57,1.41-2.76,2.33-3.56,2.78c-1.53,0.84-3.3,1.27-5.32,1.27c-2.58,0-4.63-0.62-6.14-1.86c-1.51-1.24-2.27-2.92-2.27-5.03
		c0-1.95,0.62-3.57,1.86-4.89c0.7-0.73,1.51-1.31,2.43-1.74c0.91-0.43,2.24-0.87,3.97-1.32c2.04-0.52,3.54-0.95,4.52-1.3
		s1.79-0.77,2.44-1.27c0.75-0.54,1.27-1.17,1.55-1.9c0.28-0.73,0.42-1.73,0.42-3.02c0-2.74-0.52-4.75-1.55-6.01
		c-0.47-0.59-1.07-1.05-1.81-1.41s-1.51-0.53-2.3-0.53c-0.96,0-1.82,0.25-2.57,0.74s-1.31,1.17-1.69,2.04l-0.88,2.04
		c-0.47,1.1-1.31,1.65-2.53,1.65c-0.8,0-1.46-0.26-2-0.79s-0.81-1.19-0.81-1.99c0-1.2,0.84-2.2,2.54-3.02
		c0.92-0.42,2.05-0.77,3.4-1.04c1.35-0.27,2.67-0.4,3.96-0.4c1.46,0,2.97,0.19,4.54,0.56c1.57,0.38,2.89,0.86,3.94,1.44
		c1.53,0.87,2.48,1.99,2.85,3.38c0.19,0.7,0.28,1.89,0.28,3.55v13.01c0,2.2,0.09,3.7,0.28,4.5c0.4,1.66,1.36,2.5,2.88,2.5
		c0.73,0,1.29-0.13,1.71-0.39C617.54,77.88,618.03,77.36,618.59,76.59z M606.96,62.74c-1.26,1.05-2.65,1.98-4.17,2.78
		c-1.71,0.91-2.89,1.61-3.54,2.07c-0.65,0.47-1.25,1.03-1.79,1.69c-1.1,1.36-1.65,2.94-1.65,4.75c0,1.55,0.43,2.82,1.28,3.83
		c0.85,1.01,1.93,1.51,3.24,1.51c1.15,0,2.23-0.36,3.24-1.07c1.02-0.71,1.78-1.67,2.29-2.87c0.72-1.57,1.09-3.84,1.09-6.82V62.74z"
		/>
	<path d="M628.33,50.12h8.93v1.34h-8.93v20.46c0,2.46,0.42,4.22,1.26,5.27c0.44,0.59,1.03,1.04,1.75,1.37
		c0.72,0.33,1.51,0.49,2.35,0.49c1.05,0,1.93-0.22,2.63-0.65c0.7-0.43,1.47-1.22,2.31-2.37l0.53,0.46
		c-0.77,1.41-1.86,2.45-3.25,3.13s-3.13,1.02-5.22,1.02c-2.77,0-4.78-0.54-6.05-1.62c-0.68-0.56-1.13-1.24-1.34-2.02
		c-0.21-0.79-0.32-2.2-0.32-4.24v-21.3h-3.76v-0.56c1.52-0.49,2.93-1.44,4.22-2.85c0.78-0.87,1.4-1.73,1.88-2.58
		c0.47-0.86,0.92-1.96,1.35-3.32l0.35-1.16h1.31V50.12z"/>
	<path d="M638.28,50.86l10.13-1.27v20.25l0.04,2.66c0,1.59,0.09,2.75,0.28,3.49s0.55,1.35,1.09,1.84c0.66,0.63,1.86,1.11,3.62,1.44
		V80h-15.54v-0.74c1.41-0.19,2.41-0.45,3.02-0.79s1.1-0.92,1.48-1.73c0.26-0.54,0.44-1.35,0.54-2.43c0.11-1.08,0.16-2.65,0.16-4.71
		v-8.64c0-2.4-0.06-4.09-0.18-5.05s-0.38-1.75-0.77-2.36c-0.4-0.65-0.88-1.13-1.44-1.42c-0.56-0.29-1.37-0.47-2.43-0.54V50.86z
		 M645.61,36.97c-0.92,0-1.68-0.29-2.28-0.88c-0.6-0.59-0.9-1.32-0.9-2.21c0-0.87,0.31-1.6,0.92-2.2c0.61-0.6,1.37-0.9,2.26-0.9
		s1.65,0.3,2.26,0.9c0.61,0.6,0.92,1.33,0.92,2.2c0,0.89-0.3,1.63-0.9,2.21C647.29,36.68,646.53,36.97,645.61,36.97z"/>
	<path d="M656.53,65.16c0-3.8,1.41-7.18,4.22-10.16c3.42-3.61,7.51-5.41,12.27-5.41s8.84,1.81,12.23,5.41c2.81,3,4.22,6.4,4.22,10.2
		c0,3.75-1.34,7.09-4.01,10.02c-3.28,3.61-7.43,5.41-12.45,5.41s-9.18-1.8-12.48-5.41c-1.29-1.41-2.28-2.98-2.97-4.71
		C656.87,68.77,656.53,66.99,656.53,65.16z M662.93,64.76c0,4.07,0.91,7.53,2.74,10.36c2.06,3.16,4.58,4.74,7.56,4.74
		c1.27,0,2.5-0.35,3.69-1.05c1.2-0.7,2.23-1.69,3.09-2.95c0.91-1.31,1.65-2.96,2.21-4.93c0.56-1.98,0.84-3.89,0.84-5.74
		c0-1.92-0.3-3.86-0.9-5.81c-0.6-1.95-1.4-3.63-2.41-5.04c-1.92-2.65-4.28-3.97-7.07-3.97c-2.65,0-4.93,1.39-6.86,4.18
		C663.9,57.33,662.93,60.73,662.93,64.76z"/>
	<path d="M702.61,49.59c0.33,1.37,0.5,2.64,0.5,3.82v0.56c2.91-2.92,6.36-4.38,10.37-4.38c3,0,5.41,0.7,7.24,2.11
		c1.8,1.38,2.71,3.35,2.71,5.9v14.89c0,1.59,0.09,2.76,0.28,3.49c0.19,0.74,0.55,1.35,1.09,1.84c0.66,0.63,1.86,1.11,3.62,1.44V80
		h-15.54v-0.74c1.41-0.19,2.41-0.45,3.02-0.79c0.61-0.34,1.1-0.92,1.48-1.74c0.26-0.54,0.44-1.35,0.54-2.44
		c0.11-1.09,0.16-2.65,0.16-4.69v-7.44c0-2.55-0.09-4.42-0.26-5.62c-0.18-1.19-0.51-2.15-1-2.88c-0.54-0.82-1.31-1.46-2.32-1.91
		c-1-0.46-2.12-0.69-3.33-0.69c-1.31,0-2.53,0.26-3.67,0.77c-1.13,0.52-2.03,1.22-2.68,2.11c-0.7,0.94-1.16,2-1.39,3.18
		s-0.33,3.14-0.33,5.88v6.88l0.04,2.6c0,1.59,0.09,2.76,0.28,3.49s0.55,1.35,1.09,1.84c0.66,0.63,1.86,1.11,3.62,1.44V80H692.6
		v-0.74c1.41-0.19,2.41-0.45,3.02-0.79s1.1-0.92,1.48-1.73c0.26-0.54,0.44-1.35,0.54-2.43c0.11-1.08,0.16-2.65,0.16-4.71v-8.64
		c0-2.4-0.06-4.09-0.18-5.05s-0.38-1.75-0.77-2.36c-0.4-0.65-0.88-1.13-1.44-1.42c-0.56-0.29-1.37-0.47-2.43-0.54v-0.74
		L702.61,49.59z"/>
</g>
</svg>
