<?xml version="1.0" encoding="utf-8"?>
<!-- Generator: Adobe Illustrator 16.0.0, SVG Export Plug-In . SVG Version: 6.00 Build 0)  -->
<!DOCTYPE svg PUBLIC "-//W3C//DTD SVG 1.1//EN" "http://www.w3.org/Graphics/SVG/1.1/DTD/svg11.dtd">
<svg version="1.1" id="Layer_1" xmlns="http://www.w3.org/2000/svg" xmlns:xlink="http://www.w3.org/1999/xlink" x="0px" y="0px"
 width="697px" height="697px" viewBox="0 0 697 697" enable-background="new 0 0 697 697" xml:space="preserve">
<g id="bg">
<rect fill="#927086" width="697" height="697"/>
</g>
<g id="spiral">
<path opacity="0.5" fill="none" stroke="#FFFFE3" stroke-width="0.8762" stroke-miterlimit="10" d="
M343.072,342.435c0,0,0.837-0.203,0.908-0.238c0.068-0.044,0.633-0.564,0.722-0.696c0.088-0.141,0.339-0.812,0.365-1.058
c0.028-0.246-0.018-0.952-0.115-1.261c-0.092-0.317-0.41-0.961-0.666-1.287c-0.25-0.326-0.794-0.837-1.216-1.104
c-0.414-0.256-1.141-0.582-1.701-0.715c-0.56-0.132-1.4-0.211-2.058-0.158c-0.657,0.063-1.539,0.246-2.223,0.529
c-0.684,0.291-1.522,0.766-2.158,1.287c-0.637,0.52-1.347,1.269-1.849,2.027c-0.502,0.748-1.001,1.727-1.295,2.672
c-0.292,0.941-0.503,2.097-0.521,3.164c-0.019,1.066,0.104,2.311,0.403,3.422c0.303,1.108,0.795,2.335,1.431,3.393
c0.633,1.049,1.487,2.151,2.45,3.051c0.962,0.898,2.143,1.771,3.386,2.415c1.244,0.645,2.688,1.182,4.135,1.48
c1.45,0.302,3.068,0.44,4.628,0.337c1.556-0.105,3.227-0.424,4.779-0.971c1.551-0.547,3.147-1.341,4.557-2.327
c1.418-0.987,2.801-2.223,3.953-3.614c1.148-1.395,2.199-3.023,2.975-4.752c0.775-1.719,1.375-3.649,1.675-5.598
c0.309-1.948,0.375-4.037,0.141-6.082c-0.229-2.037-0.74-4.152-1.533-6.136c-0.795-1.982-1.877-3.967-3.217-5.729
c-1.342-1.771-2.967-3.446-4.793-4.85c-1.82-1.408-3.9-2.635-6.105-3.543c-2.202-0.898-4.608-1.561-7.06-1.867
c-2.441-0.303-5.021-0.31-7.541,0.052c-2.526,0.36-5.085,1.058-7.501,2.099c-2.411,1.04-4.773,2.435-6.898,4.116
c-2.114,1.692-4.09,3.702-5.741,5.96c-1.652,2.248-3.068,4.787-4.104,7.467c-1.03,2.678-1.755,5.57-2.063,8.517
c-0.302,2.943-0.238,6.003,0.247,9.009c0.488,2.998,1.375,6.012,2.661,8.858c1.286,2.849,2.971,5.59,5.016,8.066
c2.036,2.469,4.443,4.742,7.124,6.636c2.679,1.905,5.668,3.51,8.822,4.673c3.165,1.163,6.541,1.947,9.979,2.247
c3.438,0.31,6.991,0.188,10.463-0.431c3.482-0.616,6.955-1.692,10.228-3.228c3.27-1.541,6.407-3.525,9.229-5.914
c2.824-2.39,5.396-5.185,7.541-8.285c2.146-3.113,3.936-6.55,5.23-10.19c1.286-3.642,2.139-7.513,2.44-11.441
c0.31-3.933,0.115-7.968-0.625-11.928c-0.744-3.95-2.006-7.881-3.791-11.572c-1.779-3.703-4.063-7.238-6.805-10.402
c-2.742-3.174-5.924-6.047-9.463-8.438c-3.539-2.398-7.433-4.372-11.547-5.791c-4.117-1.43-8.472-2.337-12.901-2.644
c-4.426-0.303-8.947-0.046-13.381,0.818c-4.435,0.872-8.814,2.328-12.945,4.354c-4.13,2.037-8.047,4.619-11.568,7.705
s-6.69,6.664-9.331,10.632c-2.646,3.967-4.81,8.313-6.361,12.905c-1.542,4.602-2.521,9.44-2.829,14.359
c-0.304,4.92,0.018,9.934,1.014,14.844c1.005,4.92,2.641,9.749,4.919,14.307c2.274,4.559,5.161,8.868,8.601,12.738
c3.438,3.869,7.403,7.334,11.8,10.225c4.39,2.893,9.198,5.246,14.271,6.92c5.068,1.676,10.401,2.725,15.815,3.023
c5.416,0.309,10.917-0.08,16.308-1.207c5.388-1.121,10.681-2.953,15.664-5.475c4.984-2.53,9.688-5.712,13.906-9.495
c4.219-3.788,7.99-8.146,11.125-12.967c3.137-4.821,5.682-10.085,7.484-15.639c1.801-5.543,2.908-11.362,3.213-17.276
c0.307-5.906-0.142-11.9-1.396-17.764c-1.258-5.87-3.271-11.607-6.043-17.021c-2.768-5.412-6.258-10.506-10.395-15.083
c-4.133-4.565-8.885-8.63-14.135-12.016c-5.248-3.387-10.966-6.116-16.99-8.049c-6.025-1.93-12.336-3.103-18.741-3.41
c-6.399-0.301-12.879,0.212-19.225,1.597c-6.341,1.385-12.546,3.587-18.386,6.602c-5.84,3.023-11.323,6.805-16.24,11.293
c-4.921,4.485-9.291,9.625-12.92,15.303c-3.631,5.677-6.554,11.848-8.611,18.354c-2.059,6.497-3.292,13.301-3.602,20.195
c-0.304,6.901,0.273,13.864,1.785,20.688c1.512,6.815,3.904,13.479,7.171,19.746c3.261,6.268,7.352,12.148,12.184,17.409
c4.84,5.271,10.37,9.935,16.475,13.813c6.101,3.88,12.732,6.989,19.71,9.178c6.982,2.186,14.271,3.48,21.659,3.79
c7.391,0.309,14.852-0.338,22.146-1.976c7.298-1.64,14.412-4.224,21.109-7.73c6.693-3.51,12.967-7.898,18.582-13.08
c5.615-5.185,10.586-11.116,14.707-17.642c4.125-6.531,7.426-13.619,9.736-21.074c2.317-7.457,3.682-15.241,3.985-23.121
c0.308-7.883-0.396-15.832-2.168-23.607c-1.764-7.768-4.537-15.338-8.297-22.462c-3.754-7.122-8.443-13.786-13.979-19.755
c-5.527-5.959-11.849-11.23-18.81-15.604c-6.959-4.372-14.5-7.86-22.434-10.305c-7.931-2.441-16.201-3.87-24.58-4.179
c-8.374-0.31-16.814,0.468-25.062,2.362c-8.251,1.896-16.28,4.857-23.831,8.859c-7.55,4.002-14.604,9.001-20.911,14.88
c-6.316,5.88-11.895,12.587-16.509,19.977c-4.619,7.387-8.295,15.382-10.864,23.792c-2.574,8.408-4.063,17.171-4.371,26.04
c-0.305,8.866,0.533,17.807,2.557,26.523c2.019,8.728,5.17,17.216,9.422,25.193c4.25,7.977,9.543,15.426,15.771,22.082
c6.232,6.663,13.338,12.544,21.146,17.399c7.812,4.866,16.273,8.736,25.154,11.434c8.885,2.697,18.136,4.249,27.499,4.558
c9.361,0.311,18.785-0.591,27.988-2.741s18.146-5.49,26.551-9.986c8.402-4.497,16.242-10.094,23.254-16.67
c7.008-6.576,13.189-14.078,18.297-22.313c5.113-8.241,9.168-17.162,11.992-26.515c2.824-9.361,4.447-19.11,4.752-28.966
c0.309-9.855-0.662-19.765-2.936-29.442c-2.274-9.678-5.81-19.085-10.552-27.909c-4.744-8.832-10.641-17.064-17.563-24.426
c-6.924-7.359-14.814-13.839-23.484-19.19c-8.664-5.357-18.041-9.607-27.879-12.562c-9.836-2.953-20.07-4.638-30.42-4.945
c-10.349-0.309-20.75,0.723-30.904,3.13c-10.156,2.406-20.01,6.126-29.271,11.115c-9.263,4.99-17.881,11.187-25.591,18.459
c-7.708,7.282-14.485,15.56-20.094,24.655c-5.602,9.098-10.036,18.927-13.117,29.239c-3.079,10.313-4.829,21.033-5.139,31.875
c-0.303,10.844,0.794,21.738,3.324,32.369c2.529,10.632,6.443,20.945,11.679,30.632c5.236,9.688,11.732,18.698,19.358,26.764
c7.625,8.058,16.299,15.137,25.82,20.979c9.52,5.854,19.807,10.481,30.598,13.689c10.789,3.209,22.003,5.016,33.338,5.323
c11.336,0.309,22.721-0.854,33.834-3.509c11.105-2.661,21.877-6.762,31.988-12.242c10.11-5.484,19.521-12.278,27.926-20.258
c8.41-7.969,15.789-17.041,21.889-26.981c6.097-9.954,10.904-20.697,14.246-31.964c3.33-11.268,5.213-22.974,5.519-34.804
c0.309-11.829-0.916-23.702-3.703-35.286c-2.783-11.582-7.076-22.813-12.808-33.347c-5.729-10.543-12.823-20.346-21.147-29.1
c-8.32-8.753-17.783-16.439-28.158-22.777c-10.377-6.346-21.574-11.354-33.316-14.817c-11.745-3.456-23.94-5.402-36.265-5.711
c-12.319-0.31-24.682,0.985-36.745,3.896c-12.063,2.917-23.742,7.396-34.713,13.373c-10.965,5.977-21.161,13.381-30.268,22.046
c-9.101,8.674-17.083,18.521-23.677,29.327c-6.585,10.797-11.776,22.461-15.374,34.678c-3.588,12.219-5.598,24.902-5.905,37.721
c-0.304,12.816,1.05,25.67,4.092,38.214c3.039,12.534,7.712,24.673,13.937,36.069c6.224,11.391,13.922,21.978,22.945,31.436
c9.018,9.449,19.261,17.736,30.49,24.566c11.23,6.841,23.344,12.22,36.043,15.938c12.695,3.721,25.871,5.792,39.178,6.101
c13.311,0.311,26.657-1.108,39.668-4.283c13.016-3.164,25.615-8.021,37.436-14.491c11.822-6.472,22.802-14.476,32.601-23.845
c9.801-9.361,18.389-20.001,25.475-31.655c7.078-11.662,12.648-24.233,16.496-37.401c3.848-13.179,5.986-26.843,6.289-40.646
c0.309-13.796-1.172-27.638-4.469-41.123c-3.297-13.496-8.349-26.552-15.066-38.795c-6.717-12.252-15.02-23.624-24.733-33.771
c-9.72-10.155-20.746-19.041-32.83-26.367c-12.082-7.334-25.109-13.09-38.765-17.065c-13.646-3.977-27.803-6.179-42.102-6.487
c-14.288-0.31-28.621,1.242-42.584,4.672c-13.969,3.421-27.482,8.656-40.157,15.62c-12.671,6.965-24.439,15.566-34.938,25.634
c-10.499,10.067-19.685,21.493-27.265,33.999c-7.571,12.511-13.521,25.996-17.625,40.127c-4.104,14.121-6.369,28.772-6.678,43.556
c-0.304,14.791,1.309,29.609,4.861,44.05c3.553,14.447,8.979,28.419,16.188,41.52c7.212,13.099,16.114,25.255,26.53,36.105
c10.414,10.852,22.226,20.336,35.166,28.156c12.941,7.827,26.881,13.963,41.484,18.192c14.597,4.231,29.741,6.56,45.018,6.867
c15.286,0.309,30.592-1.365,45.512-5.051c14.916-3.677,29.347-9.29,42.877-16.748c13.531-7.457,26.078-16.67,37.273-27.424
c11.201-10.764,20.984-22.973,29.06-36.336c8.065-13.372,14.395-27.769,18.754-42.852c4.358-15.072,6.754-30.702,7.059-46.48
c0.307-15.771-1.434-31.576-5.242-46.967c-3.807-15.392-9.611-30.279-17.315-44.234c-7.705-13.962-17.212-26.903-28.322-38.451
c-11.111-11.54-23.713-21.632-37.504-29.945c-13.791-8.321-28.65-14.836-44.203-19.322c-15.555-4.486-31.674-6.945-47.946-7.255
c-16.264-0.309-32.554,1.498-48.425,5.438c-15.872,3.932-31.218,9.927-45.601,17.877c-14.382,7.951-27.72,17.763-39.609,29.222
c-11.893,11.46-22.285,24.453-30.854,38.673c-8.56,14.22-15.269,29.529-19.879,45.565c-4.613,16.025-7.14,32.642-7.447,49.399
c-0.306,16.767,1.568,33.541,5.633,49.894c4.059,16.343,10.242,32.147,18.44,46.957c8.197,14.811,18.309,28.535,30.11,40.779
c11.813,12.244,25.198,22.937,39.845,31.743c14.646,8.813,30.421,15.707,46.923,20.45c16.512,4.742,33.612,7.326,50.862,7.634
c17.256,0.31,34.53-1.632,51.353-5.816c16.823-4.188,33.077-10.561,48.319-19.006c15.236-8.443,29.354-18.855,41.951-31.012
c12.588-12.154,23.58-25.933,32.644-41.009c9.053-15.072,16.141-31.311,21.006-48.288c4.869-16.986,7.522-34.582,7.828-52.326
c0.307-17.745-1.693-35.508-6.015-52.813c-4.317-17.295-10.877-34.008-19.567-49.672c-8.688-15.665-19.402-30.185-31.91-43.124
c-12.506-12.94-26.677-24.233-42.179-33.532c-15.5-9.31-32.188-16.582-49.645-21.58c-17.459-4.998-35.543-7.713-53.787-8.021
c-18.237-0.31-36.489,1.763-54.265,6.206c-17.779,4.441-34.951,11.194-51.045,20.134c-16.092,8.938-30.997,19.947-44.281,32.809
c-13.293,12.854-24.891,27.415-34.439,43.345c-9.548,15.929-17.014,33.074-22.135,51.005c-5.121,17.938-7.906,36.512-8.215,55.243
c-0.305,18.731,1.824,37.481,6.397,55.729c4.574,18.255,11.514,35.887,20.698,52.404c9.182,16.52,20.495,31.813,33.699,45.45
c13.206,13.637,28.164,25.537,44.517,35.33c16.352,9.805,33.955,17.454,52.369,22.709c18.41,5.245,37.474,8.094,56.698,8.399
c19.226,0.31,38.46-1.886,57.193-6.583c18.729-4.708,36.813-11.83,53.762-21.262c16.943-9.434,32.635-21.052,46.623-34.601
c13.986-13.55,26.186-28.905,36.229-45.681c10.041-16.784,17.886-34.846,23.263-53.736c5.377-18.882,8.291-38.44,8.596-58.161
c0.309-19.72-1.949-39.438-6.779-58.646c-4.83-19.209-12.147-37.756-21.826-55.121c-9.674-17.373-21.592-33.461-35.493-47.795
c-13.9-14.333-29.64-26.832-46.853-37.129c-17.207-10.287-35.723-18.317-55.09-23.826c-19.367-5.501-39.412-8.479-59.625-8.789
c-20.213-0.309-40.425,2.02-60.11,6.973c-19.679,4.964-38.68,12.466-56.479,22.392c-17.803,9.926-34.278,22.143-48.96,36.388
c-14.683,14.254-27.484,30.386-38.023,48.024c-10.534,17.639-18.759,36.608-24.392,56.452c-5.633,19.842-8.674,40.372-8.982,61.078
c-0.304,20.707,2.084,41.413,7.166,61.573c5.087,20.16,12.782,39.615,22.955,57.845c10.164,18.229,22.691,35.094,37.287,50.132
c14.599,15.029,31.127,28.128,49.188,38.918c18.062,10.78,37.488,19.19,57.808,24.945c20.32,5.766,41.348,8.868,62.543,9.178
c21.202,0.307,42.401-2.145,63.034-7.354c20.635-5.219,40.553-13.099,59.205-23.52c18.653-10.418,35.914-23.234,51.295-38.188
c15.381-14.94,28.791-31.866,39.817-50.352c11.027-18.494,19.634-38.38,25.521-59.177c5.887-20.794,7.209-24.705,9.358-46.397"/>
</g>
<g id="dots" fill="#ffb" stroke="#ff0" stroke-width=".44">
<circle id="l28" opacity="0.25" cx="351.607" cy="382.276" r="5.5"/>
<circle id="l30" opacity="0.25" cx="367.732" cy="376.833" r="5.5"/>
<circle id="l31" opacity="0.25" cx="374.629" cy="371.736" r="5.5"/>
<circle id="l33" opacity="0.25" cx="384.695" cy="357.994" r="5.5"/>
<circle id="l39" opacity="0.25" cx="377.971" cy="309.703" r="5.5"/>
<circle id="l43" opacity="0.25" cx="348.922" cy="292.776" r="5.5"/>
<circle id="l45" opacity="0.25" cx="331.55" cy="291.979" r="5.5"/>
<circle id="l51" opacity="0.25" cx="292.376" cy="322.476" r="5.5"/>
<circle id="l52" opacity="0.25" cx="289.299" cy="330.489" r="5.5"/>
<circle id="l60" opacity="0.25" cx="309.252" cy="391.971" r="5.5"/>
<circle id="l63" opacity="0.25" cx="332.385" cy="402.702" r="5.5"/>
<circle id="l73" opacity="0.25" cx="404.135" cy="369.5" r="5.5"/>
<circle id="l74" opacity="0.25" cx="407.508" cy="361.596" r="5.5"/>
<circle id="l75" opacity="0.25" cx="409.82" cy="353.364" r="5.5"/>
<circle id="l78" opacity="0.25" cx="410.324" cy="327.769" r="5.5"/>
<circle id="l80" opacity="0.25" cx="405.354" cy="311.399" r="5.5"/>
<circle id="l89" opacity="0.25" cx="344.887" cy="269.611" r="5.5"/>
<circle id="l102" opacity="0.25" cx="265.555" cy="333.298" r="5.5"/>
<circle id="l104" opacity="0.25" cx="264.546" cy="350.397" r="5.5"/>
<circle id="l110" opacity="0.25" cx="282.911" cy="397.554" r="5.5"/>
<circle id="l114" opacity="0.5" cx="309.577" cy="418.743" r="5.5"/>
<circle id="l122" opacity="0.25" cx="376.234" cy="422.431" r="5.5"/>
<circle id="l126" opacity="0.25" cx="405.377" cy="404.682" r="5.5"/>
<circle id="l128" opacity="0.25" cx="416.764" cy="391.912" r="5.5"/>
<circle id="l130" opacity="0.25" cx="425.471" cy="377.167" r="5.5"/>
<circle id="l132" opacity="0.25" cx="431.188" cy="361.005" r="5.5"/>
<circle id="l141" opacity="0.25" cx="417.586" cy="287.349" r="5.5"/>
<circle id="l142" opacity="0.25" cx="412.387" cy="280.516" r="5.5"/>
<circle id="l145" opacity="0.25" cx="393.357" cy="263.3" r="5.5"/>
<circle id="l148" opacity="0.25" cx="370.377" cy="251.88" r="5.5"/>
<circle id="l149" opacity="0.25" cx="362.143" cy="249.518" r="5.5"/>
<circle id="l153" opacity="0.25" cx="328.126" cy="247.041" r="5.5"/>
<circle id="l158" opacity="0.25" cx="288.021" cy="262.017" r="5.5"/>
<circle id="l159" opacity="0.25" cx="280.988" cy="266.917" r="5.5"/>
<circle id="l163" opacity="0.25" cx="257.831" cy="292.041" r="5.5"/>
<circle id="l165" opacity="0.25" cx="249.844" cy="307.175" r="5.5"/>
<circle id="l166" opacity="0.25" cx="246.327" cy="314.97" r="5.5"/>
<circle id="l177" opacity="0.25" cx="260.458" cy="405.241" r="5.5"/>
<circle id="l178" opacity="0.25" cx="265.657" cy="412.071" r="5.5"/>
<circle id="l180" opacity="0.25" cx="277.645" cy="424.318" r="5.5"/>
<circle id="l186" opacity="0.25" cx="323.091" cy="447.394" r="5.5"/>
<circle id="l198" opacity="0.25" cx="419.08" cy="422.692" r="5.5"/>
<circle id="l204" opacity="0.25" cx="448.396" cy="380.955" r="5.5"/>
<circle id="l206" opacity="0.25" cx="453.52" cy="364.592" r="5.5"/>
<circle id="l212" opacity="0.25" cx="453.434" cy="313.541" r="5.5"/>
<circle id="l215" opacity="0.25" cx="444.824" cy="289.358" r="5.5"/>
<circle id="l218" opacity="0.25" cx="431.041" cy="267.697" r="5.5"/>
<circle id="l226" opacity="0.25" cx="375.059" cy="229.689" r="5.5"/>
<circle id="l238" opacity="0.25" cx="276.167" cy="242.828" r="5.5"/>
<circle id="l245" opacity="0.25" cx="235.201" cy="285.913" r="5.5"/>
<circle id="l254" opacity="0.5" cx="220.122" cy="360.345" r="5.5"/>
<circle id="l256" opacity="0.25" cx="223.102" cy="377.72" r="5.5"/>
<circle id="l262" opacity="0.25" cx="245.632" cy="423.143" r="5.5"/>
<circle id="l273" opacity="0.25" cx="324.665" cy="470.724" r="5.5"/>
<circle id="l280" opacity="0.25" cx="384.104" cy="467.311" r="5.5"/>
<circle id="l283" opacity="0.25" cx="407.918" cy="457.633" r="5.5"/>
<circle id="l287" opacity="0.25" cx="435.881" cy="437.908" r="5.5"/>
<circle id="l289" opacity="0.25" cx="447.707" cy="425.519" r="5.5"/>
<circle id="l303" opacity="0.25" cx="476.379" cy="312.94" r="5.5"/>
<circle id="l304" opacity="0.25" cx="474.08" cy="304.803" r="5.5"/>
<circle id="l309" opacity="0.25" cx="457.221" cy="265.489" r="5.5"/>
<circle id="l310" opacity="0.25" cx="452.365" cy="258.427" r="5.5"/>
<circle id="l315" opacity="0.25" cx="422.043" cy="228.325" r="5.5"/>
<circle id="l319" opacity="0.25" cx="392.063" cy="211.807" r="5.5"/>
<circle id="l323" opacity="0.25" cx="358.482" cy="202.414" r="5.5"/>
<circle id="l325" opacity="0.5" cx="341.835" cy="201.8" r="5.5"/>
<circle id="l326" opacity="0.25" cx="333.277" cy="201.944" r="5.5"/>
<circle id="l332" opacity="0.25" cx="283.423" cy="213.548" r="5.5"/>
<circle id="l344" opacity="0.25" cx="210.991" cy="283.608" r="5.5"/>
<circle id="l345" opacity="0.25" cx="207.526" cy="291.452" r="5.5"/>
<circle id="l347" opacity="0.25" cx="202.006" cy="307.716" r="5.5"/>
<circle id="l348" opacity="0.25" cx="199.983" cy="316.035" r="5.5"/>
<circle id="l356" opacity="0.25" cx="201.667" cy="384.042" r="5.5"/>
<circle id="l359" opacity="0.25" cx="210.356" cy="408.21" r="5.5"/>
<circle id="l362" opacity="0.25" cx="223.102" cy="430.532" r="5.5"/>
<circle id="l369" opacity="0.25" cx="266.165" cy="471.841" r="5.5"/>
<circle id="l373" opacity="0.25" cx="296.984" cy="486.737" r="5.5"/>
<circle id="l374" opacity="0.25" cx="305.182" cy="489.343" r="5.5"/>
<circle id="l385" opacity="0.25" cx="397.99" cy="486.514" r="5.5"/>
<circle id="l390" opacity="0.25" cx="435.945" cy="466.831" r="5.5"/>
<circle id="l396" opacity="0.25" cx="472.246" cy="430.667" r="5.5"/>
<circle id="l399" opacity="0.25" cx="485.441" cy="408.593" r="5.5"/>
<circle id="l400" opacity="0.25" cx="488.842" cy="400.754" r="5.5"/>
<circle id="l414" opacity="0.25" cx="491.404" cy="283.583" r="5.5"/>
<circle id="l415" opacity="0.25" cx="488.178" cy="275.636" r="5.5"/>
<circle id="l418" opacity="0.25" cx="475.996" cy="252.982" r="5.5"/>
<circle id="l430" opacity="0.25" cx="397.121" cy="189.581" r="5.5"/>
<circle id="l437" opacity="0.5" cx="338.284" cy="179.235" r="5.5"/>
<circle id="l441" opacity="0.25" cx="304.257" cy="183.156" r="5.5"/>
<circle id="l442" opacity="0.25" cx="295.934" cy="185.242" r="5.5"/>
<circle id="l456" opacity="0.25" cx="201.281" cy="254.862" r="5.5"/>
<circle id="l463" opacity="0.5" cx="178.072" cy="310.217" r="5.5"/>
<circle id="l465" opacity="0.25" cx="175.363" cy="326.864" r="5.5"/>
<circle id="l475" opacity="0.25" cx="183.646" cy="403.062" r="5.5"/>
<circle id="l479" opacity="0.25" cx="203.068" cy="441.194" r="5.5"/>
<circle id="l483" opacity="0.25" cx="224.881" cy="467.636" r="5.5"/>
<circle id="l488" opacity="0.25" cx="258.774" cy="493.756" r="5.5"/>
<circle id="l491" opacity="0.25" cx="281.81" cy="505.122" r="5.5"/>
<circle id="l495" opacity="0.25" cx="314.831" cy="514.547" r="5.5"/>
<circle id="l497" opacity="0.25" cx="331.68" cy="517.12" r="5.5"/>
<circle id="l498" opacity="0.25" cx="340.257" cy="517.667" r="5.5"/>
<circle id="l500" opacity="0.25" cx="357.4" cy="517.497" r="5.5"/>
<circle id="l501" opacity="0.5" cx="365.939" cy="516.786" r="5.5"/>
<circle id="l504" opacity="0.25" cx="391.139" cy="512.019" r="5.5"/>
<circle id="l505" opacity="0.25" cx="399.385" cy="510.166" r="5.5"/>
<circle id="l518" opacity="0.25" cx="488.854" cy="446.182" r="5.5"/>
<circle id="l519" opacity="0.25" cx="493.801" cy="439.165" r="5.5"/>
<circle id="l520" opacity="0.25" cx="498.412" cy="431.904" r="5.5"/>
<circle id="l525" opacity="0.25" cx="515.93" cy="392.872" r="5.5"/>
<circle id="l527" opacity="0.25" cx="520.242" cy="376.279" r="5.5"/>
<circle id="l533" opacity="0.25" cx="523.52" cy="325.085" r="5.5"/>
<circle id="l536" opacity="0.25" cx="519.684" cy="299.643" r="5.5"/>
<circle id="l542" opacity="0.25" cx="501.48" cy="251.664" r="5.5"/>
<circle id="l545" opacity="0.25" cx="487.525" cy="230.096" r="5.5"/>
<circle id="l547" opacity="0.25" cx="476.578" cy="216.874" r="5.5"/>
<circle id="l560" opacity="0.25" cx="381.754" cy="161.436" r="5.5"/>
<circle id="l561" opacity="0.25" cx="373.365" cy="159.699" r="5.5"/>
<circle id="l563" opacity="0.25" cx="356.188" cy="157.105" r="5.5"/>
<circle id="l564" opacity="0.25" cx="347.796" cy="156.831" r="5.5"/>
<circle id="l565" opacity="0.25" cx="339.211" cy="156.667" r="5.5"/>
<circle id="l576" opacity="0.25" cx="248.881" cy="180.348" r="5.5"/>
<circle id="l580" opacity="0.25" cx="220.605" cy="199.663" r="5.5"/>
<circle id="l583" opacity="0.25" cx="201.93" cy="217.362" r="5.5"/>
<circle id="l590" opacity="0.25" cx="168.864" cy="267.18" r="5.5"/>
<circle id="l594" opacity="0.25" cx="157.503" cy="299.536" r="5.5"/>
<circle id="l600" opacity="0.25" cx="151.706" cy="350.528" r="5.5"/>
<circle id="l601" opacity="0.25" cx="152.08" cy="359.087" r="5.5"/>
<circle id="l604" opacity="0.25" cx="154.712" cy="385.022" r="5.5"/>
<circle id="l605" opacity="0.25" cx="157.378" cy="392.968" r="5.5"/>
<circle id="l609" opacity="0.25" cx="168.572" cy="425.328" r="5.5"/>
<circle id="l612" opacity="0.25" cx="180.654" cy="448.054" r="5.5"/>
<circle id="l622" opacity="0.25" cx="240.23" cy="508.815" r="5.5"/>
<circle id="l626" opacity="0.25" cx="270.503" cy="524.863" r="5.5"/>
<circle id="l627" opacity="0.25" cx="278.477" cy="528.03" r="5.5"/>
<circle id="l637" opacity="0.25" cx="362.791" cy="539.737" r="5.5"/>
<circle id="l642" opacity="0.25" cx="404.861" cy="531.746" r="5.5"/>
<circle id="l646" opacity="0.25" cx="436.654" cy="518.965" r="5.5"/>
<circle id="l651" opacity="0.25" cx="472.553" cy="495.649" r="5.5"/>
<circle id="l659" opacity="0.25" cx="517.404" cy="444.098" r="5.5"/>
<circle id="l665" opacity="0.25" cx="538.205" cy="397.168" r="5.5"/>
<circle id="l666" opacity="0.25" cx="540.479" cy="388.896" r="5.5"/>
<circle id="l675" opacity="0.25" cx="544.842" cy="312.298" r="5.5"/>
<circle id="l686" opacity="0.25" cx="511.514" cy="224.887" r="5.5"/>
<circle id="l690" opacity="0.25" cx="489.996" cy="198.18" r="5.5"/>
<circle id="l707" opacity="0.25" cx="361.777" cy="135.25" r="5.5"/>
<circle id="l710" opacity="0.25" cx="336.079" cy="134.154" r="5.5"/>
<circle id="l711" opacity="0.25" cx="327.492" cy="134.473" r="5.5"/>
<circle id="l712" opacity="0.25" cx="318.95" cy="135.159" r="5.5"/>
<circle id="l716" opacity="0.25" cx="285.217" cy="141.387" r="5.5"/>
<circle id="l719" opacity="0.25" cx="260.872" cy="149.608" r="5.5"/>
<circle id="l737" opacity="0.25" cx="150.665" cy="252.88" r="5.5"/>
<circle id="l738" opacity="0.25" cx="147.064" cy="260.659" r="5.5"/>
<circle id="l742" opacity="0.25" cx="135.864" cy="293.081" r="5.5"/>
<circle id="l745" opacity="0.25" cx="130.958" cy="318.305" r="5.5"/>
<circle id="l749" opacity="0.25" cx="129.188" cy="352.561" r="5.5"/>
<circle id="l754" opacity="0.5" cx="134.665" cy="395.034" r="5.5"/>
<circle id="l756" opacity="0.25" cx="139.21" cy="411.572" r="5.5"/>
<circle id="l759" opacity="0.25" cx="148.438" cy="435.565" r="5.5"/>
<circle id="l760" opacity="0.25" cx="152.148" cy="443.309" r="5.5"/>
<circle id="l768" opacity="0.25" cx="192.421" cy="499.035" r="5.5"/>
<circle id="l769" opacity="0.25" cx="198.337" cy="504.689" r="5.5"/>
<circle id="l776" opacity="0.25" cx="247.406" cy="538.975" r="5.5"/>
<circle id="l780" opacity="0.25" cx="279.062" cy="552.127" r="5.5"/>
<circle id="l790" opacity="0.25" cx="363.701" cy="562.298" r="5.5"/>
<circle id="l798" opacity="0.25" cx="430.24" cy="546.655" r="5.5"/>
<circle id="l800" opacity="0.25" cx="445.875" cy="539.584" r="5.5"/>
<circle id="l801" opacity="0.25" cx="453.49" cy="535.589" r="5.5"/>
<circle id="l802" opacity="0.25" cx="460.922" cy="531.312" r="5.5"/>
<circle id="l809" opacity="0.5" cx="507.623" cy="493.848" r="5.5"/>
<circle id="l815" opacity="0.25" cx="538.49" cy="452.788" r="5.5"/>
<circle id="l817" opacity="0.5" cx="546.568" cy="437.675" r="5.5"/>
<circle id="l819" opacity="0.25" cx="553.475" cy="421.985" r="5.5"/>
<circle id="l824" opacity="0.5" cx="565.305" cy="380.546" r="5.5"/>
<circle id="l828" opacity="0.25" cx="569.082" cy="346.729" r="5.5"/>
<circle id="l830" opacity="0.25" cx="568.994" cy="329.578" r="5.5"/>
<circle id="l832" opacity="0.25" cx="567.611" cy="312.497" r="5.5"/>
<circle id="l838" opacity="0.25" cx="555.77" cy="262.505" r="5.5"/>
<circle id="l848" opacity="0.25" cx="512.307" cy="189.126" r="5.5"/>
<circle id="l849" opacity="0.25" cx="506.496" cy="182.79" r="5.5"/>
<circle id="l851" opacity="0.25" cx="494.217" cy="170.826" r="5.5"/>
<circle id="l852" opacity="0.25" cx="487.756" cy="165.198" r="5.5"/>
<circle id="l853" opacity="0.25" cx="481.086" cy="159.815" r="5.5"/>
<circle id="l854" opacity="0.25" cx="474.213" cy="154.68" r="5.5"/>
<circle id="l861" opacity="0.25" cx="421.426" cy="126.401" r="5.5"/>
<circle id="l863" opacity="0.25" cx="405.137" cy="120.934" r="5.5"/>
<circle id="l869" opacity="0.25" cx="354.568" cy="112.001" r="5.5"/>
<circle id="l871" opacity="0.25" cx="337.399" cy="111.552" r="5.5"/>
<circle id="l881" opacity="0.25" cx="253.751" cy="128.153" r="5.5"/>
<circle id="l883" opacity="0.25" cx="238.066" cy="135.105" r="5.5"/>
<circle id="l889" opacity="0.25" cx="194.667" cy="162.592" r="5.5"/>
<circle id="l891" opacity="0.25" cx="181.66" cy="173.803" r="5.5"/>
<circle id="l897" opacity="0.25" cx="148.079" cy="212.66" r="5.5"/>
<circle id="l915" opacity="0.25" cx="106.853" cy="358.652" r="5.5"/>
<circle id="l918" opacity="0.25" cx="109.56" cy="384.217" r="5.5"/>
<circle id="l923" opacity="0.25" cx="120.163" cy="425.734" r="5.5"/>
<circle id="l929" opacity="0.25" cx="142.43" cy="472.047" r="5.5"/>
<circle id="l934" opacity="0.25" cx="168.195" cy="506.257" r="5.5"/>
<circle id="l939" opacity="0.25" cx="199.646" cy="535.33" r="5.5"/>
<circle id="l943" opacity="0.25" cx="228.247" cy="554.293" r="5.5"/>
<circle id="l946" opacity="0.25" cx="251.269" cy="565.719" r="5.5"/>
<circle id="l959" opacity="0.25" cx="360.111" cy="585.139" r="5.5"/>
<circle id="l961" opacity="0.25" cx="377.186" cy="583.621" r="5.5"/>
<circle id="l962" opacity="0.25" cx="385.678" cy="582.412" r="5.5"/>
<circle id="l966" opacity="0.25" cx="418.912" cy="574.416" r="5.5"/>
<circle id="l968" opacity="0.25" cx="435.264" cy="568.94" r="5.5"/>
<circle id="l976" opacity="0.25" cx="494.918" cy="535.468" r="5.5"/>
<circle id="l978" opacity="0.25" cx="508.191" cy="524.592" r="5.5"/>
<circle id="l981" opacity="0.25" cx="526.598" cy="506.594" r="5.5"/>
<circle id="l983" opacity="0.25" cx="537.764" cy="493.591" r="5.5"/>
<circle id="l985" opacity="0.25" cx="548.004" cy="479.83" r="5.5"/>
<circle id="l989" opacity="0.25" cx="565.488" cy="450.316" r="5.5"/>
<circle id="l998" opacity="0.25" cx="588.736" cy="377.252" r="5.5"/>
<circle id="l1000" opacity="0.25" cx="590.9" cy="360.041" r="5.5"/>
</g>
</svg>
