<?xml version="1.0" encoding="utf-8"?>
<!DOCTYPE svg PUBLIC "-//W3C//DTD SVG 1.1//EN" "http://www.w3.org/Graphics/SVG/1.1/DTD/svg11.dtd">
<svg version="1.1" id="Layer_1" xmlns="http://www.w3.org/2000/svg" xmlns:xlink="http://www.w3.org/1999/xlink" x="0px" y="0px"
 width="697px" height="697px" viewBox="0 0 697 697" enable-background="new 0 0 697 697" xml:space="preserve">
<g id="bg">
<rect fill="#927086" width="697" height="697"/>
</g>
<g id="spiral">
<path d="m343.07 342.44s0.837-0.203 0.908-0.238c0.066-0.044 0.633-0.564 0.722-0.696 0.088-0.141 0.339-0.812 0.365-1.058s-0.02-0.952-0.115-1.261c-0.092-0.317-0.41-0.961-0.666-1.287-0.25-0.326-0.794-0.837-1.216-1.104-0.414-0.256-1.143-0.582-1.701-0.715-0.562-0.132-1.4-0.211-2.06-0.158-0.655 0.063-1.538 0.246-2.223 0.529-0.684 0.291-1.521 0.766-2.158 1.287-0.637 0.52-1.347 1.269-1.849 2.027-0.502 0.748-1.001 1.727-1.295 2.672-0.292 0.941-0.503 2.097-0.521 3.164-0.019 1.066 0.104 2.311 0.403 3.422 0.303 1.106 0.795 2.334 1.431 3.393 0.635 1.049 1.487 2.15 2.45 3.051 0.962 0.898 2.145 1.771 3.386 2.415 1.244 0.646 2.688 1.183 4.137 1.479 1.448 0.303 3.066 0.439 4.628 0.338 1.556-0.105 3.227-0.424 4.777-0.971 1.553-0.549 3.147-1.343 4.559-2.328 1.418-0.986 2.801-2.224 3.953-3.613 1.146-1.395 2.197-3.023 2.975-4.752 0.775-1.719 1.375-3.649 1.675-5.598 0.311-1.948 0.375-4.037 0.143-6.082-0.229-2.037-0.74-4.152-1.533-6.136-0.795-1.982-1.877-3.967-3.217-5.729-1.344-1.771-2.969-3.446-4.793-4.85-1.82-1.408-3.9-2.635-6.105-3.543-2.202-0.898-4.607-1.561-7.06-1.867-2.441-0.303-5.021-0.31-7.541 0.052-2.526 0.36-5.085 1.058-7.501 2.099-2.411 1.04-4.773 2.435-6.898 4.116-2.114 1.692-4.09 3.702-5.741 5.96-1.65 2.248-3.066 4.787-4.104 7.467-1.03 2.678-1.755 5.57-2.063 8.517-0.302 2.943-0.236 6.003 0.247 9.008 0.488 2.998 1.375 6.013 2.661 8.859 1.286 2.848 2.971 5.59 5.018 8.064 2.034 2.469 4.441 4.74 7.123 6.636 2.68 1.905 5.668 3.511 8.821 4.675 3.165 1.161 6.541 1.945 9.979 2.245 3.438 0.312 6.99 0.188 10.463-0.431 3.48-0.616 6.955-1.692 10.228-3.229 3.271-1.541 6.407-3.524 9.229-5.914 2.824-2.391 5.396-5.186 7.541-8.285 2.146-3.112 3.936-6.551 5.229-10.189 1.286-3.643 2.141-7.513 2.44-11.441 0.31-3.933 0.115-7.968-0.625-11.928-0.744-3.95-2.006-7.881-3.791-11.572-1.779-3.703-4.063-7.238-6.805-10.402-2.742-3.174-5.926-6.047-9.465-8.438-3.538-2.398-7.433-4.372-11.547-5.791-4.116-1.43-8.472-2.337-12.899-2.644-4.428-0.303-8.947-0.046-13.381 0.818-4.437 0.872-8.814 2.328-12.945 4.354-4.13 2.037-8.047 4.619-11.568 7.705s-6.69 6.664-9.331 10.632c-2.646 3.967-4.81 8.313-6.361 12.905-1.542 4.602-2.521 9.44-2.829 14.359-0.304 4.92 0.018 9.934 1.014 14.843 1.005 4.92 2.641 9.748 4.919 14.308 2.274 4.56 5.161 8.868 8.601 12.737 3.438 3.869 7.403 7.335 11.8 10.226 4.39 2.895 9.198 5.246 14.271 6.92 5.068 1.676 10.401 2.727 15.815 3.023 5.416 0.309 10.917-0.08 16.308-1.207 5.39-1.121 10.683-2.953 15.664-5.477 4.984-2.53 9.688-5.712 13.906-9.495 4.219-3.787 7.99-8.146 11.125-12.967 3.137-4.82 5.682-10.084 7.484-15.639 1.801-5.543 2.906-11.362 3.213-17.276 0.307-5.906-0.144-11.9-1.396-17.764-1.258-5.87-3.271-11.607-6.043-17.021-2.768-5.412-6.258-10.506-10.395-15.083-4.135-4.565-8.887-8.63-14.137-12.016-5.247-3.387-10.966-6.116-16.988-8.049-6.025-1.93-12.336-3.103-18.741-3.41-6.399-0.301-12.879 0.212-19.226 1.597-6.342 1.385-12.547 3.587-18.387 6.602-5.84 3.023-11.323 6.805-16.24 11.293-4.921 4.485-9.291 9.625-12.92 15.303-3.631 5.677-6.554 11.848-8.611 18.354-2.059 6.497-3.292 13.301-3.602 20.195-0.304 6.901 0.273 13.864 1.785 20.688 1.512 6.815 3.904 13.479 7.171 19.745 3.261 6.269 7.352 12.147 12.184 17.41 4.84 5.271 10.37 9.935 16.475 13.813 6.102 3.88 12.732 6.989 19.71 9.178 6.982 2.188 14.271 3.48 21.659 3.79 7.391 0.311 14.852-0.338 22.146-1.976 7.3-1.641 14.412-4.225 21.109-7.73 6.693-3.51 12.967-7.896 18.582-13.08 5.615-5.185 10.586-11.115 14.707-17.642 4.125-6.53 7.426-13.619 9.736-21.073 2.315-7.457 3.682-15.242 3.983-23.122 0.31-7.883-0.396-15.832-2.168-23.607-1.764-7.768-4.537-15.338-8.297-22.462-3.754-7.122-8.443-13.786-13.979-19.755-5.527-5.959-11.851-11.23-18.812-15.604-6.959-4.372-14.5-7.86-22.434-10.305-7.933-2.441-16.201-3.87-24.58-4.179-8.374-0.31-16.814 0.468-25.063 2.362-8.251 1.896-16.28 4.857-23.831 8.859-7.55 4.002-14.604 9.001-20.911 14.88-6.316 5.88-11.895 12.587-16.509 19.977-4.619 7.387-8.295 15.382-10.864 23.792-2.574 8.408-4.063 17.171-4.371 26.04-0.305 8.866 0.533 17.808 2.557 26.523 2.019 8.728 5.17 17.216 9.422 25.192 4.25 7.978 9.543 15.427 15.771 22.081 6.232 6.663 13.338 12.545 21.146 17.399 7.812 4.866 16.273 8.736 25.154 11.434 8.885 2.697 18.136 4.249 27.499 4.56 9.359 0.311 18.785-0.591 27.988-2.741 9.201-2.15 18.146-5.49 26.551-9.986 8.4-4.497 16.242-10.094 23.254-16.67 7.008-6.576 13.188-14.078 18.297-22.313 5.113-8.241 9.168-17.162 11.992-26.516 2.824-9.361 4.446-19.109 4.752-28.967 0.309-9.855-0.662-19.765-2.938-29.442-2.272-9.678-5.81-19.085-10.552-27.909-4.744-8.832-10.641-17.064-17.563-24.426-6.926-7.359-14.814-13.839-23.484-19.19-8.664-5.357-18.041-9.607-27.879-12.562-9.836-2.953-20.07-4.638-30.42-4.945-10.351-0.309-20.75 0.723-30.904 3.13-10.156 2.406-20.01 6.126-29.271 11.115-9.263 4.99-17.881 11.187-25.591 18.459-7.708 7.282-14.485 15.56-20.094 24.655-5.602 9.098-10.036 18.927-13.117 29.239-3.079 10.313-4.829 21.033-5.139 31.875-0.303 10.843 0.794 21.738 3.324 32.369 2.529 10.633 6.443 20.944 11.679 30.632s11.732 18.698 19.358 26.766c7.625 8.058 16.299 15.137 25.82 20.979 9.52 5.854 19.807 10.481 30.598 13.689 10.789 3.209 22.003 5.016 33.338 5.321 11.336 0.311 22.721-0.854 33.834-3.509 11.104-2.661 21.877-6.762 31.988-12.242 10.108-5.482 19.521-12.276 27.926-20.258 8.41-7.969 15.789-17.041 21.889-26.98 6.098-9.953 10.904-20.696 14.246-31.963 3.33-11.27 5.213-22.976 5.521-34.806 0.309-11.829-0.916-23.702-3.703-35.286-2.783-11.582-7.076-22.813-12.81-33.347-5.729-10.543-12.821-20.346-21.146-29.1-8.32-8.753-17.783-16.439-28.158-22.777-10.377-6.346-21.574-11.354-33.316-14.817-11.745-3.456-23.938-5.402-36.265-5.711-12.319-0.31-24.682 0.985-36.745 3.896-12.063 2.917-23.742 7.396-34.713 13.373-10.965 5.977-21.161 13.381-30.268 22.046-9.101 8.674-17.083 18.521-23.677 29.327-6.585 10.797-11.776 22.461-15.374 34.678-3.588 12.219-5.598 24.902-5.905 37.721-0.304 12.816 1.05 25.67 4.092 38.213 3.039 12.535 7.712 24.674 13.937 36.069 6.224 11.392 13.922 21.979 22.945 31.437 9.018 9.448 19.261 17.735 30.49 24.565 11.23 6.841 23.344 12.22 36.043 15.938 12.694 3.721 25.872 5.791 39.178 6.101 13.313 0.312 26.657-1.107 39.668-4.283 13.016-3.164 25.615-8.021 37.438-14.49 11.82-6.473 22.802-14.477 32.601-23.846 9.801-9.36 18.389-20.001 25.475-31.654 7.078-11.661 12.648-24.232 16.496-37.4 3.85-13.181 5.986-26.845 6.289-40.646 0.311-13.796-1.172-27.638-4.469-41.123-3.297-13.496-8.349-26.552-15.066-38.795-6.717-12.252-15.02-23.624-24.731-33.771-9.721-10.155-20.746-19.041-32.83-26.367-12.082-7.334-25.109-13.09-38.766-17.065-13.646-3.977-27.804-6.179-42.103-6.487-14.288-0.31-28.621 1.242-42.584 4.672-13.969 3.421-27.482 8.656-40.157 15.62-12.671 6.965-24.439 15.566-34.938 25.634-10.499 10.067-19.685 21.493-27.265 33.999-7.571 12.511-13.521 25.996-17.625 40.127-4.104 14.121-6.369 28.772-6.678 43.556-0.304 14.791 1.309 29.609 4.861 44.049 3.553 14.446 8.979 28.42 16.188 41.521 7.212 13.1 16.114 25.255 26.53 36.104 10.414 10.853 22.226 20.337 35.166 28.155 12.941 7.827 26.881 13.964 41.484 18.192 14.597 4.23 29.741 6.56 45.018 6.867 15.286 0.309 30.592-1.365 45.512-5.052 14.916-3.678 29.349-9.29 42.877-16.748 13.531-7.457 26.078-16.67 37.273-27.425 11.201-10.764 20.984-22.973 29.06-36.336 8.065-13.372 14.396-27.769 18.756-42.852 4.356-15.072 6.754-30.702 7.059-46.48 0.307-15.771-1.434-31.576-5.242-46.967-3.807-15.392-9.611-30.279-17.313-44.234-7.705-13.962-17.214-26.903-28.322-38.451-11.111-11.54-23.713-21.632-37.504-29.945-13.791-8.321-28.65-14.836-44.203-19.322-15.555-4.486-31.674-6.945-47.946-7.255-16.264-0.309-32.554 1.498-48.425 5.438-15.872 3.932-31.218 9.927-45.601 17.877-14.382 7.951-27.72 17.763-39.609 29.222-11.893 11.46-22.285 24.453-30.854 38.673-8.56 14.22-15.269 29.529-19.879 45.565-4.613 16.025-7.14 32.642-7.447 49.399-0.306 16.768 1.568 33.542 5.633 49.895 4.059 16.343 10.242 32.146 18.44 46.957 8.197 14.811 18.309 28.534 30.11 40.777 11.813 12.244 25.198 22.938 39.845 31.743 14.646 8.813 30.421 15.707 46.923 20.45 16.512 4.742 33.612 7.326 50.862 7.634 17.256 0.312 34.53-1.632 51.354-5.815 16.821-4.188 33.077-10.562 48.317-19.006 15.236-8.442 29.354-18.854 41.951-31.013 12.588-12.153 23.58-25.933 32.646-41.009 9.053-15.072 16.141-31.312 21.006-48.288 4.869-16.985 7.521-34.582 7.828-52.326 0.307-17.745-1.693-35.508-6.017-52.813-4.315-17.295-10.877-34.008-19.565-49.672-8.688-15.665-19.402-30.185-31.91-43.124-12.506-12.94-26.677-24.233-42.179-33.532-15.5-9.31-32.188-16.582-49.646-21.58-17.459-4.998-35.543-7.713-53.787-8.021-18.236-0.31-36.489 1.763-54.265 6.206-17.779 4.441-34.951 11.194-51.045 20.134-16.092 8.938-30.997 19.947-44.281 32.809-13.293 12.854-24.891 27.415-34.439 43.345-9.548 15.929-17.014 33.074-22.135 51.005-5.121 17.938-7.906 36.512-8.215 55.243-0.305 18.731 1.824 37.481 6.397 55.729 4.574 18.255 11.514 35.887 20.698 52.403 9.182 16.521 20.495 31.813 33.699 45.449 13.206 13.638 28.164 25.537 44.517 35.33 16.352 9.806 33.955 17.454 52.369 22.709 18.41 5.245 37.474 8.095 56.698 8.399 19.228 0.31 38.46-1.887 57.193-6.583 18.729-4.708 36.813-11.83 53.762-21.263 16.943-9.435 32.635-21.053 46.623-34.602 13.986-13.55 26.186-28.905 36.229-45.681 10.041-16.784 17.887-34.847 23.264-53.736 5.377-18.882 8.291-38.44 8.596-58.161 0.311-19.72-1.949-39.438-6.779-58.646-4.828-19.209-12.146-37.756-21.824-55.121-9.676-17.373-21.594-33.461-35.493-47.795-13.9-14.333-29.642-26.832-46.854-37.129-17.207-10.287-35.723-18.317-55.09-23.826-19.367-5.501-39.412-8.479-59.625-8.789-20.213-0.309-40.425 2.02-60.11 6.973-19.679 4.964-38.68 12.466-56.479 22.392-17.803 9.926-34.278 22.143-48.96 36.388-14.683 14.254-27.484 30.386-38.023 48.024-10.534 17.639-18.759 36.608-24.392 56.452-5.633 19.842-8.674 40.372-8.982 61.078-0.304 20.708 2.084 41.413 7.166 61.573 5.087 20.16 12.782 39.615 22.955 57.845 10.164 18.229 22.691 35.095 37.287 50.133 14.599 15.028 31.127 28.128 49.188 38.918 18.062 10.779 37.488 19.189 57.808 24.944 20.32 5.767 41.348 8.868 62.543 9.178 21.202 0.309 42.401-2.145 63.034-7.354 20.635-5.22 40.553-13.1 59.205-23.521 18.653-10.419 35.914-23.233 51.295-38.188 15.381-14.94 28.791-31.866 39.817-50.353 11.025-18.494 19.634-38.381 25.521-59.178 5.887-20.794 7.209-24.704 9.358-46.396" fill="none" opacity=".5" stroke="#FFFFE3" stroke-miterlimit="10" stroke-width=".8762"/>
</g>
<g fill="#ffb" stroke="#ff0" stroke-width=".44">
<circle id="l7" opacity="0.25" cx="350.02" cy="359.46" r="5.5"/>
<circle id="l10" opacity="0.25" cx="365.6" cy="342.21" r="5.5"/>
<circle id="l26" opacity="0.25" cx="334.68" cy="380.52" r="5.5"/>
<circle id="l31" opacity="0.25" cx="374.63" cy="371.74" r="5.5"/>
<circle id="l32" opacity="0.25" cx="380.36" cy="365.36" r="5.5"/>
<circle id="l33" opacity="0.25" cx="384.7" cy="357.99" r="5.5"/>
<circle id="l34" opacity="0.25" cx="387.51" cy="349.91" r="5.5"/>
<circle id="l38" opacity="0.25" cx="382.84" cy="316.71" r="5.5"/>
<circle id="l41" opacity="0.25" cx="364.95" cy="298.65" r="5.5"/>
<circle id="l43" opacity="0.25" cx="348.92" cy="292.78" r="5.5"/>
<circle id="l45" opacity="0.25" cx="331.55" cy="291.98" r="5.5"/>
<circle id="l48" opacity="0.25" cx="308.43" cy="302.68" r="5.5"/>
<circle id="l63" opacity="0.25" cx="332.38" cy="402.7" r="5.5"/>
<circle id="l72" opacity="0.25" cx="399.8" cy="376.87" r="5.5"/>
<circle id="l74" opacity="0.25" cx="407.51" cy="361.6" r="5.5"/>
<circle id="l84" opacity="0.25" cx="384.4" cy="284.66" r="5.5"/>
<circle id="l85" opacity="0.25" cx="377.32" cy="279.8" r="5.5"/>
<circle id="l90" opacity="0.25" cx="336.33" cy="269.54" r="5.5"/>
<circle id="l92" opacity="0.25" cx="319.44" cy="272.35" r="5.5"/>
<circle id="l98" opacity="0.25" cx="278.42" cy="301.8" r="5.5"/>
<circle id="l101" opacity="0.25" cx="267.44" cy="324.95" r="5.5"/>
<circle id="l106" opacity="0.25" cx="266.81" cy="367.07" r="5.5"/>
<circle id="l110" opacity="0.25" cx="282.91" cy="397.55" r="5.5"/>
<circle id="l114" opacity="0.25" cx="309.58" cy="418.74" r="5.5"/>
<circle id="l121" opacity="0.25" cx="368.06" cy="424.95" r="5.5"/>
<circle id="l126" opacity="0.25" cx="405.38" cy="404.68" r="5.5"/>
<circle id="l128" opacity="0.25" cx="416.76" cy="391.91" r="5.5"/>
<circle id="l132" opacity="0.25" cx="431.19" cy="361" r="5.5"/>
<circle id="l135" opacity="0.25" cx="433.88" cy="335.97" r="5.5"/>
<circle id="l139" opacity="0.25" cx="425.97" cy="302.28" r="5.5"/>
<circle id="l140" opacity="0.25" cx="422.12" cy="294.61" r="5.5"/>
<circle id="l142" opacity="0.25" cx="412.39" cy="280.52" r="5.5"/>
<circle id="l144" opacity="0.25" cx="400.23" cy="268.46" r="5.5"/>
<circle id="l145" opacity="0.25" cx="393.36" cy="263.3" r="5.5"/>
<circle id="l147" opacity="1.0" cx="378.39" cy="254.99" r="5.5"/>
<circle id="l148" opacity="0.25" cx="370.38" cy="251.88" r="5.5"/>
<circle id="l151" opacity="0.25" cx="345.17" cy="247.04" r="5.5"/>
<circle id="l152" opacity="0.5" cx="336.61" cy="246.96" r="5.5"/>
<circle id="l154" opacity="0.25" cx="319.88" cy="248.23" r="5.5"/>
<circle id="l159" opacity="0.25" cx="280.99" cy="266.92" r="5.5"/>
<circle id="l163" opacity="0.5" cx="257.83" cy="292.04" r="5.5"/>
<circle id="l164" opacity="0.25" cx="253.52" cy="299.43" r="5.5"/>
<circle id="l166" opacity="0.25" cx="246.33" cy="314.97" r="5.5"/>
<circle id="l169" opacity="0.25" cx="241.93" cy="340.76" r="5.5"/>
<circle id="l172" opacity="0.25" cx="243.8" cy="366.06" r="5.5"/>
<circle id="l173" opacity="0.75" cx="245.8" cy="374.4" r="5.5"/>
<circle id="l174" opacity="0.25" cx="247.98" cy="382.64" r="5.5"/>
<circle id="l175" opacity="0.25" cx="251.28" cy="390.93" r="5.5"/>
<circle id="l178" opacity="0.25" cx="265.66" cy="412.07" r="5.5"/>
<circle id="l179" opacity="0.25" cx="271.41" cy="418.45" r="5.5"/>
<circle id="l183" opacity="0.25" cx="298.95" cy="438.64" r="5.5"/>
<circle id="l184" opacity="0.25" cx="307.21" cy="442.72" r="5.5"/>
<circle id="l190" opacity="0.25" cx="357.18" cy="449.65" r="5.5"/>
<circle id="l191" opacity="0.25" cx="365.87" cy="448.69" r="5.5"/>
<circle id="l192" opacity="0.25" cx="374.08" cy="446.68" r="5.5"/>
<circle id="l197" opacity="0.25" cx="412.43" cy="428.14" r="5.5"/>
<circle id="l202" opacity="0.25" cx="440.83" cy="396.32" r="5.5"/>
<circle id="l203" opacity="0.25" cx="444.77" cy="389.2" r="5.5"/>
<circle id="l205" opacity="0.25" cx="451.28" cy="372.85" r="5.5"/>
<circle id="l210" opacity="0.25" cx="456.06" cy="330.51" r="5.5"/>
<circle id="l212" opacity="0.25" cx="453.43" cy="313.54" r="5.5"/>
<circle id="l215" opacity="0.25" cx="444.82" cy="289.36" r="5.5"/>
<circle id="l216" opacity="0.25" cx="440.77" cy="281.8" r="5.5"/>
<circle id="l222" opacity="0.25" cx="405.88" cy="244.54" r="5.5"/>
<circle id="l223" opacity="0.25" cx="398.6" cy="239.99" r="5.5"/>
<circle id="l225" opacity="0.25" cx="383.17" cy="232.55" r="5.5"/>
<circle id="l226" opacity="0.25" cx="375.06" cy="229.69" r="5.5"/>
<circle id="l229" opacity="0.25" cx="341.28" cy="224.35" r="5.5"/>
<circle id="l235" opacity="0.25" cx="299.24" cy="231.52" r="5.5"/>
<circle id="l237" opacity="0.25" cx="283.56" cy="238.52" r="5.5"/>
<circle id="l241" opacity="0.25" cx="256.01" cy="258.77" r="5.5"/>
<circle id="l243" opacity="0.25" cx="244.66" cy="271.59" r="5.5"/>
<circle id="l244" opacity="0.25" cx="239.67" cy="278.59" r="5.5"/>
<circle id="l248" opacity="0.25" cx="224.99" cy="309.49" r="5.5"/>
<circle id="l250" opacity="0.25" cx="221.02" cy="326.15" r="5.5"/>
<circle id="l251" opacity="0.5" cx="219.9" cy="334.66" r="5.5"/>
<circle id="l252" opacity="0.5" cx="218.43" cy="342.87" r="5.5"/>
<circle id="l255" opacity="0.25" cx="221.37" cy="368.84" r="5.5"/>
<circle id="l259" opacity="0.25" cx="232.06" cy="401.34" r="5.5"/>
<circle id="l262" opacity="0.25" cx="245.63" cy="423.14" r="5.5"/>
<circle id="l269" opacity="0.5" cx="292.05" cy="460.38" r="5.5"/>
<circle id="l270" opacity="0.25" cx="299.93" cy="463.78" r="5.5"/>
<circle id="l273" opacity="0.25" cx="324.66" cy="470.72" r="5.5"/>
<circle id="l275" opacity="0.25" cx="341.73" cy="472.57" r="5.5"/>
<circle id="l276" opacity="0.25" cx="350.3" cy="472.64" r="5.5"/>
<circle id="l277" opacity="0.25" cx="358.85" cy="472.15" r="5.5"/>
<circle id="l280" opacity="0.25" cx="384.1" cy="467.31" r="5.5"/>
<circle id="l282" opacity="0.25" cx="400.18" cy="461.38" r="5.5"/>
<circle id="l284" opacity="0.25" cx="415.36" cy="453.4" r="5.5"/>
<circle id="l287" opacity="0.25" cx="435.88" cy="437.91" r="5.5"/>
<circle id="l290" opacity="0.25" cx="453" cy="418.77" r="5.5"/>
<circle id="l296" opacity="0.25" cx="474.01" cy="372.85" r="5.5"/>
<circle id="l301" opacity="0.25" cx="478.63" cy="329.94" r="5.5"/>
<circle id="l302" opacity="0.25" cx="477.78" cy="321.42" r="5.5"/>
<circle id="l304" opacity="0.25" cx="474.08" cy="304.8" r="5.5"/>
<circle id="l306" opacity="0.25" cx="469.04" cy="288.32" r="5.5"/>
<circle id="l308" opacity="0.25" cx="461.62" cy="272.83" r="5.5"/>
<circle id="l314" opacity="0.25" cx="428.83" cy="233.57" r="5.5"/>
<circle id="l315" opacity="0.25" cx="422.04" cy="228.32" r="5.5"/>
<circle id="l317" opacity="0.25" cx="407.32" cy="219.16" r="5.5"/>
<circle id="l322" opacity="0.25" cx="367.42" cy="204.5" r="5.5"/>
<circle id="l324" opacity="0.25" cx="350.42" cy="202.18" r="5.5"/>
<circle id="l325" opacity="0.25" cx="341.84" cy="201.8" r="5.5"/>
<circle id="l327" opacity="0.25" cx="324.63" cy="202.38" r="5.5"/>
<circle id="l332" opacity="0.25" cx="283.42" cy="213.55" r="5.5"/>
<circle id="l335" opacity="0.25" cx="260.86" cy="225.88" r="5.5"/>
<circle id="l337" opacity="0.25" cx="247.2" cy="236.25" r="5.5"/>
<circle id="l338" opacity="0.25" cx="240.85" cy="242.04" r="5.5"/>
<circle id="l341" opacity="0.25" cx="224.07" cy="261.48" r="5.5"/>
<circle id="l343" opacity="0.25" cx="214.91" cy="275.99" r="5.5"/>
<circle id="l345" opacity="0.25" cx="207.53" cy="291.45" r="5.5"/>
<circle id="l350" opacity="0.25" cx="197.4" cy="332.98" r="5.5"/>
<circle id="l357" opacity="0.5" cx="204.09" cy="392.25" r="5.5"/>
<circle id="l359" opacity="0.25" cx="210.36" cy="408.21" r="5.5"/>
<circle id="l362" opacity="0.25" cx="223.1" cy="430.53" r="5.5"/>
<circle id="l363" opacity="0.25" cx="228.18" cy="437.44" r="5.5"/>
<circle id="l369" opacity="0.25" cx="266.16" cy="471.84" r="5.5"/>
<circle id="l371" opacity="0.25" cx="281.37" cy="480.79" r="5.5"/>
<circle id="l373" opacity="0.25" cx="296.98" cy="486.74" r="5.5"/>
<circle id="l376" opacity="0.25" cx="321.88" cy="493.13" r="5.5"/>
<circle id="l379" opacity="0.25" cx="347.65" cy="495.02" r="5.5"/>
<circle id="l381" opacity="0.25" cx="364.62" cy="494.23" r="5.5"/>
<circle id="l386" opacity="0.25" cx="405.99" cy="483.44" r="5.5"/>
<circle id="l391" opacity="0.25" cx="442.8" cy="461.67" r="5.5"/>
<circle id="l392" opacity="0.25" cx="449.36" cy="456.13" r="5.5"/>
<circle id="l394" opacity="0.25" cx="461.51" cy="444.03" r="5.5"/>
<circle id="l395" opacity="0.25" cx="467.06" cy="437.5" r="5.5"/>
<circle id="l398" opacity="0.25" cx="481.46" cy="416.18" r="5.5"/>
<circle id="l399" opacity="0.25" cx="485.44" cy="408.59" r="5.5"/>
<circle id="l402" opacity="0.25" cx="494.85" cy="384.65" r="5.5"/>
<circle id="l409" opacity="0.25" cx="500.9" cy="325.28" r="5.5"/>
<circle id="l410" opacity="0.25" cx="500.11" cy="316.88" r="5.5"/>
<circle id="l411" opacity="0.25" cx="498.46" cy="308.3" r="5.5"/>
<circle id="l414" opacity="0.25" cx="491.4" cy="283.58" r="5.5"/>
<circle id="l417" opacity="0.25" cx="480.45" cy="260.3" r="5.5"/>
<circle id="l420" opacity="0.25" cx="465.94" cy="239.1" r="5.5"/>
<circle id="l422" opacity="0.25" cx="454.43" cy="226.36" r="5.5"/>
<circle id="l423" opacity="0.5" cx="448.2" cy="220.48" r="5.5"/>
<circle id="l431" opacity="0.25" cx="388.99" cy="186.78" r="5.5"/>
<circle id="l433" opacity="0.25" cx="372.4" cy="182.49" r="5.5"/>
<circle id="l437" opacity="0.25" cx="338.28" cy="179.24" r="5.5"/>
<circle id="l441" opacity="0.25" cx="304.26" cy="183.16" r="5.5"/>
<circle id="l442" opacity="0.25" cx="295.93" cy="185.24" r="5.5"/>
<circle id="l444" opacity="0.25" cx="279.86" cy="190.6" r="5.5"/>
<circle id="l445" opacity="0.25" cx="271.79" cy="194.03" r="5.5"/>
<circle id="l453" opacity="0.25" cx="216.9" cy="234.43" r="5.5"/>
<circle id="l456" opacity="0.25" cx="201.28" cy="254.86" r="5.5"/>
<circle id="l457" opacity="0.25" cx="196.79" cy="262.18" r="5.5"/>
<circle id="l461" opacity="0.5" cx="182.77" cy="293.42" r="5.5"/>
<circle id="l462" opacity="0.25" cx="180.28" cy="301.65" r="5.5"/>
<circle id="l465" opacity="0.25" cx="175.36" cy="326.86" r="5.5"/>
<circle id="l467" opacity="0.25" cx="174.24" cy="344.01" r="5.5"/>
<circle id="l468" opacity="0.25" cx="174.29" cy="352.49" r="5.5"/>
<circle id="l474" opacity="0.25" cx="186.95" cy="410.96" r="5.5"/>
<circle id="l479" opacity="0.25" cx="203.07" cy="441.19" r="5.5"/>
<circle id="l480" opacity="0.25" cx="208.01" cy="448.2" r="5.5"/>
<circle id="l481" opacity="0.25" cx="213.3" cy="454.95" r="5.5"/>
<circle id="l482" opacity="0.25" cx="218.93" cy="461.44" r="5.5"/>
<circle id="l485" opacity="0.25" cx="237.54" cy="478.99" r="5.5"/>
<circle id="l486" opacity="0.25" cx="244.42" cy="484.32" r="5.5"/>
<circle id="l487" opacity="0.25" cx="251.48" cy="489.21" r="5.5"/>
<circle id="l488" opacity="0.25" cx="258.77" cy="493.76" r="5.5"/>
<circle id="l489" opacity="0.25" cx="266.26" cy="497.92" r="5.5"/>
<circle id="l490" opacity="0.25" cx="273.94" cy="501.71" r="5.5"/>
<circle id="l493" opacity="0.25" cx="298.04" cy="510.76" r="5.5"/>
<circle id="l495" opacity="0.25" cx="314.83" cy="514.55" r="5.5"/>
<circle id="l496" opacity="0.25" cx="323.15" cy="516.15" r="5.5"/>
<circle id="l497" opacity="0.25" cx="331.68" cy="517.12" r="5.5"/>
<circle id="l498" opacity="0.25" cx="340.26" cy="517.67" r="5.5"/>
<circle id="l502" opacity="0.25" cx="374.44" cy="515.66" r="5.5"/>
<circle id="l503" opacity="0.25" cx="382.89" cy="514.11" r="5.5"/>
<circle id="l506" opacity="0.25" cx="407.6" cy="507.03" r="5.5"/>
<circle id="l509" opacity="0.25" cx="431.06" cy="496.42" r="5.5"/>
<circle id="l513" opacity="0.75" cx="459.42" cy="477.24" r="5.5"/>
<circle id="l515" opacity="0.25" cx="472.1" cy="465.66" r="5.5"/>
<circle id="l518" opacity="0.25" cx="488.85" cy="446.18" r="5.5"/>
<circle id="l519" opacity="0.75" cx="493.8" cy="439.16" r="5.5"/>
<circle id="l524" opacity="0.25" cx="513.17" cy="401.01" r="5.5"/>
<circle id="l526" opacity="0.25" cx="518.28" cy="384.62" r="5.5"/>
<circle id="l530" opacity="0.25" cx="523.71" cy="350.8" r="5.5"/>
<circle id="l533" opacity="0.25" cx="523.52" cy="325.08" r="5.5"/>
<circle id="l534" opacity="0.25" cx="522.64" cy="316.56" r="5.5"/>
<circle id="l539" opacity="0.25" cx="512.29" cy="275.03" r="5.5"/>
<circle id="l541" opacity="0.25" cx="505.46" cy="259.29" r="5.5"/>
<circle id="l545" opacity="0.25" cx="487.52" cy="230.1" r="5.5"/>
<circle id="l547" opacity="0.25" cx="476.58" cy="216.87" r="5.5"/>
<circle id="l553" opacity="0.25" cx="437.06" cy="184.13" r="5.5"/>
<circle id="l556" opacity="0.25" cx="414.3" cy="172.21" r="5.5"/>
<circle id="l557" opacity="0.25" cx="406.36" cy="168.96" r="5.5"/>
<circle id="l558" opacity="0.25" cx="398.28" cy="166.06" r="5.5"/>
<circle id="l561" opacity="0.25" cx="373.36" cy="159.7" r="5.5"/>
<circle id="l565" opacity="0.25" cx="339.21" cy="156.67" r="5.5"/>
<circle id="l567" opacity="0.25" cx="322.1" cy="157.52" r="5.5"/>
<circle id="l569" opacity="0.25" cx="305.12" cy="159.94" r="5.5"/>
<circle id="l570" opacity="0.25" cx="296.71" cy="161.74" r="5.5"/>
<circle id="l572" opacity="0.25" cx="280.24" cy="166.47" r="5.5"/>
<circle id="l573" opacity="0.25" cx="272.18" cy="169.39" r="5.5"/>
<circle id="l574" opacity="0.25" cx="264.26" cy="172.68" r="5.5"/>
<circle id="l576" opacity="0.25" cx="248.88" cy="180.35" r="5.5"/>
<circle id="l578" opacity="0.25" cx="234.31" cy="189.36" r="5.5"/>
<circle id="l579" opacity="0.25" cx="227.35" cy="194.35" r="5.5"/>
<circle id="l580" opacity="0.25" cx="220.6" cy="199.66" r="5.5"/>
<circle id="l581" opacity="0.25" cx="213.92" cy="205.14" r="5.5"/>
<circle id="l582" opacity="0.25" cx="207.87" cy="211.19" r="5.5"/>
<circle id="l585" opacity="0.25" cx="190.9" cy="230.48" r="5.5"/>
<circle id="l588" opacity="0.25" cx="176.67" cy="251.93" r="5.5"/>
<circle id="l590" opacity="0.25" cx="168.86" cy="267.18" r="5.5"/>
<circle id="l596" opacity="0.25" cx="153.77" cy="316.12" r="5.5"/>
<circle id="l597" opacity="0.25" cx="152.89" cy="324.81" r="5.5"/>
<circle id="l598" opacity="0.25" cx="152.11" cy="333.36" r="5.5"/>
<circle id="l601" opacity="0.25" cx="152.08" cy="359.09" r="5.5"/>
<circle id="l605" opacity="0.25" cx="157.38" cy="392.97" r="5.5"/>
<circle id="l606" opacity="0.25" cx="159.24" cy="401.39" r="5.5"/>
<circle id="l607" opacity="0.5" cx="162.25" cy="409.39" r="5.5"/>
<circle id="l608" opacity="0.25" cx="164.72" cy="417.88" r="5.5"/>
<circle id="l611" opacity="0.25" cx="176.3" cy="440.68" r="5.5"/>
<circle id="l612" opacity="0.5" cx="180.65" cy="448.05" r="5.5"/>
<circle id="l613" opacity="0.5" cx="185.33" cy="455.24" r="5.5"/>
<circle id="l617" opacity="0.25" cx="207.09" cy="481.74" r="5.5"/>
<circle id="l619" opacity="0.25" cx="219.61" cy="493.43" r="5.5"/>
<circle id="l621" opacity="0.25" cx="233.13" cy="503.99" r="5.5"/>
<circle id="l627" opacity="0.25" cx="278.48" cy="528.03" r="5.5"/>
<circle id="l632" opacity="0.25" cx="319.99" cy="538.49" r="5.5"/>
<circle id="l637" opacity="0.25" cx="362.79" cy="539.74" r="5.5"/>
<circle id="l643" opacity="0.25" cx="413" cy="529.07" r="5.5"/>
<circle id="l648" opacity="0.5" cx="451.62" cy="510.56" r="5.5"/>
<circle id="l649" opacity="0.25" cx="458.8" cy="505.89" r="5.5"/>
<circle id="l654" opacity="0.25" cx="491.43" cy="478.14" r="5.5"/>
<circle id="l655" opacity="0.25" cx="497.18" cy="471.8" r="5.5"/>
<circle id="l656" opacity="0.25" cx="502.67" cy="465.22" r="5.5"/>
<circle id="l658" opacity="0.25" cx="512.79" cy="451.36" r="5.5"/>
<circle id="l664" opacity="0.25" cx="535.58" cy="405.35" r="5.5"/>
<circle id="l665" opacity="0.25" cx="538.2" cy="397.17" r="5.5"/>
<circle id="l666" opacity="0.25" cx="540.48" cy="388.9" r="5.5"/>
<circle id="l667" opacity="0.25" cx="542.4" cy="380.55" r="5.5"/>
<circle id="l669" opacity="0.25" cx="545.18" cy="363.63" r="5.5"/>
<circle id="l673" opacity="0.25" cx="546.4" cy="329.36" r="5.5"/>
<circle id="l675" opacity="0.25" cx="544.84" cy="312.3" r="5.5"/>
<circle id="l677" opacity="0.25" cx="541.85" cy="295.39" r="5.5"/>
<circle id="l678" opacity="0.25" cx="539.82" cy="287.04" r="5.5"/>
<circle id="l679" opacity="0.5" cx="537.44" cy="278.81" r="5.5"/>
<circle id="l682" opacity="0.25" cx="528.29" cy="254.79" r="5.5"/>
<circle id="l684" opacity="0.25" cx="520.51" cy="239.47" r="5.5"/>
<circle id="l685" opacity="0.25" cx="516.16" cy="232.08" r="5.5"/>
<circle id="l686" opacity="0.25" cx="511.51" cy="224.89" r="5.5"/>
<circle id="l690" opacity="0.25" cx="490" cy="198.18" r="5.5"/>
<circle id="l692" opacity="0.25" cx="477.66" cy="186.28" r="5.5"/>
<circle id="l696" opacity="0.25" cx="450.21" cy="165.74" r="5.5"/>
<circle id="l697" opacity="0.25" cx="442.84" cy="161.33" r="5.5"/>
<circle id="l698" opacity="0.25" cx="435.31" cy="157.25" r="5.5"/>
<circle id="l704" opacity="0.25" cx="387.12" cy="139.52" r="5.5"/>
<circle id="l706" opacity="0.25" cx="370.29" cy="136.32" r="5.5"/>
<circle id="l707" opacity="0.25" cx="361.78" cy="135.25" r="5.5"/>
<circle id="l711" opacity="0.25" cx="327.49" cy="134.47" r="5.5"/>
<circle id="l714" opacity="0.25" cx="301.97" cy="137.58" r="5.5"/>
<circle id="l716" opacity="0.5" cx="285.22" cy="141.39" r="5.5"/>
<circle id="l717" opacity="0.25" cx="276.99" cy="143.8" r="5.5"/>
<circle id="l719" opacity="0.25" cx="260.87" cy="149.61" r="5.5"/>
<circle id="l726" opacity="0.25" cx="209.22" cy="179.85" r="5.5"/>
<circle id="l727" opacity="0.25" cx="202.61" cy="185.32" r="5.5"/>
<circle id="l728" opacity="0.25" cx="196.23" cy="191.08" r="5.5"/>
<circle id="l738" opacity="0.25" cx="147.06" cy="260.66" r="5.5"/>
<circle id="l739" opacity="0.25" cx="143.78" cy="268.58" r="5.5"/>
<circle id="l741" opacity="0.25" cx="138.17" cy="284.81" r="5.5"/>
<circle id="l743" opacity="0.25" cx="133.9" cy="301.42" r="5.5"/>
<circle id="l745" opacity="0.25" cx="130.96" cy="318.3" r="5.5"/>
<circle id="l747" opacity="0.25" cx="129.38" cy="335.4" r="5.5"/>
<circle id="l750" opacity="0.25" cx="129.6" cy="361.12" r="5.5"/>
<circle id="l753" opacity="0.25" cx="132.89" cy="386.63" r="5.5"/>
<circle id="l755" opacity="0.25" cx="136.93" cy="403.61" r="5.5"/>
<circle id="l758" opacity="0.25" cx="145.04" cy="427.69" r="5.5"/>
<circle id="l759" opacity="0.25" cx="148.44" cy="435.56" r="5.5"/>
<circle id="l762" opacity="0.25" cx="160.48" cy="458.32" r="5.5"/>
<circle id="l764" opacity="0.25" cx="169.95" cy="472.6" r="5.5"/>
<circle id="l771" opacity="0.25" cx="211.31" cy="515.98" r="5.5"/>
<circle id="l772" opacity="0.25" cx="218.18" cy="521.03" r="5.5"/>
<circle id="l774" opacity="0.25" cx="232.46" cy="530.58" r="5.5"/>
<circle id="l776" opacity="0.25" cx="247.41" cy="538.98" r="5.5"/>
<circle id="l777" opacity="0.25" cx="255.11" cy="542.72" r="5.5"/>
<circle id="l780" opacity="0.25" cx="279.06" cy="552.13" r="5.5"/>
<circle id="l782" opacity="0.25" cx="295.58" cy="556.8" r="5.5"/>
<circle id="l783" opacity="0.25" cx="303.95" cy="558.64" r="5.5"/>
<circle id="l784" opacity="0.25" cx="312.38" cy="560.17" r="5.5"/>
<circle id="l786" opacity="0.25" cx="329.41" cy="562.21" r="5.5"/>
<circle id="l787" opacity="0.25" cx="337.99" cy="562.74" r="5.5"/>
<circle id="l788" opacity="0.25" cx="346.58" cy="562.92" r="5.5"/>
<circle id="l789" opacity="0.25" cx="355.15" cy="562.78" r="5.5"/>
<circle id="l792" opacity="0.25" cx="380.73" cy="560.34" r="5.5"/>
<circle id="l793" opacity="0.25" cx="389.19" cy="558.87" r="5.5"/>
<circle id="l796" opacity="0.25" cx="414.12" cy="552.49" r="5.5"/>
<circle id="l797" opacity="0.25" cx="422.24" cy="549.73" r="5.5"/>
<circle id="l799" opacity="0.25" cx="438.12" cy="543.27" r="5.5"/>
<circle id="l800" opacity="0.25" cx="445.88" cy="539.58" r="5.5"/>
<circle id="l801" opacity="0.25" cx="453.49" cy="535.59" r="5.5"/>
<circle id="l803" opacity="0.25" cx="468.18" cy="526.76" r="5.5"/>
<circle id="l804" opacity="0.5" cx="475.26" cy="521.93" r="5.5"/>
<circle id="l807" opacity="0.25" cx="495.33" cy="505.83" r="5.5"/>
<circle id="l809" opacity="0.25" cx="507.62" cy="493.85" r="5.5"/>
<circle id="l812" opacity="0.25" cx="524.23" cy="474.23" r="5.5"/>
<circle id="l813" opacity="0.25" cx="529.25" cy="467.27" r="5.5"/>
<circle id="l815" opacity="0.25" cx="538.49" cy="452.79" r="5.5"/>
<circle id="l816" opacity="0.5" cx="542.67" cy="445.31" r="5.5"/>
<circle id="l817" opacity="0.25" cx="546.57" cy="437.68" r="5.5"/>
<circle id="l818" opacity="0.25" cx="550.17" cy="429.9" r="5.5"/>
<circle id="l819" opacity="0.25" cx="553.48" cy="421.98" r="5.5"/>
<circle id="l820" opacity="0.25" cx="556.48" cy="413.94" r="5.5"/>
<circle id="l821" opacity="0.25" cx="558.95" cy="405.61" r="5.5"/>
<circle id="l822" opacity="0.25" cx="561.55" cy="397.53" r="5.5"/>
<circle id="l826" opacity="0.5" cx="567.86" cy="363.86" r="5.5"/>
<circle id="l827" opacity="0.25" cx="568.64" cy="355.31" r="5.5"/>
<circle id="l830" opacity="0.25" cx="568.99" cy="329.58" r="5.5"/>
<circle id="l832" opacity="0.25" cx="567.61" cy="312.5" r="5.5"/>
<circle id="l844" opacity="0.25" cx="532.98" cy="216.46" r="5.5"/>
<circle id="l846" opacity="0.25" cx="523.17" cy="202.41" r="5.5"/>
<circle id="l848" opacity="0.25" cx="512.31" cy="189.13" r="5.5"/>
<circle id="l849" opacity="0.25" cx="506.5" cy="182.79" r="5.5"/>
<circle id="l850" opacity="0.25" cx="500.46" cy="176.69" r="5.5"/>
<circle id="l851" opacity="0.25" cx="494.22" cy="170.83" r="5.5"/>
<circle id="l853" opacity="0.25" cx="481.09" cy="159.82" r="5.5"/>
<circle id="l855" opacity="0.25" cx="467.15" cy="149.8" r="5.5"/>
<circle id="l857" opacity="0.25" cx="452.48" cy="140.86" r="5.5"/>
<circle id="l858" opacity="0.25" cx="444.93" cy="136.82" r="5.5"/>
<circle id="l859" opacity="0.25" cx="437.23" cy="133.05" r="5.5"/>
<circle id="l860" opacity="0.25" cx="429.39" cy="129.58" r="5.5"/>
<circle id="l861" opacity="0.25" cx="421.43" cy="126.4" r="5.5"/>
<circle id="l863" opacity="0.25" cx="405.14" cy="120.93" r="5.5"/>
<circle id="l866" opacity="0.25" cx="380.11" cy="115.06" r="5.5"/>
<circle id="l870" opacity="0.5" cx="345.98" cy="111.62" r="5.5"/>
<circle id="l871" opacity="0.25" cx="337.4" cy="111.55" r="5.5"/>
<circle id="l872" opacity="0.25" cx="328.83" cy="111.8" r="5.5"/>
<circle id="l874" opacity="0.25" cx="311.76" cy="113.26" r="5.5"/>
<circle id="l879" opacity="0.25" cx="269.89" cy="122.38" r="5.5"/>
<circle id="l881" opacity="0.25" cx="253.75" cy="128.15" r="5.5"/>
<circle id="l882" opacity="0.25" cx="245.85" cy="131.48" r="5.5"/>
<circle id="l883" opacity="0.25" cx="238.07" cy="135.1" r="5.5"/>
<circle id="l884" opacity="0.5" cx="230.41" cy="139.02" r="5.5"/>
<circle id="l885" opacity="0.25" cx="222.92" cy="143.21" r="5.5"/>
<circle id="l886" opacity="0.25" cx="215.59" cy="147.67" r="5.5"/>
<circle id="l887" opacity="0.25" cx="208.44" cy="152.38" r="5.5"/>
<circle id="l888" opacity="0.25" cx="201.46" cy="157.36" r="5.5"/>
<circle id="l889" opacity="0.25" cx="194.67" cy="162.59" r="5.5"/>
<circle id="l895" opacity="0.25" cx="158.32" cy="198.9" r="5.5"/>
<circle id="l896" opacity="0.25" cx="153.08" cy="205.68" r="5.5"/>
<circle id="l904" opacity="0.25" cx="120.67" cy="265.91" r="5.5"/>
<circle id="l907" opacity="0.25" cx="113.23" cy="290.56" r="5.5"/>
<circle id="l908" opacity="0.25" cx="111.36" cy="298.93" r="5.5"/>
<circle id="l911" opacity="0.25" cx="107.57" cy="324.36" r="5.5"/>
<circle id="l912" opacity="0.25" cx="106.92" cy="332.92" r="5.5"/>
<circle id="l913" opacity="0.25" cx="106.1" cy="341.52" r="5.5"/>
<circle id="l914" opacity="0.25" cx="106.56" cy="350.09" r="5.5"/>
<circle id="l915" opacity="0.25" cx="106.85" cy="358.65" r="5.5"/>
<circle id="l916" opacity="0.25" cx="107.45" cy="367.2" r="5.5"/>
<circle id="l918" opacity="0.25" cx="109.56" cy="384.22" r="5.5"/>
<circle id="l919" opacity="0.25" cx="111.08" cy="392.67" r="5.5"/>
<circle id="l920" opacity="0.25" cx="112.9" cy="401.07" r="5.5"/>
<circle id="l921" opacity="0.5" cx="115.03" cy="409.38" r="5.5"/>
<circle id="l923" opacity="0.75" cx="120.16" cy="425.73" r="5.5"/>
<circle id="l926" opacity="0.25" cx="130.04" cy="449.48" r="5.5"/>
<circle id="l929" opacity="0.25" cx="142.43" cy="472.05" r="5.5"/>
<circle id="l933" opacity="0.25" cx="162.55" cy="499.78" r="5.5"/>
<circle id="l934" opacity="0.25" cx="168.2" cy="506.26" r="5.5"/>
<circle id="l942" opacity="0.25" cx="220.85" cy="549.94" r="5.5"/>
<circle id="l950" opacity="0.25" cx="283.52" cy="577.4" r="5.5"/>
<circle id="l951" opacity="0.25" cx="291.98" cy="579.13" r="5.5"/>
<circle id="l952" opacity="0.25" cx="300.3" cy="580.88" r="5.5"/>
<circle id="l954" opacity="0.25" cx="317.28" cy="583.65" r="5.5"/>
<circle id="l957" opacity="0.25" cx="342.99" cy="585.45" r="5.5"/>
<circle id="l959" opacity="0.25" cx="360.11" cy="585.14" r="5.5"/>
<circle id="l960" opacity="0.25" cx="368.7" cy="584.55" r="5.5"/>
<circle id="l961" opacity="0.25" cx="377.19" cy="583.62" r="5.5"/>
<circle id="l963" opacity="0.25" cx="394.35" cy="580.95" r="5.5"/>
<circle id="l964" opacity="0.25" cx="402.53" cy="579.09" r="5.5"/>
<circle id="l965" opacity="0.25" cx="410.85" cy="576.98" r="5.5"/>
<circle id="l966" opacity="0.25" cx="418.91" cy="574.42" r="5.5"/>
<circle id="l967" opacity="0.25" cx="427.22" cy="571.9" r="5.5"/>
<circle id="l972" opacity="0.25" cx="466.29" cy="554.29" r="5.5"/>
<circle id="l974" opacity="0.25" cx="480.93" cy="545.38" r="5.5"/>
<circle id="l975" opacity="0.25" cx="488.01" cy="540.54" r="5.5"/>
<circle id="l976" opacity="0.25" cx="494.92" cy="535.47" r="5.5"/>
<circle id="l977" opacity="0.25" cx="501.65" cy="530.15" r="5.5"/>
<circle id="l978" opacity="0.25" cx="508.19" cy="524.59" r="5.5"/>
<circle id="l979" opacity="0.25" cx="514.54" cy="518.8" r="5.5"/>
<circle id="l980" opacity="0.25" cx="520.68" cy="512.8" r="5.5"/>
<circle id="l981" opacity="0.25" cx="526.6" cy="506.59" r="5.5"/>
<circle id="l982" opacity="0.25" cx="532.29" cy="500.19" r="5.5"/>
<circle id="l984" opacity="0.5" cx="543" cy="486.8" r="5.5"/>
<circle id="l987" opacity="0.25" cx="557.27" cy="465.36" r="5.5"/>
<circle id="l989" opacity="0.25" cx="565.49" cy="450.32" r="5.5"/>
<circle id="l993" opacity="0.25" cx="578.61" cy="418.88" r="5.5"/>
<circle id="l998" opacity="0.25" cx="588.74" cy="377.25" r="5.5"/>
<circle id="l1000" opacity="0.25" cx="590.9" cy="360.04" r="5.5"/>
</g>
<text x="84" y="600" fill="#FFFF99" font-family="'Roboto'" font-size="18" stroke="none" stroke-miterlimit="10" id="language">Swahili</text>
<g fill="#ffb" stroke="#ffb" stroke-miterlimit="10" stroke-width=".5">
<circle id="nav1" opacity="0.5" cx="87" cy="70" r="2.5"/>
<circle id="nav2" opacity="0.5" cx="97" cy="70" r="2.5"/>
<circle id="nav3" opacity="0.5" cx="107" cy="70" r="2.5"/>
<circle id="nav4" opacity="0.5" cx="117" cy="70" r="2.5"/>
<circle id="nav5" opacity="0.5" cx="127" cy="70" r="2.5"/>
<circle id="nav6" opacity="0.5" cx="137" cy="70" r="2.5"/>
<circle id="nav7" opacity="0.5" cx="147" cy="70" r="2.5"/>
<circle id="nav8" opacity="0.5" cx="157" cy="70" r="2.5"/>
<circle id="nav9" opacity="0.5" cx="167" cy="70" r="2.5"/>
<circle id="nav10" opacity="0.5" cx="177" cy="70" r="2.5"/>
<circle id="nav11" opacity="0.5" cx="187" cy="70" r="2.5"/>
<circle id="nav12" opacity="0.5" cx="197" cy="70" r="2.5"/>
<circle id="nav13" opacity="0.5" cx="207" cy="70" r="2.5"/>
<circle id="nav14" opacity="0.5" cx="217" cy="70" r="2.5"/>
<circle id="nav15" opacity="0.5" cx="227" cy="70" r="2.5"/>
<circle id="nav16" opacity="0.5" cx="237" cy="70" r="2.5"/>
<circle id="nav17" opacity="0.5" cx="247" cy="70" r="2.5"/>
<circle id="nav18" opacity="0.5" cx="257" cy="70" r="2.5"/>
<circle id="nav19" opacity="0.5" cx="267" cy="70" r="2.5"/>
<circle id="nav20" opacity="0.5" cx="277" cy="70" r="2.5"/>
<circle id="nav21" opacity="0.5" cx="287" cy="70" r="2.5"/>
<circle id="nav22" opacity="0.5" cx="297" cy="70" r="2.5"/>
<circle id="nav23" opacity="0.5" cx="307" cy="70" r="2.5"/>
<circle id="nav24" opacity="0.5" cx="317" cy="70" r="2.5"/>
<circle id="nav25" opacity="0.5" cx="327" cy="70" r="2.5"/>
<circle id="nav26" opacity="0.5" cx="337" cy="70" r="2.5"/>
<circle id="nav27" opacity="0.5" cx="347" cy="70" r="2.5"/>
<circle id="nav28" opacity="0.5" cx="357" cy="70" r="2.5"/>
<circle id="nav29" opacity="0.5" cx="367" cy="70" r="2.5"/>
<circle id="nav30" opacity="0.5" cx="377" cy="70" r="2.5"/>
<circle id="nav31" opacity="0.5" cx="387" cy="70" r="2.5"/>
<circle id="nav32" opacity="0.5" cx="397" cy="70" r="2.5"/>
<circle id="nav33" opacity="0.5" cx="407" cy="70" r="2.5"/>
<circle id="nav34" opacity="0.5" cx="417" cy="70" r="2.5"/>
<circle id="nav35" opacity="0.5" cx="427" cy="70" r="2.5"/>
<circle id="nav36" opacity="0.5" cx="437" cy="70" r="2.5"/>
<circle id="nav37" opacity="0.5" cx="447" cy="70" r="2.5"/>
<circle id="nav38" opacity="0.5" cx="457" cy="70" r="2.5"/>
<circle id="nav39" opacity="0.5" cx="467" cy="70" r="2.5"/>
<circle id="nav40" opacity="0.5" cx="477" cy="70" r="2.5"/>
<circle id="nav41" opacity="0.5" cx="487" cy="70" r="2.5"/>
<circle id="nav42" opacity="0.5" cx="497" cy="70" r="2.5"/>
<circle id="nav43" opacity="0.5" cx="507" cy="70" r="2.5"/>
<circle id="nav44" opacity="0.5" cx="517" cy="70" r="2.5"/>
<circle id="nav45" opacity="0.5" cx="527" cy="70" r="2.5"/>
<circle id="nav46" opacity="0.5" cx="537" cy="70" r="2.5"/>
<circle id="nav47" opacity="0.5" cx="547" cy="70" r="2.5"/>
<circle id="nav48" opacity="0.5" cx="557" cy="70" r="2.5"/>
<circle id="nav49" opacity="0.5" cx="567" cy="70" r="2.5"/>
<circle id="nav50" opacity="0.5" cx="577" cy="70" r="2.5"/>
<circle id="nav51" opacity="0.5" cx="587" cy="70" r="2.5"/>
<circle id="nav52" opacity="0.5" cx="597" cy="70" r="2.5"/>
<circle id="nav53" opacity="0.5" cx="87" cy="625" r="2.5"/>
<circle id="nav54" opacity="0.5" cx="97" cy="625" r="2.5"/>
<circle id="nav55" opacity="0.5" cx="107" cy="625" r="2.5"/>
<circle id="nav56" opacity="0.5" cx="117" cy="625" r="2.5"/>
<circle id="nav57" opacity="0.5" cx="127" cy="625" r="2.5"/>
<circle id="nav58" opacity="0.5" cx="137" cy="625" r="2.5"/>
<circle id="nav59" opacity="0.5" cx="147" cy="625" r="2.5"/>
<circle id="nav60" opacity="0.5" cx="157" cy="625" r="2.5"/>
<circle id="nav61" opacity="0.5" cx="167" cy="625" r="2.5"/>
<circle id="nav62" opacity="0.5" cx="177" cy="625" r="2.5"/>
<circle id="nav63" opacity="0.5" cx="187" cy="625" r="2.5"/>
<circle id="nav64" opacity="0.5" cx="197" cy="625" r="2.5"/>
<circle id="nav65" opacity="0.5" cx="207" cy="625" r="2.5"/>
<circle id="nav66" opacity="0.5" cx="217" cy="625" r="2.5"/>
<circle id="nav67" opacity="0.5" cx="227" cy="625" r="2.5"/>
<circle id="nav68" opacity="0.5" cx="237" cy="625" r="2.5"/>
<circle id="nav69" opacity="0.5" cx="247" cy="625" r="2.5"/>
<circle id="nav70" opacity="0.5" cx="257" cy="625" r="2.5"/>
<circle id="nav71" opacity="0.5" cx="267" cy="625" r="2.5"/>
<circle id="nav72" opacity="0.5" cx="277" cy="625" r="2.5"/>
<circle id="nav73" opacity="0.5" cx="287" cy="625" r="2.5"/>
<circle id="nav74" opacity="0.5" cx="297" cy="625" r="2.5"/>
<circle id="nav75" opacity="0.5" cx="307" cy="625" r="2.5"/>
<circle id="nav76" opacity="0.5" cx="317" cy="625" r="2.5"/>
<circle id="nav77" opacity="0.5" cx="327" cy="625" r="2.5"/>
<circle id="nav78" opacity="0.5" cx="337" cy="625" r="2.5"/>
<circle id="nav79" opacity="0.5" cx="347" cy="625" r="2.5"/>
<circle id="nav80" opacity="0.5" cx="357" cy="625" r="2.5"/>
<circle id="nav81" opacity="0.5" cx="367" cy="625" r="2.5"/>
<circle id="nav82" opacity="0.5" cx="377" cy="625" r="2.5"/>
<circle id="nav83" opacity="0.5" cx="387" cy="625" r="2.5"/>
<circle id="nav84" opacity="0.5" cx="397" cy="625" r="2.5"/>
<circle id="nav85" opacity="0.5" cx="407" cy="625" r="2.5"/>
<circle id="nav86" opacity="0.5" cx="417" cy="625" r="2.5"/>
<circle id="nav87" opacity="1.0" cx="427" cy="625" r="2.5"/>
<circle id="nav88" opacity="0.5" cx="437" cy="625" r="2.5"/>
<circle id="nav89" opacity="0.5" cx="447" cy="625" r="2.5"/>
<circle id="nav90" opacity="0.5" cx="457" cy="625" r="2.5"/>
<circle id="nav91" opacity="0.5" cx="467" cy="625" r="2.5"/>
<circle id="nav92" opacity="0.5" cx="477" cy="625" r="2.5"/>
<circle id="nav93" opacity="0.5" cx="487" cy="625" r="2.5"/>
<circle id="nav94" opacity="0.5" cx="497" cy="625" r="2.5"/>
<circle id="nav95" opacity="0.5" cx="507" cy="625" r="2.5"/>
<circle id="nav96" opacity="0.5" cx="517" cy="625" r="2.5"/>
<circle id="nav97" opacity="0.5" cx="527" cy="625" r="2.5"/>
<circle id="nav98" opacity="0.5" cx="537" cy="625" r="2.5"/>
<circle id="nav99" opacity="0.5" cx="547" cy="625" r="2.5"/>
<circle id="nav100" opacity="0.5" cx="557" cy="625" r="2.5"/>
<circle id="nav101" opacity="0.5" cx="567" cy="625" r="2.5"/>
<circle id="nav102" opacity="0.5" cx="577" cy="625" r="2.5"/>
<circle id="nav103" opacity="0.5" cx="587" cy="625" r="2.5"/>
</g>
</svg>
